G04 #@! TF.GenerationSoftware,KiCad,Pcbnew,(5.1.4)-1*
G04 #@! TF.CreationDate,2020-03-11T19:41:45+01:00*
G04 #@! TF.ProjectId,Jopen,4a6f7065-6e2e-46b6-9963-61645f706362,rev?*
G04 #@! TF.SameCoordinates,Original*
G04 #@! TF.FileFunction,Legend,Top*
G04 #@! TF.FilePolarity,Positive*
%FSLAX46Y46*%
G04 Gerber Fmt 4.6, Leading zero omitted, Abs format (unit mm)*
G04 Created by KiCad (PCBNEW (5.1.4)-1) date 2020-03-11 19:41:45*
%MOMM*%
%LPD*%
G04 APERTURE LIST*
%ADD10C,0.150000*%
G04 APERTURE END LIST*
D10*
X89638095Y-58552380D02*
X89638095Y-57552380D01*
X89638095Y-58028571D02*
X90209523Y-58028571D01*
X90209523Y-58552380D02*
X90209523Y-57552380D01*
X91114285Y-57885714D02*
X91114285Y-58552380D01*
X90876190Y-57504761D02*
X90638095Y-58219047D01*
X91257142Y-58219047D01*
X198438095Y-126702380D02*
X198438095Y-125702380D01*
X198438095Y-126178571D02*
X199009523Y-126178571D01*
X199009523Y-126702380D02*
X199009523Y-125702380D01*
X199390476Y-125702380D02*
X200009523Y-125702380D01*
X199676190Y-126083333D01*
X199819047Y-126083333D01*
X199914285Y-126130952D01*
X199961904Y-126178571D01*
X200009523Y-126273809D01*
X200009523Y-126511904D01*
X199961904Y-126607142D01*
X199914285Y-126654761D01*
X199819047Y-126702380D01*
X199533333Y-126702380D01*
X199438095Y-126654761D01*
X199390476Y-126607142D01*
X89388095Y-126652380D02*
X89388095Y-125652380D01*
X89388095Y-126128571D02*
X89959523Y-126128571D01*
X89959523Y-126652380D02*
X89959523Y-125652380D01*
X90388095Y-125747619D02*
X90435714Y-125700000D01*
X90530952Y-125652380D01*
X90769047Y-125652380D01*
X90864285Y-125700000D01*
X90911904Y-125747619D01*
X90959523Y-125842857D01*
X90959523Y-125938095D01*
X90911904Y-126080952D01*
X90340476Y-126652380D01*
X90959523Y-126652380D01*
X197888095Y-58552380D02*
X197888095Y-57552380D01*
X197888095Y-58028571D02*
X198459523Y-58028571D01*
X198459523Y-58552380D02*
X198459523Y-57552380D01*
X199459523Y-58552380D02*
X198888095Y-58552380D01*
X199173809Y-58552380D02*
X199173809Y-57552380D01*
X199078571Y-57695238D01*
X198983333Y-57790476D01*
X198888095Y-57838095D01*
M02*
