G04 #@! TF.GenerationSoftware,KiCad,Pcbnew,(5.1.4)-1*
G04 #@! TF.CreationDate,2020-03-11T19:41:45+01:00*
G04 #@! TF.ProjectId,Jopen,4a6f7065-6e2e-46b6-9963-61645f706362,rev?*
G04 #@! TF.SameCoordinates,Original*
G04 #@! TF.FileFunction,Legend,Bot*
G04 #@! TF.FilePolarity,Positive*
%FSLAX46Y46*%
G04 Gerber Fmt 4.6, Leading zero omitted, Abs format (unit mm)*
G04 Created by KiCad (PCBNEW (5.1.4)-1) date 2020-03-11 19:41:45*
%MOMM*%
%LPD*%
G04 APERTURE LIST*
%ADD10C,0.400000*%
%ADD11C,0.500000*%
%ADD12C,0.300000*%
%ADD13C,0.120000*%
%ADD14C,0.200000*%
%ADD15C,0.150000*%
%ADD16C,0.254000*%
G04 APERTURE END LIST*
D10*
X91445238Y-115795238D02*
X91445238Y-115604761D01*
X91350000Y-115414285D01*
X91254761Y-115319047D01*
X91064285Y-115223809D01*
X90683333Y-115128571D01*
X90207142Y-115128571D01*
X89826190Y-115223809D01*
X89635714Y-115319047D01*
X89540476Y-115414285D01*
X89445238Y-115604761D01*
X89445238Y-115795238D01*
X89540476Y-115985714D01*
X89635714Y-116080952D01*
X89826190Y-116176190D01*
X90207142Y-116271428D01*
X90683333Y-116271428D01*
X91064285Y-116176190D01*
X91254761Y-116080952D01*
X91350000Y-115985714D01*
X91445238Y-115795238D01*
X91445238Y-114461904D02*
X91445238Y-113223809D01*
X90683333Y-113890476D01*
X90683333Y-113604761D01*
X90588095Y-113414285D01*
X90492857Y-113319047D01*
X90302380Y-113223809D01*
X89826190Y-113223809D01*
X89635714Y-113319047D01*
X89540476Y-113414285D01*
X89445238Y-113604761D01*
X89445238Y-114176190D01*
X89540476Y-114366666D01*
X89635714Y-114461904D01*
X91254761Y-112461904D02*
X91350000Y-112366666D01*
X91445238Y-112176190D01*
X91445238Y-111700000D01*
X91350000Y-111509523D01*
X91254761Y-111414285D01*
X91064285Y-111319047D01*
X90873809Y-111319047D01*
X90588095Y-111414285D01*
X89445238Y-112557142D01*
X89445238Y-111319047D01*
X91445238Y-110080952D02*
X91445238Y-109890476D01*
X91350000Y-109700000D01*
X91254761Y-109604761D01*
X91064285Y-109509523D01*
X90683333Y-109414285D01*
X90207142Y-109414285D01*
X89826190Y-109509523D01*
X89635714Y-109604761D01*
X89540476Y-109700000D01*
X89445238Y-109890476D01*
X89445238Y-110080952D01*
X89540476Y-110271428D01*
X89635714Y-110366666D01*
X89826190Y-110461904D01*
X90207142Y-110557142D01*
X90683333Y-110557142D01*
X91064285Y-110461904D01*
X91254761Y-110366666D01*
X91350000Y-110271428D01*
X91445238Y-110080952D01*
X89445238Y-105985714D02*
X89445238Y-107128571D01*
X89445238Y-106557142D02*
X91445238Y-106557142D01*
X91159523Y-106747619D01*
X90969047Y-106938095D01*
X90873809Y-107128571D01*
X89635714Y-105128571D02*
X89540476Y-105033333D01*
X89445238Y-105128571D01*
X89540476Y-105223809D01*
X89635714Y-105128571D01*
X89445238Y-105128571D01*
X91445238Y-103795238D02*
X91445238Y-103604761D01*
X91350000Y-103414285D01*
X91254761Y-103319047D01*
X91064285Y-103223809D01*
X90683333Y-103128571D01*
X90207142Y-103128571D01*
X89826190Y-103223809D01*
X89635714Y-103319047D01*
X89540476Y-103414285D01*
X89445238Y-103604761D01*
X89445238Y-103795238D01*
X89540476Y-103985714D01*
X89635714Y-104080952D01*
X89826190Y-104176190D01*
X90207142Y-104271428D01*
X90683333Y-104271428D01*
X91064285Y-104176190D01*
X91254761Y-104080952D01*
X91350000Y-103985714D01*
X91445238Y-103795238D01*
D11*
X198700000Y-70050000D02*
G75*
G03X198700000Y-70050000I-3000000J0D01*
G01*
X198700000Y-113850000D02*
G75*
G03X198700000Y-113850000I-3000000J0D01*
G01*
X194935714Y-69500000D02*
X196364285Y-69500000D01*
X194650000Y-68642857D02*
X195650000Y-71642857D01*
X196650000Y-68642857D01*
X195335714Y-113935714D02*
X194907142Y-114078571D01*
X194764285Y-114221428D01*
X194621428Y-114507142D01*
X194621428Y-114935714D01*
X194764285Y-115221428D01*
X194907142Y-115364285D01*
X195192857Y-115507142D01*
X196335714Y-115507142D01*
X196335714Y-112507142D01*
X195335714Y-112507142D01*
X195050000Y-112650000D01*
X194907142Y-112792857D01*
X194764285Y-113078571D01*
X194764285Y-113364285D01*
X194907142Y-113650000D01*
X195050000Y-113792857D01*
X195335714Y-113935714D01*
X196335714Y-113935714D01*
D12*
X162780952Y-57735714D02*
X162780952Y-56535714D01*
X162304761Y-58421428D02*
X161828571Y-57135714D01*
X163066666Y-57135714D01*
X177671428Y-56535714D02*
X176528571Y-56535714D01*
X177100000Y-56535714D02*
X177100000Y-58335714D01*
X176909523Y-58078571D01*
X176719047Y-57907142D01*
X176528571Y-57821428D01*
X185528571Y-56707142D02*
X185433333Y-56621428D01*
X185147619Y-56535714D01*
X184957142Y-56535714D01*
X184671428Y-56621428D01*
X184480952Y-56792857D01*
X184385714Y-56964285D01*
X184290476Y-57307142D01*
X184290476Y-57564285D01*
X184385714Y-57907142D01*
X184480952Y-58078571D01*
X184671428Y-58250000D01*
X184957142Y-58335714D01*
X185147619Y-58335714D01*
X185433333Y-58250000D01*
X185528571Y-58164285D01*
X186766666Y-58335714D02*
X187147619Y-58335714D01*
X187338095Y-58250000D01*
X187528571Y-58078571D01*
X187623809Y-57735714D01*
X187623809Y-57135714D01*
X187528571Y-56792857D01*
X187338095Y-56621428D01*
X187147619Y-56535714D01*
X186766666Y-56535714D01*
X186576190Y-56621428D01*
X186385714Y-56792857D01*
X186290476Y-57135714D01*
X186290476Y-57735714D01*
X186385714Y-58078571D01*
X186576190Y-58250000D01*
X186766666Y-58335714D01*
X188480952Y-56535714D02*
X188480952Y-58335714D01*
X189147619Y-57050000D01*
X189814285Y-58335714D01*
X189814285Y-56535714D01*
X122869047Y-56707142D02*
X122773809Y-56621428D01*
X122488095Y-56535714D01*
X122297619Y-56535714D01*
X122011904Y-56621428D01*
X121821428Y-56792857D01*
X121726190Y-56964285D01*
X121630952Y-57307142D01*
X121630952Y-57564285D01*
X121726190Y-57907142D01*
X121821428Y-58078571D01*
X122011904Y-58250000D01*
X122297619Y-58335714D01*
X122488095Y-58335714D01*
X122773809Y-58250000D01*
X122869047Y-58164285D01*
X181904761Y-58335714D02*
X182095238Y-58335714D01*
X182285714Y-58250000D01*
X182380952Y-58164285D01*
X182476190Y-57992857D01*
X182571428Y-57650000D01*
X182571428Y-57221428D01*
X182476190Y-56878571D01*
X182380952Y-56707142D01*
X182285714Y-56621428D01*
X182095238Y-56535714D01*
X181904761Y-56535714D01*
X181714285Y-56621428D01*
X181619047Y-56707142D01*
X181523809Y-56878571D01*
X181428571Y-57221428D01*
X181428571Y-57650000D01*
X181523809Y-57992857D01*
X181619047Y-58164285D01*
X181714285Y-58250000D01*
X181904761Y-58335714D01*
X136969047Y-56535714D02*
X137350000Y-56535714D01*
X137540476Y-56621428D01*
X137635714Y-56707142D01*
X137826190Y-56964285D01*
X137921428Y-57307142D01*
X137921428Y-57992857D01*
X137826190Y-58164285D01*
X137730952Y-58250000D01*
X137540476Y-58335714D01*
X137159523Y-58335714D01*
X136969047Y-58250000D01*
X136873809Y-58164285D01*
X136778571Y-57992857D01*
X136778571Y-57564285D01*
X136873809Y-57392857D01*
X136969047Y-57307142D01*
X137159523Y-57221428D01*
X137540476Y-57221428D01*
X137730952Y-57307142D01*
X137826190Y-57392857D01*
X137921428Y-57564285D01*
X146583333Y-58335714D02*
X147916666Y-58335714D01*
X147059523Y-56535714D01*
X107535714Y-57478571D02*
X106869047Y-57478571D01*
X106869047Y-56535714D02*
X106869047Y-58335714D01*
X107821428Y-58335714D01*
X101569047Y-56535714D02*
X100426190Y-56535714D01*
X100997619Y-56535714D02*
X100997619Y-58335714D01*
X100807142Y-58078571D01*
X100616666Y-57907142D01*
X100426190Y-57821428D01*
X102807142Y-58335714D02*
X102997619Y-58335714D01*
X103188095Y-58250000D01*
X103283333Y-58164285D01*
X103378571Y-57992857D01*
X103473809Y-57650000D01*
X103473809Y-57221428D01*
X103378571Y-56878571D01*
X103283333Y-56707142D01*
X103188095Y-56621428D01*
X102997619Y-56535714D01*
X102807142Y-56535714D01*
X102616666Y-56621428D01*
X102521428Y-56707142D01*
X102426190Y-56878571D01*
X102330952Y-57221428D01*
X102330952Y-57650000D01*
X102426190Y-57992857D01*
X102521428Y-58164285D01*
X102616666Y-58250000D01*
X102807142Y-58335714D01*
X116826190Y-56535714D02*
X116826190Y-58335714D01*
X117302380Y-58335714D01*
X117588095Y-58250000D01*
X117778571Y-58078571D01*
X117873809Y-57907142D01*
X117969047Y-57564285D01*
X117969047Y-57307142D01*
X117873809Y-56964285D01*
X117778571Y-56792857D01*
X117588095Y-56621428D01*
X117302380Y-56535714D01*
X116826190Y-56535714D01*
X127442857Y-57478571D02*
X127728571Y-57392857D01*
X127823809Y-57307142D01*
X127919047Y-57135714D01*
X127919047Y-56878571D01*
X127823809Y-56707142D01*
X127728571Y-56621428D01*
X127538095Y-56535714D01*
X126776190Y-56535714D01*
X126776190Y-58335714D01*
X127442857Y-58335714D01*
X127633333Y-58250000D01*
X127728571Y-58164285D01*
X127823809Y-57992857D01*
X127823809Y-57821428D01*
X127728571Y-57650000D01*
X127633333Y-57564285D01*
X127442857Y-57478571D01*
X126776190Y-57478571D01*
X141809523Y-57564285D02*
X141619047Y-57650000D01*
X141523809Y-57735714D01*
X141428571Y-57907142D01*
X141428571Y-57992857D01*
X141523809Y-58164285D01*
X141619047Y-58250000D01*
X141809523Y-58335714D01*
X142190476Y-58335714D01*
X142380952Y-58250000D01*
X142476190Y-58164285D01*
X142571428Y-57992857D01*
X142571428Y-57907142D01*
X142476190Y-57735714D01*
X142380952Y-57650000D01*
X142190476Y-57564285D01*
X141809523Y-57564285D01*
X141619047Y-57478571D01*
X141523809Y-57392857D01*
X141428571Y-57221428D01*
X141428571Y-56878571D01*
X141523809Y-56707142D01*
X141619047Y-56621428D01*
X141809523Y-56535714D01*
X142190476Y-56535714D01*
X142380952Y-56621428D01*
X142476190Y-56707142D01*
X142571428Y-56878571D01*
X142571428Y-57221428D01*
X142476190Y-57392857D01*
X142380952Y-57478571D01*
X142190476Y-57564285D01*
X157776190Y-58335714D02*
X156823809Y-58335714D01*
X156728571Y-57478571D01*
X156823809Y-57564285D01*
X157014285Y-57650000D01*
X157490476Y-57650000D01*
X157680952Y-57564285D01*
X157776190Y-57478571D01*
X157871428Y-57307142D01*
X157871428Y-56878571D01*
X157776190Y-56707142D01*
X157680952Y-56621428D01*
X157490476Y-56535714D01*
X157014285Y-56535714D01*
X156823809Y-56621428D01*
X156728571Y-56707142D01*
X111871428Y-57478571D02*
X112538095Y-57478571D01*
X112823809Y-56535714D02*
X111871428Y-56535714D01*
X111871428Y-58335714D01*
X112823809Y-58335714D01*
X166333333Y-58335714D02*
X167571428Y-58335714D01*
X166904761Y-57650000D01*
X167190476Y-57650000D01*
X167380952Y-57564285D01*
X167476190Y-57478571D01*
X167571428Y-57307142D01*
X167571428Y-56878571D01*
X167476190Y-56707142D01*
X167380952Y-56621428D01*
X167190476Y-56535714D01*
X166619047Y-56535714D01*
X166428571Y-56621428D01*
X166333333Y-56707142D01*
X171428571Y-58164285D02*
X171523809Y-58250000D01*
X171714285Y-58335714D01*
X172190476Y-58335714D01*
X172380952Y-58250000D01*
X172476190Y-58164285D01*
X172571428Y-57992857D01*
X172571428Y-57821428D01*
X172476190Y-57564285D01*
X171333333Y-56535714D01*
X172571428Y-56535714D01*
X131673809Y-57050000D02*
X132626190Y-57050000D01*
X131483333Y-56535714D02*
X132150000Y-58335714D01*
X132816666Y-56535714D01*
X152680952Y-58335714D02*
X152300000Y-58335714D01*
X152109523Y-58250000D01*
X152014285Y-58164285D01*
X151823809Y-57907142D01*
X151728571Y-57564285D01*
X151728571Y-56878571D01*
X151823809Y-56707142D01*
X151919047Y-56621428D01*
X152109523Y-56535714D01*
X152490476Y-56535714D01*
X152680952Y-56621428D01*
X152776190Y-56707142D01*
X152871428Y-56878571D01*
X152871428Y-57307142D01*
X152776190Y-57478571D01*
X152680952Y-57564285D01*
X152490476Y-57650000D01*
X152109523Y-57650000D01*
X151919047Y-57564285D01*
X151823809Y-57478571D01*
X151728571Y-57307142D01*
X188721428Y-127342857D02*
X188816666Y-127428571D01*
X189102380Y-127514285D01*
X189292857Y-127514285D01*
X189578571Y-127428571D01*
X189769047Y-127257142D01*
X189864285Y-127085714D01*
X189959523Y-126742857D01*
X189959523Y-126485714D01*
X189864285Y-126142857D01*
X189769047Y-125971428D01*
X189578571Y-125800000D01*
X189292857Y-125714285D01*
X189102380Y-125714285D01*
X188816666Y-125800000D01*
X188721428Y-125885714D01*
X187483333Y-125714285D02*
X187102380Y-125714285D01*
X186911904Y-125800000D01*
X186721428Y-125971428D01*
X186626190Y-126314285D01*
X186626190Y-126914285D01*
X186721428Y-127257142D01*
X186911904Y-127428571D01*
X187102380Y-127514285D01*
X187483333Y-127514285D01*
X187673809Y-127428571D01*
X187864285Y-127257142D01*
X187959523Y-126914285D01*
X187959523Y-126314285D01*
X187864285Y-125971428D01*
X187673809Y-125800000D01*
X187483333Y-125714285D01*
X185769047Y-127514285D02*
X185769047Y-125714285D01*
X185102380Y-127000000D01*
X184435714Y-125714285D01*
X184435714Y-127514285D01*
X176578571Y-127514285D02*
X177721428Y-127514285D01*
X177150000Y-127514285D02*
X177150000Y-125714285D01*
X177340476Y-125971428D01*
X177530952Y-126142857D01*
X177721428Y-126228571D01*
X121680952Y-127342857D02*
X121776190Y-127428571D01*
X122061904Y-127514285D01*
X122252380Y-127514285D01*
X122538095Y-127428571D01*
X122728571Y-127257142D01*
X122823809Y-127085714D01*
X122919047Y-126742857D01*
X122919047Y-126485714D01*
X122823809Y-126142857D01*
X122728571Y-125971428D01*
X122538095Y-125800000D01*
X122252380Y-125714285D01*
X122061904Y-125714285D01*
X121776190Y-125800000D01*
X121680952Y-125885714D01*
X182145238Y-125714285D02*
X181954761Y-125714285D01*
X181764285Y-125800000D01*
X181669047Y-125885714D01*
X181573809Y-126057142D01*
X181478571Y-126400000D01*
X181478571Y-126828571D01*
X181573809Y-127171428D01*
X181669047Y-127342857D01*
X181764285Y-127428571D01*
X181954761Y-127514285D01*
X182145238Y-127514285D01*
X182335714Y-127428571D01*
X182430952Y-127342857D01*
X182526190Y-127171428D01*
X182621428Y-126828571D01*
X182621428Y-126400000D01*
X182526190Y-126057142D01*
X182430952Y-125885714D01*
X182335714Y-125800000D01*
X182145238Y-125714285D01*
X107014285Y-126571428D02*
X107680952Y-126571428D01*
X107680952Y-127514285D02*
X107680952Y-125714285D01*
X106728571Y-125714285D01*
X102380952Y-127514285D02*
X103523809Y-127514285D01*
X102952380Y-127514285D02*
X102952380Y-125714285D01*
X103142857Y-125971428D01*
X103333333Y-126142857D01*
X103523809Y-126228571D01*
X101142857Y-125714285D02*
X100952380Y-125714285D01*
X100761904Y-125800000D01*
X100666666Y-125885714D01*
X100571428Y-126057142D01*
X100476190Y-126400000D01*
X100476190Y-126828571D01*
X100571428Y-127171428D01*
X100666666Y-127342857D01*
X100761904Y-127428571D01*
X100952380Y-127514285D01*
X101142857Y-127514285D01*
X101333333Y-127428571D01*
X101428571Y-127342857D01*
X101523809Y-127171428D01*
X101619047Y-126828571D01*
X101619047Y-126400000D01*
X101523809Y-126057142D01*
X101428571Y-125885714D01*
X101333333Y-125800000D01*
X101142857Y-125714285D01*
X117923809Y-127514285D02*
X117923809Y-125714285D01*
X117447619Y-125714285D01*
X117161904Y-125800000D01*
X116971428Y-125971428D01*
X116876190Y-126142857D01*
X116780952Y-126485714D01*
X116780952Y-126742857D01*
X116876190Y-127085714D01*
X116971428Y-127257142D01*
X117161904Y-127428571D01*
X117447619Y-127514285D01*
X117923809Y-127514285D01*
X127207142Y-126571428D02*
X126921428Y-126657142D01*
X126826190Y-126742857D01*
X126730952Y-126914285D01*
X126730952Y-127171428D01*
X126826190Y-127342857D01*
X126921428Y-127428571D01*
X127111904Y-127514285D01*
X127873809Y-127514285D01*
X127873809Y-125714285D01*
X127207142Y-125714285D01*
X127016666Y-125800000D01*
X126921428Y-125885714D01*
X126826190Y-126057142D01*
X126826190Y-126228571D01*
X126921428Y-126400000D01*
X127016666Y-126485714D01*
X127207142Y-126571428D01*
X127873809Y-126571428D01*
X132676190Y-127000000D02*
X131723809Y-127000000D01*
X132866666Y-127514285D02*
X132200000Y-125714285D01*
X131533333Y-127514285D01*
X112778571Y-126571428D02*
X112111904Y-126571428D01*
X111826190Y-127514285D02*
X112778571Y-127514285D01*
X112778571Y-125714285D01*
X111826190Y-125714285D01*
X142240476Y-126485714D02*
X142430952Y-126400000D01*
X142526190Y-126314285D01*
X142621428Y-126142857D01*
X142621428Y-126057142D01*
X142526190Y-125885714D01*
X142430952Y-125800000D01*
X142240476Y-125714285D01*
X141859523Y-125714285D01*
X141669047Y-125800000D01*
X141573809Y-125885714D01*
X141478571Y-126057142D01*
X141478571Y-126142857D01*
X141573809Y-126314285D01*
X141669047Y-126400000D01*
X141859523Y-126485714D01*
X142240476Y-126485714D01*
X142430952Y-126571428D01*
X142526190Y-126657142D01*
X142621428Y-126828571D01*
X142621428Y-127171428D01*
X142526190Y-127342857D01*
X142430952Y-127428571D01*
X142240476Y-127514285D01*
X141859523Y-127514285D01*
X141669047Y-127428571D01*
X141573809Y-127342857D01*
X141478571Y-127171428D01*
X141478571Y-126828571D01*
X141573809Y-126657142D01*
X141669047Y-126571428D01*
X141859523Y-126485714D01*
X137780952Y-127514285D02*
X137400000Y-127514285D01*
X137209523Y-127428571D01*
X137114285Y-127342857D01*
X136923809Y-127085714D01*
X136828571Y-126742857D01*
X136828571Y-126057142D01*
X136923809Y-125885714D01*
X137019047Y-125800000D01*
X137209523Y-125714285D01*
X137590476Y-125714285D01*
X137780952Y-125800000D01*
X137876190Y-125885714D01*
X137971428Y-126057142D01*
X137971428Y-126485714D01*
X137876190Y-126657142D01*
X137780952Y-126742857D01*
X137590476Y-126828571D01*
X137209523Y-126828571D01*
X137019047Y-126742857D01*
X136923809Y-126657142D01*
X136828571Y-126485714D01*
X147966666Y-125714285D02*
X146633333Y-125714285D01*
X147490476Y-127514285D01*
X151969047Y-125714285D02*
X152350000Y-125714285D01*
X152540476Y-125800000D01*
X152635714Y-125885714D01*
X152826190Y-126142857D01*
X152921428Y-126485714D01*
X152921428Y-127171428D01*
X152826190Y-127342857D01*
X152730952Y-127428571D01*
X152540476Y-127514285D01*
X152159523Y-127514285D01*
X151969047Y-127428571D01*
X151873809Y-127342857D01*
X151778571Y-127171428D01*
X151778571Y-126742857D01*
X151873809Y-126571428D01*
X151969047Y-126485714D01*
X152159523Y-126400000D01*
X152540476Y-126400000D01*
X152730952Y-126485714D01*
X152826190Y-126571428D01*
X152921428Y-126742857D01*
X156873809Y-125714285D02*
X157826190Y-125714285D01*
X157921428Y-126571428D01*
X157826190Y-126485714D01*
X157635714Y-126400000D01*
X157159523Y-126400000D01*
X156969047Y-126485714D01*
X156873809Y-126571428D01*
X156778571Y-126742857D01*
X156778571Y-127171428D01*
X156873809Y-127342857D01*
X156969047Y-127428571D01*
X157159523Y-127514285D01*
X157635714Y-127514285D01*
X157826190Y-127428571D01*
X157921428Y-127342857D01*
X162069047Y-126314285D02*
X162069047Y-127514285D01*
X162545238Y-125628571D02*
X163021428Y-126914285D01*
X161783333Y-126914285D01*
X167716666Y-125714285D02*
X166478571Y-125714285D01*
X167145238Y-126400000D01*
X166859523Y-126400000D01*
X166669047Y-126485714D01*
X166573809Y-126571428D01*
X166478571Y-126742857D01*
X166478571Y-127171428D01*
X166573809Y-127342857D01*
X166669047Y-127428571D01*
X166859523Y-127514285D01*
X167430952Y-127514285D01*
X167621428Y-127428571D01*
X167716666Y-127342857D01*
X172621428Y-125885714D02*
X172526190Y-125800000D01*
X172335714Y-125714285D01*
X171859523Y-125714285D01*
X171669047Y-125800000D01*
X171573809Y-125885714D01*
X171478571Y-126057142D01*
X171478571Y-126228571D01*
X171573809Y-126485714D01*
X172716666Y-127514285D01*
X171478571Y-127514285D01*
D11*
X93290476Y-116190476D02*
X97290476Y-116190476D01*
X95385714Y-116190476D02*
X95385714Y-113904761D01*
X93290476Y-113904761D02*
X97290476Y-113904761D01*
X93290476Y-112000000D02*
X97290476Y-112000000D01*
X93290476Y-110095238D02*
X97290476Y-110095238D01*
X97290476Y-109142857D01*
X97100000Y-108571428D01*
X96719047Y-108190476D01*
X96338095Y-108000000D01*
X95576190Y-107809523D01*
X95004761Y-107809523D01*
X94242857Y-108000000D01*
X93861904Y-108190476D01*
X93480952Y-108571428D01*
X93290476Y-109142857D01*
X93290476Y-110095238D01*
X97290476Y-105333333D02*
X97290476Y-104571428D01*
X97100000Y-104190476D01*
X96719047Y-103809523D01*
X95957142Y-103619047D01*
X94623809Y-103619047D01*
X93861904Y-103809523D01*
X93480952Y-104190476D01*
X93290476Y-104571428D01*
X93290476Y-105333333D01*
X93480952Y-105714285D01*
X93861904Y-106095238D01*
X94623809Y-106285714D01*
X95957142Y-106285714D01*
X96719047Y-106095238D01*
X97100000Y-105714285D01*
X97290476Y-105333333D01*
D13*
X190840000Y-117012779D02*
X190840000Y-116687221D01*
X191860000Y-117012779D02*
X191860000Y-116687221D01*
X191190000Y-67725279D02*
X191190000Y-67399721D01*
X192210000Y-67725279D02*
X192210000Y-67399721D01*
X99550000Y-78150000D02*
X98750000Y-78150000D01*
X99550000Y-73500000D02*
X99550000Y-78150000D01*
X96350000Y-73500000D02*
X96350000Y-78150000D01*
X93700000Y-78150000D02*
X92900000Y-78150000D01*
X93700000Y-73500000D02*
X93700000Y-78150000D01*
X90500000Y-73500000D02*
X90500000Y-78150000D01*
X105350000Y-78150000D02*
X104550000Y-78150000D01*
X105350000Y-73500000D02*
X105350000Y-78150000D01*
X102150000Y-73500000D02*
X102150000Y-78150000D01*
X187400000Y-107900000D02*
X187400000Y-107100000D01*
X192050000Y-107900000D02*
X187400000Y-107900000D01*
X192050000Y-104700000D02*
X187400000Y-104700000D01*
X156187221Y-78490000D02*
X156512779Y-78490000D01*
X156187221Y-79510000D02*
X156512779Y-79510000D01*
X108862779Y-76410000D02*
X108537221Y-76410000D01*
X108862779Y-75390000D02*
X108537221Y-75390000D01*
X108537221Y-69690000D02*
X108862779Y-69690000D01*
X108537221Y-70710000D02*
X108862779Y-70710000D01*
X108862779Y-73510000D02*
X108537221Y-73510000D01*
X108862779Y-72490000D02*
X108537221Y-72490000D01*
X127430000Y-85550000D02*
X126100000Y-85550000D01*
X127430000Y-86880000D02*
X127430000Y-85550000D01*
X127430000Y-88150000D02*
X124770000Y-88150000D01*
X124770000Y-88150000D02*
X124770000Y-98370000D01*
X127430000Y-88150000D02*
X127430000Y-98370000D01*
X127430000Y-98370000D02*
X124770000Y-98370000D01*
X154537221Y-90940000D02*
X154862779Y-90940000D01*
X154537221Y-91960000D02*
X154862779Y-91960000D01*
X88550000Y-95960000D02*
X90500000Y-95960000D01*
X92720000Y-95960000D02*
X95950000Y-95960000D01*
X97870000Y-95240000D02*
X97870000Y-94160000D01*
X97870000Y-89940000D02*
X97870000Y-88860000D01*
X92720000Y-88140000D02*
X95950000Y-88140000D01*
X88550000Y-88140000D02*
X90500000Y-88140000D01*
X97870000Y-94160000D02*
X98300000Y-94160000D01*
X88550000Y-88140000D02*
X88550000Y-95960000D01*
X152224273Y-95154478D02*
X152454478Y-94924273D01*
X152945522Y-95875727D02*
X153175727Y-95645522D01*
X183362779Y-95610000D02*
X183037221Y-95610000D01*
X183362779Y-94590000D02*
X183037221Y-94590000D01*
X103737221Y-90690000D02*
X104062779Y-90690000D01*
X103737221Y-91710000D02*
X104062779Y-91710000D01*
X103737221Y-92390000D02*
X104062779Y-92390000D01*
X103737221Y-93410000D02*
X104062779Y-93410000D01*
X100887221Y-105750000D02*
X101212779Y-105750000D01*
X100887221Y-106770000D02*
X101212779Y-106770000D01*
X101212779Y-111690000D02*
X100887221Y-111690000D01*
X101212779Y-112710000D02*
X100887221Y-112710000D01*
X100887221Y-108590000D02*
X101212779Y-108590000D01*
X100887221Y-109610000D02*
X101212779Y-109610000D01*
X110340000Y-95340000D02*
X116350000Y-95340000D01*
X112590000Y-88520000D02*
X116350000Y-88520000D01*
X116350000Y-95340000D02*
X116350000Y-94080000D01*
X116350000Y-88520000D02*
X116350000Y-89780000D01*
X145041751Y-85525120D02*
X145989275Y-84577597D01*
X144370000Y-84853369D02*
X145041751Y-85525120D01*
X143698249Y-85525120D02*
X144370000Y-84853369D01*
X137143369Y-92080000D02*
X137815120Y-92751751D01*
X137815120Y-91408249D02*
X137143369Y-92080000D01*
X151596631Y-92080000D02*
X150924880Y-91408249D01*
X150924880Y-92751751D02*
X151596631Y-92080000D01*
X144370000Y-99306631D02*
X143698249Y-98634880D01*
X145041751Y-98634880D02*
X144370000Y-99306631D01*
X126137221Y-105750000D02*
X126462779Y-105750000D01*
X126137221Y-106770000D02*
X126462779Y-106770000D01*
X131137221Y-105750000D02*
X131462779Y-105750000D01*
X131137221Y-106770000D02*
X131462779Y-106770000D01*
X136037221Y-105750000D02*
X136362779Y-105750000D01*
X136037221Y-106770000D02*
X136362779Y-106770000D01*
X141067221Y-105750000D02*
X141392779Y-105750000D01*
X141067221Y-106770000D02*
X141392779Y-106770000D01*
X119062779Y-76610000D02*
X118737221Y-76610000D01*
X119062779Y-75590000D02*
X118737221Y-75590000D01*
X146137221Y-105750000D02*
X146462779Y-105750000D01*
X146137221Y-106770000D02*
X146462779Y-106770000D01*
X114075279Y-76610000D02*
X113749721Y-76610000D01*
X114075279Y-75590000D02*
X113749721Y-75590000D01*
X151024721Y-105750000D02*
X151350279Y-105750000D01*
X151024721Y-106770000D02*
X151350279Y-106770000D01*
X156137221Y-105750000D02*
X156462779Y-105750000D01*
X156137221Y-106770000D02*
X156462779Y-106770000D01*
X143962779Y-76610000D02*
X143637221Y-76610000D01*
X143962779Y-75590000D02*
X143637221Y-75590000D01*
X171047221Y-105750000D02*
X171372779Y-105750000D01*
X171047221Y-106770000D02*
X171372779Y-106770000D01*
X138962779Y-76610000D02*
X138637221Y-76610000D01*
X138962779Y-75590000D02*
X138637221Y-75590000D01*
X161124721Y-105750000D02*
X161450279Y-105750000D01*
X161124721Y-106770000D02*
X161450279Y-106770000D01*
X133962779Y-76610000D02*
X133637221Y-76610000D01*
X133962779Y-75590000D02*
X133637221Y-75590000D01*
X181037221Y-105890000D02*
X181362779Y-105890000D01*
X181037221Y-106910000D02*
X181362779Y-106910000D01*
X129075279Y-76610000D02*
X128749721Y-76610000D01*
X129075279Y-75590000D02*
X128749721Y-75590000D01*
X183925279Y-76610000D02*
X183599721Y-76610000D01*
X183925279Y-75590000D02*
X183599721Y-75590000D01*
X123982779Y-76610000D02*
X123657221Y-76610000D01*
X123982779Y-75590000D02*
X123657221Y-75590000D01*
X188842779Y-76610000D02*
X188517221Y-76610000D01*
X188842779Y-75590000D02*
X188517221Y-75590000D01*
X163972779Y-76610000D02*
X163647221Y-76610000D01*
X163972779Y-75590000D02*
X163647221Y-75590000D01*
X168862779Y-76610000D02*
X168537221Y-76610000D01*
X168862779Y-75590000D02*
X168537221Y-75590000D01*
X173862779Y-76610000D02*
X173537221Y-76610000D01*
X173862779Y-75590000D02*
X173537221Y-75590000D01*
X178962779Y-76610000D02*
X178637221Y-76610000D01*
X178962779Y-75590000D02*
X178637221Y-75590000D01*
X176037221Y-105820000D02*
X176362779Y-105820000D01*
X176037221Y-106840000D02*
X176362779Y-106840000D01*
X166037221Y-105750000D02*
X166362779Y-105750000D01*
X166037221Y-106770000D02*
X166362779Y-106770000D01*
X121077221Y-105750000D02*
X121402779Y-105750000D01*
X121077221Y-106770000D02*
X121402779Y-106770000D01*
X116037221Y-105750000D02*
X116362779Y-105750000D01*
X116037221Y-106770000D02*
X116362779Y-106770000D01*
X148972779Y-76610000D02*
X148647221Y-76610000D01*
X148972779Y-75590000D02*
X148647221Y-75590000D01*
X154045279Y-76610000D02*
X153719721Y-76610000D01*
X154045279Y-75590000D02*
X153719721Y-75590000D01*
X110937221Y-105750000D02*
X111262779Y-105750000D01*
X110937221Y-106770000D02*
X111262779Y-106770000D01*
X105987221Y-105750000D02*
X106312779Y-105750000D01*
X105987221Y-106770000D02*
X106312779Y-106770000D01*
X158932779Y-76610000D02*
X158607221Y-76610000D01*
X158932779Y-75590000D02*
X158607221Y-75590000D01*
X98175279Y-70610000D02*
X97849721Y-70610000D01*
X98175279Y-69590000D02*
X97849721Y-69590000D01*
X92262779Y-70610000D02*
X91937221Y-70610000D01*
X92262779Y-69590000D02*
X91937221Y-69590000D01*
X103775279Y-70610000D02*
X103449721Y-70610000D01*
X103775279Y-69590000D02*
X103449721Y-69590000D01*
X195724721Y-105890000D02*
X196050279Y-105890000D01*
X195724721Y-106910000D02*
X196050279Y-106910000D01*
X126530279Y-111690000D02*
X126204721Y-111690000D01*
X126530279Y-112710000D02*
X126204721Y-112710000D01*
X131512779Y-111690000D02*
X131187221Y-111690000D01*
X131512779Y-112710000D02*
X131187221Y-112710000D01*
X136562779Y-111690000D02*
X136237221Y-111690000D01*
X136562779Y-112710000D02*
X136237221Y-112710000D01*
X141502779Y-111690000D02*
X141177221Y-111690000D01*
X141502779Y-112710000D02*
X141177221Y-112710000D01*
X146552779Y-111690000D02*
X146227221Y-111690000D01*
X146552779Y-112710000D02*
X146227221Y-112710000D01*
X151522779Y-111690000D02*
X151197221Y-111690000D01*
X151522779Y-112710000D02*
X151197221Y-112710000D01*
X143757221Y-69650000D02*
X144082779Y-69650000D01*
X143757221Y-70670000D02*
X144082779Y-70670000D01*
X138767221Y-69650000D02*
X139092779Y-69650000D01*
X138767221Y-70670000D02*
X139092779Y-70670000D01*
X133799721Y-69650000D02*
X134125279Y-69650000D01*
X133799721Y-70670000D02*
X134125279Y-70670000D01*
X128797221Y-69650000D02*
X129122779Y-69650000D01*
X128797221Y-70670000D02*
X129122779Y-70670000D01*
X123687221Y-69650000D02*
X124012779Y-69650000D01*
X123687221Y-70670000D02*
X124012779Y-70670000D01*
X158717221Y-69650000D02*
X159042779Y-69650000D01*
X158717221Y-70670000D02*
X159042779Y-70670000D01*
X153717221Y-69650000D02*
X154042779Y-69650000D01*
X153717221Y-70670000D02*
X154042779Y-70670000D01*
X148717221Y-69650000D02*
X149042779Y-69650000D01*
X148717221Y-70670000D02*
X149042779Y-70670000D01*
D14*
X189450000Y-115400000D02*
X189450000Y-120150000D01*
X99450000Y-115400000D02*
X189450000Y-115400000D01*
X99450000Y-124900000D02*
X99450000Y-115400000D01*
X186950000Y-124900000D02*
X99450000Y-124900000D01*
X189550000Y-59000000D02*
X189550000Y-63750000D01*
X99550000Y-59000000D02*
X189550000Y-59000000D01*
X99550000Y-68500000D02*
X99550000Y-59000000D01*
X187050000Y-68500000D02*
X99550000Y-68500000D01*
D13*
X161850279Y-101210000D02*
X161524721Y-101210000D01*
X161850279Y-100190000D02*
X161524721Y-100190000D01*
X126149721Y-108590000D02*
X126475279Y-108590000D01*
X126149721Y-109610000D02*
X126475279Y-109610000D01*
X131137221Y-108590000D02*
X131462779Y-108590000D01*
X131137221Y-109610000D02*
X131462779Y-109610000D01*
X136137221Y-108590000D02*
X136462779Y-108590000D01*
X136137221Y-109610000D02*
X136462779Y-109610000D01*
X141137221Y-108590000D02*
X141462779Y-108590000D01*
X141137221Y-109610000D02*
X141462779Y-109610000D01*
X119075279Y-73710000D02*
X118749721Y-73710000D01*
X119075279Y-72690000D02*
X118749721Y-72690000D01*
X146137221Y-108590000D02*
X146462779Y-108590000D01*
X146137221Y-109610000D02*
X146462779Y-109610000D01*
X114062779Y-73710000D02*
X113737221Y-73710000D01*
X114062779Y-72690000D02*
X113737221Y-72690000D01*
X151137221Y-108590000D02*
X151462779Y-108590000D01*
X151137221Y-109610000D02*
X151462779Y-109610000D01*
X156137221Y-108590000D02*
X156462779Y-108590000D01*
X156137221Y-109610000D02*
X156462779Y-109610000D01*
X143962779Y-73710000D02*
X143637221Y-73710000D01*
X143962779Y-72690000D02*
X143637221Y-72690000D01*
X171124721Y-108590000D02*
X171450279Y-108590000D01*
X171124721Y-109610000D02*
X171450279Y-109610000D01*
X138962779Y-73710000D02*
X138637221Y-73710000D01*
X138962779Y-72690000D02*
X138637221Y-72690000D01*
X161137221Y-108590000D02*
X161462779Y-108590000D01*
X161137221Y-109610000D02*
X161462779Y-109610000D01*
X134062779Y-73710000D02*
X133737221Y-73710000D01*
X134062779Y-72690000D02*
X133737221Y-72690000D01*
X181037221Y-108590000D02*
X181362779Y-108590000D01*
X181037221Y-109610000D02*
X181362779Y-109610000D01*
X129062779Y-73710000D02*
X128737221Y-73710000D01*
X129062779Y-72690000D02*
X128737221Y-72690000D01*
X183962779Y-73710000D02*
X183637221Y-73710000D01*
X183962779Y-72690000D02*
X183637221Y-72690000D01*
X124050279Y-73710000D02*
X123724721Y-73710000D01*
X124050279Y-72690000D02*
X123724721Y-72690000D01*
X188950279Y-73710000D02*
X188624721Y-73710000D01*
X188950279Y-72690000D02*
X188624721Y-72690000D01*
X163962779Y-73710000D02*
X163637221Y-73710000D01*
X163962779Y-72690000D02*
X163637221Y-72690000D01*
X168875279Y-73710000D02*
X168549721Y-73710000D01*
X168875279Y-72690000D02*
X168549721Y-72690000D01*
X173862779Y-73710000D02*
X173537221Y-73710000D01*
X173862779Y-72690000D02*
X173537221Y-72690000D01*
X179075279Y-73710000D02*
X178749721Y-73710000D01*
X179075279Y-72690000D02*
X178749721Y-72690000D01*
X176137221Y-108590000D02*
X176462779Y-108590000D01*
X176137221Y-109610000D02*
X176462779Y-109610000D01*
X166137221Y-108590000D02*
X166462779Y-108590000D01*
X166137221Y-109610000D02*
X166462779Y-109610000D01*
X121137221Y-108590000D02*
X121462779Y-108590000D01*
X121137221Y-109610000D02*
X121462779Y-109610000D01*
X148962779Y-73710000D02*
X148637221Y-73710000D01*
X148962779Y-72690000D02*
X148637221Y-72690000D01*
X116037221Y-108590000D02*
X116362779Y-108590000D01*
X116037221Y-109610000D02*
X116362779Y-109610000D01*
X154062779Y-73710000D02*
X153737221Y-73710000D01*
X154062779Y-72690000D02*
X153737221Y-72690000D01*
X110937221Y-108590000D02*
X111262779Y-108590000D01*
X110937221Y-109610000D02*
X111262779Y-109610000D01*
X158962779Y-73710000D02*
X158637221Y-73710000D01*
X158962779Y-72690000D02*
X158637221Y-72690000D01*
X105987221Y-108590000D02*
X106312779Y-108590000D01*
X105987221Y-109610000D02*
X106312779Y-109610000D01*
X143962779Y-83110000D02*
X143637221Y-83110000D01*
X143962779Y-82090000D02*
X143637221Y-82090000D01*
X159930000Y-88870000D02*
X158600000Y-88870000D01*
X159930000Y-90200000D02*
X159930000Y-88870000D01*
X159930000Y-91470000D02*
X157270000Y-91470000D01*
X157270000Y-91470000D02*
X157270000Y-96610000D01*
X159930000Y-91470000D02*
X159930000Y-96610000D01*
X159930000Y-96610000D02*
X157270000Y-96610000D01*
X118727221Y-69650000D02*
X119052779Y-69650000D01*
X118727221Y-70670000D02*
X119052779Y-70670000D01*
X113767221Y-69650000D02*
X114092779Y-69650000D01*
X113767221Y-70670000D02*
X114092779Y-70670000D01*
X156522779Y-111690000D02*
X156197221Y-111690000D01*
X156522779Y-112710000D02*
X156197221Y-112710000D01*
X171455279Y-111690000D02*
X171129721Y-111690000D01*
X171455279Y-112710000D02*
X171129721Y-112710000D01*
X161500279Y-111690000D02*
X161174721Y-111690000D01*
X161500279Y-112710000D02*
X161174721Y-112710000D01*
X149900000Y-80050000D02*
X162500000Y-80050000D01*
X149900000Y-85150000D02*
X149900000Y-80050000D01*
X162500000Y-85150000D02*
X149900000Y-85150000D01*
X175570000Y-94480000D02*
X172120000Y-94480000D01*
X175570000Y-94480000D02*
X177520000Y-94480000D01*
X175570000Y-89360000D02*
X173620000Y-89360000D01*
X175570000Y-89360000D02*
X177520000Y-89360000D01*
X185110000Y-92358578D02*
X185110000Y-91841422D01*
X183690000Y-92358578D02*
X183690000Y-91841422D01*
X182850279Y-89010000D02*
X182524721Y-89010000D01*
X182850279Y-87990000D02*
X182524721Y-87990000D01*
X101937221Y-97390000D02*
X102262779Y-97390000D01*
X101937221Y-98410000D02*
X102262779Y-98410000D01*
X181762779Y-91810000D02*
X181437221Y-91810000D01*
X181762779Y-90790000D02*
X181437221Y-90790000D01*
X168337221Y-92040000D02*
X168662779Y-92040000D01*
X168337221Y-93060000D02*
X168662779Y-93060000D01*
X168662779Y-95210000D02*
X168337221Y-95210000D01*
X168662779Y-94190000D02*
X168337221Y-94190000D01*
X168612779Y-90810000D02*
X168287221Y-90810000D01*
X168612779Y-89790000D02*
X168287221Y-89790000D01*
X181432779Y-111690000D02*
X181107221Y-111690000D01*
X181432779Y-112710000D02*
X181107221Y-112710000D01*
X183627221Y-69650000D02*
X183952779Y-69650000D01*
X183627221Y-70670000D02*
X183952779Y-70670000D01*
X188637221Y-69650000D02*
X188962779Y-69650000D01*
X188637221Y-70670000D02*
X188962779Y-70670000D01*
X163747221Y-69650000D02*
X164072779Y-69650000D01*
X163747221Y-70670000D02*
X164072779Y-70670000D01*
X168637221Y-69650000D02*
X168962779Y-69650000D01*
X168637221Y-70670000D02*
X168962779Y-70670000D01*
X173587221Y-69650000D02*
X173912779Y-69650000D01*
X173587221Y-70670000D02*
X173912779Y-70670000D01*
X178647221Y-69650000D02*
X178972779Y-69650000D01*
X178647221Y-70670000D02*
X178972779Y-70670000D01*
X176562779Y-111690000D02*
X176237221Y-111690000D01*
X176562779Y-112710000D02*
X176237221Y-112710000D01*
X166452779Y-111690000D02*
X166127221Y-111690000D01*
X166452779Y-112710000D02*
X166127221Y-112710000D01*
X121492779Y-111690000D02*
X121167221Y-111690000D01*
X121492779Y-112710000D02*
X121167221Y-112710000D01*
X116362779Y-111690000D02*
X116037221Y-111690000D01*
X116362779Y-112710000D02*
X116037221Y-112710000D01*
X111345279Y-111690000D02*
X111019721Y-111690000D01*
X111345279Y-112710000D02*
X111019721Y-112710000D01*
X106352779Y-111690000D02*
X106027221Y-111690000D01*
X106352779Y-112710000D02*
X106027221Y-112710000D01*
X161822779Y-99360000D02*
X161497221Y-99360000D01*
X161822779Y-98340000D02*
X161497221Y-98340000D01*
X200320000Y-84730000D02*
X200320000Y-99230000D01*
X200320000Y-99230000D02*
X199820000Y-99230000D01*
X199820000Y-99230000D02*
X199820000Y-98230000D01*
X199820000Y-98230000D02*
X191820000Y-98230000D01*
X188320000Y-98230000D02*
X186320000Y-98230000D01*
X186320000Y-98230000D02*
X186320000Y-85730000D01*
X186320000Y-85730000D02*
X188320000Y-85730000D01*
X191820000Y-85730000D02*
X199820000Y-85730000D01*
X199820000Y-85730000D02*
X199820000Y-84730000D01*
X199820000Y-84730000D02*
X200320000Y-84730000D01*
X186070000Y-87980000D02*
X186070000Y-88980000D01*
X114047221Y-86440000D02*
X114372779Y-86440000D01*
X114047221Y-87460000D02*
X114372779Y-87460000D01*
X107840000Y-94937221D02*
X107840000Y-95262779D01*
X108860000Y-94937221D02*
X108860000Y-95262779D01*
X177945279Y-96510000D02*
X177619721Y-96510000D01*
X177945279Y-95490000D02*
X177619721Y-95490000D01*
X154537221Y-89190000D02*
X154862779Y-89190000D01*
X154537221Y-90210000D02*
X154862779Y-90210000D01*
X165010000Y-83237221D02*
X165010000Y-83562779D01*
X163990000Y-83237221D02*
X163990000Y-83562779D01*
X148290000Y-81962779D02*
X148290000Y-81637221D01*
X149310000Y-81962779D02*
X149310000Y-81637221D01*
X134254478Y-90875727D02*
X134024273Y-90645522D01*
X134975727Y-90154478D02*
X134745522Y-89924273D01*
X144845522Y-100524273D02*
X145075727Y-100754478D01*
X144124273Y-101245522D02*
X144354478Y-101475727D01*
D15*
X191852380Y-113107142D02*
X191376190Y-112773809D01*
X191852380Y-112535714D02*
X190852380Y-112535714D01*
X190852380Y-112916666D01*
X190900000Y-113011904D01*
X190947619Y-113059523D01*
X191042857Y-113107142D01*
X191185714Y-113107142D01*
X191280952Y-113059523D01*
X191328571Y-113011904D01*
X191376190Y-112916666D01*
X191376190Y-112535714D01*
X191280952Y-113678571D02*
X191233333Y-113583333D01*
X191185714Y-113535714D01*
X191090476Y-113488095D01*
X191042857Y-113488095D01*
X190947619Y-113535714D01*
X190900000Y-113583333D01*
X190852380Y-113678571D01*
X190852380Y-113869047D01*
X190900000Y-113964285D01*
X190947619Y-114011904D01*
X191042857Y-114059523D01*
X191090476Y-114059523D01*
X191185714Y-114011904D01*
X191233333Y-113964285D01*
X191280952Y-113869047D01*
X191280952Y-113678571D01*
X191328571Y-113583333D01*
X191376190Y-113535714D01*
X191471428Y-113488095D01*
X191661904Y-113488095D01*
X191757142Y-113535714D01*
X191804761Y-113583333D01*
X191852380Y-113678571D01*
X191852380Y-113869047D01*
X191804761Y-113964285D01*
X191757142Y-114011904D01*
X191661904Y-114059523D01*
X191471428Y-114059523D01*
X191376190Y-114011904D01*
X191328571Y-113964285D01*
X191280952Y-113869047D01*
X190852380Y-114916666D02*
X190852380Y-114726190D01*
X190900000Y-114630952D01*
X190947619Y-114583333D01*
X191090476Y-114488095D01*
X191280952Y-114440476D01*
X191661904Y-114440476D01*
X191757142Y-114488095D01*
X191804761Y-114535714D01*
X191852380Y-114630952D01*
X191852380Y-114821428D01*
X191804761Y-114916666D01*
X191757142Y-114964285D01*
X191661904Y-115011904D01*
X191423809Y-115011904D01*
X191328571Y-114964285D01*
X191280952Y-114916666D01*
X191233333Y-114821428D01*
X191233333Y-114630952D01*
X191280952Y-114535714D01*
X191328571Y-114488095D01*
X191423809Y-114440476D01*
X192152380Y-70007142D02*
X191676190Y-69673809D01*
X192152380Y-69435714D02*
X191152380Y-69435714D01*
X191152380Y-69816666D01*
X191200000Y-69911904D01*
X191247619Y-69959523D01*
X191342857Y-70007142D01*
X191485714Y-70007142D01*
X191580952Y-69959523D01*
X191628571Y-69911904D01*
X191676190Y-69816666D01*
X191676190Y-69435714D01*
X191580952Y-70578571D02*
X191533333Y-70483333D01*
X191485714Y-70435714D01*
X191390476Y-70388095D01*
X191342857Y-70388095D01*
X191247619Y-70435714D01*
X191200000Y-70483333D01*
X191152380Y-70578571D01*
X191152380Y-70769047D01*
X191200000Y-70864285D01*
X191247619Y-70911904D01*
X191342857Y-70959523D01*
X191390476Y-70959523D01*
X191485714Y-70911904D01*
X191533333Y-70864285D01*
X191580952Y-70769047D01*
X191580952Y-70578571D01*
X191628571Y-70483333D01*
X191676190Y-70435714D01*
X191771428Y-70388095D01*
X191961904Y-70388095D01*
X192057142Y-70435714D01*
X192104761Y-70483333D01*
X192152380Y-70578571D01*
X192152380Y-70769047D01*
X192104761Y-70864285D01*
X192057142Y-70911904D01*
X191961904Y-70959523D01*
X191771428Y-70959523D01*
X191676190Y-70911904D01*
X191628571Y-70864285D01*
X191580952Y-70769047D01*
X191152380Y-71864285D02*
X191152380Y-71388095D01*
X191628571Y-71340476D01*
X191580952Y-71388095D01*
X191533333Y-71483333D01*
X191533333Y-71721428D01*
X191580952Y-71816666D01*
X191628571Y-71864285D01*
X191723809Y-71911904D01*
X191961904Y-71911904D01*
X192057142Y-71864285D01*
X192104761Y-71816666D01*
X192152380Y-71721428D01*
X192152380Y-71483333D01*
X192104761Y-71388095D01*
X192057142Y-71340476D01*
X100902380Y-75011904D02*
X99902380Y-75011904D01*
X99902380Y-75250000D01*
X99950000Y-75392857D01*
X100045238Y-75488095D01*
X100140476Y-75535714D01*
X100330952Y-75583333D01*
X100473809Y-75583333D01*
X100664285Y-75535714D01*
X100759523Y-75488095D01*
X100854761Y-75392857D01*
X100902380Y-75250000D01*
X100902380Y-75011904D01*
X100235714Y-76440476D02*
X100902380Y-76440476D01*
X99854761Y-76202380D02*
X100569047Y-75964285D01*
X100569047Y-76583333D01*
X95052380Y-75011904D02*
X94052380Y-75011904D01*
X94052380Y-75250000D01*
X94100000Y-75392857D01*
X94195238Y-75488095D01*
X94290476Y-75535714D01*
X94480952Y-75583333D01*
X94623809Y-75583333D01*
X94814285Y-75535714D01*
X94909523Y-75488095D01*
X95004761Y-75392857D01*
X95052380Y-75250000D01*
X95052380Y-75011904D01*
X94052380Y-75916666D02*
X94052380Y-76535714D01*
X94433333Y-76202380D01*
X94433333Y-76345238D01*
X94480952Y-76440476D01*
X94528571Y-76488095D01*
X94623809Y-76535714D01*
X94861904Y-76535714D01*
X94957142Y-76488095D01*
X95004761Y-76440476D01*
X95052380Y-76345238D01*
X95052380Y-76059523D01*
X95004761Y-75964285D01*
X94957142Y-75916666D01*
X106702380Y-75011904D02*
X105702380Y-75011904D01*
X105702380Y-75250000D01*
X105750000Y-75392857D01*
X105845238Y-75488095D01*
X105940476Y-75535714D01*
X106130952Y-75583333D01*
X106273809Y-75583333D01*
X106464285Y-75535714D01*
X106559523Y-75488095D01*
X106654761Y-75392857D01*
X106702380Y-75250000D01*
X106702380Y-75011904D01*
X105797619Y-75964285D02*
X105750000Y-76011904D01*
X105702380Y-76107142D01*
X105702380Y-76345238D01*
X105750000Y-76440476D01*
X105797619Y-76488095D01*
X105892857Y-76535714D01*
X105988095Y-76535714D01*
X106130952Y-76488095D01*
X106702380Y-75916666D01*
X106702380Y-76535714D01*
X190538095Y-109252380D02*
X190538095Y-108252380D01*
X190300000Y-108252380D01*
X190157142Y-108300000D01*
X190061904Y-108395238D01*
X190014285Y-108490476D01*
X189966666Y-108680952D01*
X189966666Y-108823809D01*
X190014285Y-109014285D01*
X190061904Y-109109523D01*
X190157142Y-109204761D01*
X190300000Y-109252380D01*
X190538095Y-109252380D01*
X189014285Y-109252380D02*
X189585714Y-109252380D01*
X189300000Y-109252380D02*
X189300000Y-108252380D01*
X189395238Y-108395238D01*
X189490476Y-108490476D01*
X189585714Y-108538095D01*
X153892857Y-79752380D02*
X154226190Y-79276190D01*
X154464285Y-79752380D02*
X154464285Y-78752380D01*
X154083333Y-78752380D01*
X153988095Y-78800000D01*
X153940476Y-78847619D01*
X153892857Y-78942857D01*
X153892857Y-79085714D01*
X153940476Y-79180952D01*
X153988095Y-79228571D01*
X154083333Y-79276190D01*
X154464285Y-79276190D01*
X153321428Y-79180952D02*
X153416666Y-79133333D01*
X153464285Y-79085714D01*
X153511904Y-78990476D01*
X153511904Y-78942857D01*
X153464285Y-78847619D01*
X153416666Y-78800000D01*
X153321428Y-78752380D01*
X153130952Y-78752380D01*
X153035714Y-78800000D01*
X152988095Y-78847619D01*
X152940476Y-78942857D01*
X152940476Y-78990476D01*
X152988095Y-79085714D01*
X153035714Y-79133333D01*
X153130952Y-79180952D01*
X153321428Y-79180952D01*
X153416666Y-79228571D01*
X153464285Y-79276190D01*
X153511904Y-79371428D01*
X153511904Y-79561904D01*
X153464285Y-79657142D01*
X153416666Y-79704761D01*
X153321428Y-79752380D01*
X153130952Y-79752380D01*
X153035714Y-79704761D01*
X152988095Y-79657142D01*
X152940476Y-79561904D01*
X152940476Y-79371428D01*
X152988095Y-79276190D01*
X153035714Y-79228571D01*
X153130952Y-79180952D01*
X152083333Y-79085714D02*
X152083333Y-79752380D01*
X152321428Y-78704761D02*
X152559523Y-79419047D01*
X151940476Y-79419047D01*
X109342857Y-78052380D02*
X109676190Y-77576190D01*
X109914285Y-78052380D02*
X109914285Y-77052380D01*
X109533333Y-77052380D01*
X109438095Y-77100000D01*
X109390476Y-77147619D01*
X109342857Y-77242857D01*
X109342857Y-77385714D01*
X109390476Y-77480952D01*
X109438095Y-77528571D01*
X109533333Y-77576190D01*
X109914285Y-77576190D01*
X108771428Y-77480952D02*
X108866666Y-77433333D01*
X108914285Y-77385714D01*
X108961904Y-77290476D01*
X108961904Y-77242857D01*
X108914285Y-77147619D01*
X108866666Y-77100000D01*
X108771428Y-77052380D01*
X108580952Y-77052380D01*
X108485714Y-77100000D01*
X108438095Y-77147619D01*
X108390476Y-77242857D01*
X108390476Y-77290476D01*
X108438095Y-77385714D01*
X108485714Y-77433333D01*
X108580952Y-77480952D01*
X108771428Y-77480952D01*
X108866666Y-77528571D01*
X108914285Y-77576190D01*
X108961904Y-77671428D01*
X108961904Y-77861904D01*
X108914285Y-77957142D01*
X108866666Y-78004761D01*
X108771428Y-78052380D01*
X108580952Y-78052380D01*
X108485714Y-78004761D01*
X108438095Y-77957142D01*
X108390476Y-77861904D01*
X108390476Y-77671428D01*
X108438095Y-77576190D01*
X108485714Y-77528571D01*
X108580952Y-77480952D01*
X108057142Y-77052380D02*
X107438095Y-77052380D01*
X107771428Y-77433333D01*
X107628571Y-77433333D01*
X107533333Y-77480952D01*
X107485714Y-77528571D01*
X107438095Y-77623809D01*
X107438095Y-77861904D01*
X107485714Y-77957142D01*
X107533333Y-78004761D01*
X107628571Y-78052380D01*
X107914285Y-78052380D01*
X108009523Y-78004761D01*
X108057142Y-77957142D01*
X109342857Y-72052380D02*
X109676190Y-71576190D01*
X109914285Y-72052380D02*
X109914285Y-71052380D01*
X109533333Y-71052380D01*
X109438095Y-71100000D01*
X109390476Y-71147619D01*
X109342857Y-71242857D01*
X109342857Y-71385714D01*
X109390476Y-71480952D01*
X109438095Y-71528571D01*
X109533333Y-71576190D01*
X109914285Y-71576190D01*
X108771428Y-71480952D02*
X108866666Y-71433333D01*
X108914285Y-71385714D01*
X108961904Y-71290476D01*
X108961904Y-71242857D01*
X108914285Y-71147619D01*
X108866666Y-71100000D01*
X108771428Y-71052380D01*
X108580952Y-71052380D01*
X108485714Y-71100000D01*
X108438095Y-71147619D01*
X108390476Y-71242857D01*
X108390476Y-71290476D01*
X108438095Y-71385714D01*
X108485714Y-71433333D01*
X108580952Y-71480952D01*
X108771428Y-71480952D01*
X108866666Y-71528571D01*
X108914285Y-71576190D01*
X108961904Y-71671428D01*
X108961904Y-71861904D01*
X108914285Y-71957142D01*
X108866666Y-72004761D01*
X108771428Y-72052380D01*
X108580952Y-72052380D01*
X108485714Y-72004761D01*
X108438095Y-71957142D01*
X108390476Y-71861904D01*
X108390476Y-71671428D01*
X108438095Y-71576190D01*
X108485714Y-71528571D01*
X108580952Y-71480952D01*
X108009523Y-71147619D02*
X107961904Y-71100000D01*
X107866666Y-71052380D01*
X107628571Y-71052380D01*
X107533333Y-71100000D01*
X107485714Y-71147619D01*
X107438095Y-71242857D01*
X107438095Y-71338095D01*
X107485714Y-71480952D01*
X108057142Y-72052380D01*
X107438095Y-72052380D01*
X109342857Y-74857142D02*
X109390476Y-74904761D01*
X109533333Y-74952380D01*
X109628571Y-74952380D01*
X109771428Y-74904761D01*
X109866666Y-74809523D01*
X109914285Y-74714285D01*
X109961904Y-74523809D01*
X109961904Y-74380952D01*
X109914285Y-74190476D01*
X109866666Y-74095238D01*
X109771428Y-74000000D01*
X109628571Y-73952380D01*
X109533333Y-73952380D01*
X109390476Y-74000000D01*
X109342857Y-74047619D01*
X108485714Y-74285714D02*
X108485714Y-74952380D01*
X108723809Y-73904761D02*
X108961904Y-74619047D01*
X108342857Y-74619047D01*
X107533333Y-73952380D02*
X107723809Y-73952380D01*
X107819047Y-74000000D01*
X107866666Y-74047619D01*
X107961904Y-74190476D01*
X108009523Y-74380952D01*
X108009523Y-74761904D01*
X107961904Y-74857142D01*
X107914285Y-74904761D01*
X107819047Y-74952380D01*
X107628571Y-74952380D01*
X107533333Y-74904761D01*
X107485714Y-74857142D01*
X107438095Y-74761904D01*
X107438095Y-74523809D01*
X107485714Y-74428571D01*
X107533333Y-74380952D01*
X107628571Y-74333333D01*
X107819047Y-74333333D01*
X107914285Y-74380952D01*
X107961904Y-74428571D01*
X108009523Y-74523809D01*
X122902380Y-91176190D02*
X123616666Y-91176190D01*
X123759523Y-91128571D01*
X123854761Y-91033333D01*
X123902380Y-90890476D01*
X123902380Y-90795238D01*
X123235714Y-91509523D02*
X123235714Y-91890476D01*
X122902380Y-91652380D02*
X123759523Y-91652380D01*
X123854761Y-91700000D01*
X123902380Y-91795238D01*
X123902380Y-91890476D01*
X123902380Y-92652380D02*
X123378571Y-92652380D01*
X123283333Y-92604761D01*
X123235714Y-92509523D01*
X123235714Y-92319047D01*
X123283333Y-92223809D01*
X123854761Y-92652380D02*
X123902380Y-92557142D01*
X123902380Y-92319047D01*
X123854761Y-92223809D01*
X123759523Y-92176190D01*
X123664285Y-92176190D01*
X123569047Y-92223809D01*
X123521428Y-92319047D01*
X123521428Y-92557142D01*
X123473809Y-92652380D01*
X123235714Y-93557142D02*
X124045238Y-93557142D01*
X124140476Y-93509523D01*
X124188095Y-93461904D01*
X124235714Y-93366666D01*
X124235714Y-93223809D01*
X124188095Y-93128571D01*
X123854761Y-93557142D02*
X123902380Y-93461904D01*
X123902380Y-93271428D01*
X123854761Y-93176190D01*
X123807142Y-93128571D01*
X123711904Y-93080952D01*
X123426190Y-93080952D01*
X123330952Y-93128571D01*
X123283333Y-93176190D01*
X123235714Y-93271428D01*
X123235714Y-93461904D01*
X123283333Y-93557142D01*
X123902380Y-94557142D02*
X123902380Y-93985714D01*
X123902380Y-94271428D02*
X122902380Y-94271428D01*
X123045238Y-94176190D01*
X123140476Y-94080952D01*
X123188095Y-93985714D01*
X154866666Y-93237142D02*
X154914285Y-93284761D01*
X155057142Y-93332380D01*
X155152380Y-93332380D01*
X155295238Y-93284761D01*
X155390476Y-93189523D01*
X155438095Y-93094285D01*
X155485714Y-92903809D01*
X155485714Y-92760952D01*
X155438095Y-92570476D01*
X155390476Y-92475238D01*
X155295238Y-92380000D01*
X155152380Y-92332380D01*
X155057142Y-92332380D01*
X154914285Y-92380000D01*
X154866666Y-92427619D01*
X153961904Y-92332380D02*
X154438095Y-92332380D01*
X154485714Y-92808571D01*
X154438095Y-92760952D01*
X154342857Y-92713333D01*
X154104761Y-92713333D01*
X154009523Y-92760952D01*
X153961904Y-92808571D01*
X153914285Y-92903809D01*
X153914285Y-93141904D01*
X153961904Y-93237142D01*
X154009523Y-93284761D01*
X154104761Y-93332380D01*
X154342857Y-93332380D01*
X154438095Y-93284761D01*
X154485714Y-93237142D01*
X97388095Y-85552380D02*
X97388095Y-84552380D01*
X97054761Y-85266666D01*
X96721428Y-84552380D01*
X96721428Y-85552380D01*
X96245238Y-85552380D02*
X96245238Y-84885714D01*
X96245238Y-84552380D02*
X96292857Y-84600000D01*
X96245238Y-84647619D01*
X96197619Y-84600000D01*
X96245238Y-84552380D01*
X96245238Y-84647619D01*
X95769047Y-84885714D02*
X95769047Y-85552380D01*
X95769047Y-84980952D02*
X95721428Y-84933333D01*
X95626190Y-84885714D01*
X95483333Y-84885714D01*
X95388095Y-84933333D01*
X95340476Y-85028571D01*
X95340476Y-85552380D01*
X94864285Y-85552380D02*
X94864285Y-84885714D01*
X94864285Y-84552380D02*
X94911904Y-84600000D01*
X94864285Y-84647619D01*
X94816666Y-84600000D01*
X94864285Y-84552380D01*
X94864285Y-84647619D01*
X94388095Y-84552380D02*
X94388095Y-85361904D01*
X94340476Y-85457142D01*
X94292857Y-85504761D01*
X94197619Y-85552380D01*
X94007142Y-85552380D01*
X93911904Y-85504761D01*
X93864285Y-85457142D01*
X93816666Y-85361904D01*
X93816666Y-84552380D01*
X93388095Y-85504761D02*
X93245238Y-85552380D01*
X93007142Y-85552380D01*
X92911904Y-85504761D01*
X92864285Y-85457142D01*
X92816666Y-85361904D01*
X92816666Y-85266666D01*
X92864285Y-85171428D01*
X92911904Y-85123809D01*
X93007142Y-85076190D01*
X93197619Y-85028571D01*
X93292857Y-84980952D01*
X93340476Y-84933333D01*
X93388095Y-84838095D01*
X93388095Y-84742857D01*
X93340476Y-84647619D01*
X93292857Y-84600000D01*
X93197619Y-84552380D01*
X92959523Y-84552380D01*
X92816666Y-84600000D01*
X92054761Y-85028571D02*
X91911904Y-85076190D01*
X91864285Y-85123809D01*
X91816666Y-85219047D01*
X91816666Y-85361904D01*
X91864285Y-85457142D01*
X91911904Y-85504761D01*
X92007142Y-85552380D01*
X92388095Y-85552380D01*
X92388095Y-84552380D01*
X92054761Y-84552380D01*
X91959523Y-84600000D01*
X91911904Y-84647619D01*
X91864285Y-84742857D01*
X91864285Y-84838095D01*
X91911904Y-84933333D01*
X91959523Y-84980952D01*
X92054761Y-85028571D01*
X92388095Y-85028571D01*
X90864285Y-85552380D02*
X91435714Y-85552380D01*
X91150000Y-85552380D02*
X91150000Y-84552380D01*
X91245238Y-84695238D01*
X91340476Y-84790476D01*
X91435714Y-84838095D01*
X154081552Y-96545850D02*
X154148895Y-96545850D01*
X154283582Y-96478506D01*
X154350926Y-96411163D01*
X154418269Y-96276475D01*
X154418269Y-96141788D01*
X154384598Y-96040773D01*
X154283582Y-95872414D01*
X154182567Y-95771399D01*
X154014208Y-95670384D01*
X153913193Y-95636712D01*
X153778506Y-95636712D01*
X153643819Y-95704056D01*
X153576475Y-95771399D01*
X153509132Y-95906086D01*
X153509132Y-95973430D01*
X153475460Y-97286628D02*
X153879521Y-96882567D01*
X153677491Y-97084598D02*
X152970384Y-96377491D01*
X153138743Y-96411163D01*
X153273430Y-96411163D01*
X153374445Y-96377491D01*
X184042857Y-97352380D02*
X184376190Y-96876190D01*
X184614285Y-97352380D02*
X184614285Y-96352380D01*
X184233333Y-96352380D01*
X184138095Y-96400000D01*
X184090476Y-96447619D01*
X184042857Y-96542857D01*
X184042857Y-96685714D01*
X184090476Y-96780952D01*
X184138095Y-96828571D01*
X184233333Y-96876190D01*
X184614285Y-96876190D01*
X183185714Y-96685714D02*
X183185714Y-97352380D01*
X183423809Y-96304761D02*
X183661904Y-97019047D01*
X183042857Y-97019047D01*
X182757142Y-96352380D02*
X182138095Y-96352380D01*
X182471428Y-96733333D01*
X182328571Y-96733333D01*
X182233333Y-96780952D01*
X182185714Y-96828571D01*
X182138095Y-96923809D01*
X182138095Y-97161904D01*
X182185714Y-97257142D01*
X182233333Y-97304761D01*
X182328571Y-97352380D01*
X182614285Y-97352380D01*
X182709523Y-97304761D01*
X182757142Y-97257142D01*
X104542857Y-90252380D02*
X104876190Y-89776190D01*
X105114285Y-90252380D02*
X105114285Y-89252380D01*
X104733333Y-89252380D01*
X104638095Y-89300000D01*
X104590476Y-89347619D01*
X104542857Y-89442857D01*
X104542857Y-89585714D01*
X104590476Y-89680952D01*
X104638095Y-89728571D01*
X104733333Y-89776190D01*
X105114285Y-89776190D01*
X103971428Y-89680952D02*
X104066666Y-89633333D01*
X104114285Y-89585714D01*
X104161904Y-89490476D01*
X104161904Y-89442857D01*
X104114285Y-89347619D01*
X104066666Y-89300000D01*
X103971428Y-89252380D01*
X103780952Y-89252380D01*
X103685714Y-89300000D01*
X103638095Y-89347619D01*
X103590476Y-89442857D01*
X103590476Y-89490476D01*
X103638095Y-89585714D01*
X103685714Y-89633333D01*
X103780952Y-89680952D01*
X103971428Y-89680952D01*
X104066666Y-89728571D01*
X104114285Y-89776190D01*
X104161904Y-89871428D01*
X104161904Y-90061904D01*
X104114285Y-90157142D01*
X104066666Y-90204761D01*
X103971428Y-90252380D01*
X103780952Y-90252380D01*
X103685714Y-90204761D01*
X103638095Y-90157142D01*
X103590476Y-90061904D01*
X103590476Y-89871428D01*
X103638095Y-89776190D01*
X103685714Y-89728571D01*
X103780952Y-89680952D01*
X102638095Y-90252380D02*
X103209523Y-90252380D01*
X102923809Y-90252380D02*
X102923809Y-89252380D01*
X103019047Y-89395238D01*
X103114285Y-89490476D01*
X103209523Y-89538095D01*
X104542857Y-94782380D02*
X104876190Y-94306190D01*
X105114285Y-94782380D02*
X105114285Y-93782380D01*
X104733333Y-93782380D01*
X104638095Y-93830000D01*
X104590476Y-93877619D01*
X104542857Y-93972857D01*
X104542857Y-94115714D01*
X104590476Y-94210952D01*
X104638095Y-94258571D01*
X104733333Y-94306190D01*
X105114285Y-94306190D01*
X103971428Y-94210952D02*
X104066666Y-94163333D01*
X104114285Y-94115714D01*
X104161904Y-94020476D01*
X104161904Y-93972857D01*
X104114285Y-93877619D01*
X104066666Y-93830000D01*
X103971428Y-93782380D01*
X103780952Y-93782380D01*
X103685714Y-93830000D01*
X103638095Y-93877619D01*
X103590476Y-93972857D01*
X103590476Y-94020476D01*
X103638095Y-94115714D01*
X103685714Y-94163333D01*
X103780952Y-94210952D01*
X103971428Y-94210952D01*
X104066666Y-94258571D01*
X104114285Y-94306190D01*
X104161904Y-94401428D01*
X104161904Y-94591904D01*
X104114285Y-94687142D01*
X104066666Y-94734761D01*
X103971428Y-94782380D01*
X103780952Y-94782380D01*
X103685714Y-94734761D01*
X103638095Y-94687142D01*
X103590476Y-94591904D01*
X103590476Y-94401428D01*
X103638095Y-94306190D01*
X103685714Y-94258571D01*
X103780952Y-94210952D01*
X102971428Y-93782380D02*
X102876190Y-93782380D01*
X102780952Y-93830000D01*
X102733333Y-93877619D01*
X102685714Y-93972857D01*
X102638095Y-94163333D01*
X102638095Y-94401428D01*
X102685714Y-94591904D01*
X102733333Y-94687142D01*
X102780952Y-94734761D01*
X102876190Y-94782380D01*
X102971428Y-94782380D01*
X103066666Y-94734761D01*
X103114285Y-94687142D01*
X103161904Y-94591904D01*
X103209523Y-94401428D01*
X103209523Y-94163333D01*
X103161904Y-93972857D01*
X103114285Y-93877619D01*
X103066666Y-93830000D01*
X102971428Y-93782380D01*
X101692857Y-108142380D02*
X102026190Y-107666190D01*
X102264285Y-108142380D02*
X102264285Y-107142380D01*
X101883333Y-107142380D01*
X101788095Y-107190000D01*
X101740476Y-107237619D01*
X101692857Y-107332857D01*
X101692857Y-107475714D01*
X101740476Y-107570952D01*
X101788095Y-107618571D01*
X101883333Y-107666190D01*
X102264285Y-107666190D01*
X101359523Y-107142380D02*
X100692857Y-107142380D01*
X101121428Y-108142380D01*
X100264285Y-108142380D02*
X100073809Y-108142380D01*
X99978571Y-108094761D01*
X99930952Y-108047142D01*
X99835714Y-107904285D01*
X99788095Y-107713809D01*
X99788095Y-107332857D01*
X99835714Y-107237619D01*
X99883333Y-107190000D01*
X99978571Y-107142380D01*
X100169047Y-107142380D01*
X100264285Y-107190000D01*
X100311904Y-107237619D01*
X100359523Y-107332857D01*
X100359523Y-107570952D01*
X100311904Y-107666190D01*
X100264285Y-107713809D01*
X100169047Y-107761428D01*
X99978571Y-107761428D01*
X99883333Y-107713809D01*
X99835714Y-107666190D01*
X99788095Y-107570952D01*
X101692857Y-114252380D02*
X102026190Y-113776190D01*
X102264285Y-114252380D02*
X102264285Y-113252380D01*
X101883333Y-113252380D01*
X101788095Y-113300000D01*
X101740476Y-113347619D01*
X101692857Y-113442857D01*
X101692857Y-113585714D01*
X101740476Y-113680952D01*
X101788095Y-113728571D01*
X101883333Y-113776190D01*
X102264285Y-113776190D01*
X101359523Y-113252380D02*
X100692857Y-113252380D01*
X101121428Y-114252380D01*
X100169047Y-113680952D02*
X100264285Y-113633333D01*
X100311904Y-113585714D01*
X100359523Y-113490476D01*
X100359523Y-113442857D01*
X100311904Y-113347619D01*
X100264285Y-113300000D01*
X100169047Y-113252380D01*
X99978571Y-113252380D01*
X99883333Y-113300000D01*
X99835714Y-113347619D01*
X99788095Y-113442857D01*
X99788095Y-113490476D01*
X99835714Y-113585714D01*
X99883333Y-113633333D01*
X99978571Y-113680952D01*
X100169047Y-113680952D01*
X100264285Y-113728571D01*
X100311904Y-113776190D01*
X100359523Y-113871428D01*
X100359523Y-114061904D01*
X100311904Y-114157142D01*
X100264285Y-114204761D01*
X100169047Y-114252380D01*
X99978571Y-114252380D01*
X99883333Y-114204761D01*
X99835714Y-114157142D01*
X99788095Y-114061904D01*
X99788095Y-113871428D01*
X99835714Y-113776190D01*
X99883333Y-113728571D01*
X99978571Y-113680952D01*
X101692857Y-110887142D02*
X101740476Y-110934761D01*
X101883333Y-110982380D01*
X101978571Y-110982380D01*
X102121428Y-110934761D01*
X102216666Y-110839523D01*
X102264285Y-110744285D01*
X102311904Y-110553809D01*
X102311904Y-110410952D01*
X102264285Y-110220476D01*
X102216666Y-110125238D01*
X102121428Y-110030000D01*
X101978571Y-109982380D01*
X101883333Y-109982380D01*
X101740476Y-110030000D01*
X101692857Y-110077619D01*
X100835714Y-110315714D02*
X100835714Y-110982380D01*
X101073809Y-109934761D02*
X101311904Y-110649047D01*
X100692857Y-110649047D01*
X99835714Y-109982380D02*
X100311904Y-109982380D01*
X100359523Y-110458571D01*
X100311904Y-110410952D01*
X100216666Y-110363333D01*
X99978571Y-110363333D01*
X99883333Y-110410952D01*
X99835714Y-110458571D01*
X99788095Y-110553809D01*
X99788095Y-110791904D01*
X99835714Y-110887142D01*
X99883333Y-110934761D01*
X99978571Y-110982380D01*
X100216666Y-110982380D01*
X100311904Y-110934761D01*
X100359523Y-110887142D01*
X118811904Y-94602380D02*
X118811904Y-95411904D01*
X118764285Y-95507142D01*
X118716666Y-95554761D01*
X118621428Y-95602380D01*
X118430952Y-95602380D01*
X118335714Y-95554761D01*
X118288095Y-95507142D01*
X118240476Y-95411904D01*
X118240476Y-94602380D01*
X117811904Y-94697619D02*
X117764285Y-94650000D01*
X117669047Y-94602380D01*
X117430952Y-94602380D01*
X117335714Y-94650000D01*
X117288095Y-94697619D01*
X117240476Y-94792857D01*
X117240476Y-94888095D01*
X117288095Y-95030952D01*
X117859523Y-95602380D01*
X117240476Y-95602380D01*
X139288932Y-85921436D02*
X139861352Y-86493856D01*
X139895024Y-86594871D01*
X139895024Y-86662215D01*
X139861352Y-86763230D01*
X139726665Y-86897917D01*
X139625650Y-86931589D01*
X139558306Y-86931589D01*
X139457291Y-86897917D01*
X138884871Y-86325497D01*
X138884871Y-87739711D02*
X139288932Y-87335650D01*
X139086902Y-87537680D02*
X138379795Y-86830574D01*
X138548154Y-86864245D01*
X138682841Y-86864245D01*
X138783856Y-86830574D01*
X126942857Y-108142380D02*
X127276190Y-107666190D01*
X127514285Y-108142380D02*
X127514285Y-107142380D01*
X127133333Y-107142380D01*
X127038095Y-107190000D01*
X126990476Y-107237619D01*
X126942857Y-107332857D01*
X126942857Y-107475714D01*
X126990476Y-107570952D01*
X127038095Y-107618571D01*
X127133333Y-107666190D01*
X127514285Y-107666190D01*
X126609523Y-107142380D02*
X125942857Y-107142380D01*
X126371428Y-108142380D01*
X125657142Y-107142380D02*
X124990476Y-107142380D01*
X125419047Y-108142380D01*
X131942857Y-108142380D02*
X132276190Y-107666190D01*
X132514285Y-108142380D02*
X132514285Y-107142380D01*
X132133333Y-107142380D01*
X132038095Y-107190000D01*
X131990476Y-107237619D01*
X131942857Y-107332857D01*
X131942857Y-107475714D01*
X131990476Y-107570952D01*
X132038095Y-107618571D01*
X132133333Y-107666190D01*
X132514285Y-107666190D01*
X131609523Y-107142380D02*
X130942857Y-107142380D01*
X131371428Y-108142380D01*
X130133333Y-107142380D02*
X130323809Y-107142380D01*
X130419047Y-107190000D01*
X130466666Y-107237619D01*
X130561904Y-107380476D01*
X130609523Y-107570952D01*
X130609523Y-107951904D01*
X130561904Y-108047142D01*
X130514285Y-108094761D01*
X130419047Y-108142380D01*
X130228571Y-108142380D01*
X130133333Y-108094761D01*
X130085714Y-108047142D01*
X130038095Y-107951904D01*
X130038095Y-107713809D01*
X130085714Y-107618571D01*
X130133333Y-107570952D01*
X130228571Y-107523333D01*
X130419047Y-107523333D01*
X130514285Y-107570952D01*
X130561904Y-107618571D01*
X130609523Y-107713809D01*
X136842857Y-108142380D02*
X137176190Y-107666190D01*
X137414285Y-108142380D02*
X137414285Y-107142380D01*
X137033333Y-107142380D01*
X136938095Y-107190000D01*
X136890476Y-107237619D01*
X136842857Y-107332857D01*
X136842857Y-107475714D01*
X136890476Y-107570952D01*
X136938095Y-107618571D01*
X137033333Y-107666190D01*
X137414285Y-107666190D01*
X136509523Y-107142380D02*
X135842857Y-107142380D01*
X136271428Y-108142380D01*
X134985714Y-107142380D02*
X135461904Y-107142380D01*
X135509523Y-107618571D01*
X135461904Y-107570952D01*
X135366666Y-107523333D01*
X135128571Y-107523333D01*
X135033333Y-107570952D01*
X134985714Y-107618571D01*
X134938095Y-107713809D01*
X134938095Y-107951904D01*
X134985714Y-108047142D01*
X135033333Y-108094761D01*
X135128571Y-108142380D01*
X135366666Y-108142380D01*
X135461904Y-108094761D01*
X135509523Y-108047142D01*
X141872857Y-108142380D02*
X142206190Y-107666190D01*
X142444285Y-108142380D02*
X142444285Y-107142380D01*
X142063333Y-107142380D01*
X141968095Y-107190000D01*
X141920476Y-107237619D01*
X141872857Y-107332857D01*
X141872857Y-107475714D01*
X141920476Y-107570952D01*
X141968095Y-107618571D01*
X142063333Y-107666190D01*
X142444285Y-107666190D01*
X141539523Y-107142380D02*
X140872857Y-107142380D01*
X141301428Y-108142380D01*
X140063333Y-107475714D02*
X140063333Y-108142380D01*
X140301428Y-107094761D02*
X140539523Y-107809047D01*
X139920476Y-107809047D01*
X119542857Y-78052380D02*
X119876190Y-77576190D01*
X120114285Y-78052380D02*
X120114285Y-77052380D01*
X119733333Y-77052380D01*
X119638095Y-77100000D01*
X119590476Y-77147619D01*
X119542857Y-77242857D01*
X119542857Y-77385714D01*
X119590476Y-77480952D01*
X119638095Y-77528571D01*
X119733333Y-77576190D01*
X120114285Y-77576190D01*
X119209523Y-77052380D02*
X118542857Y-77052380D01*
X118971428Y-78052380D01*
X118257142Y-77052380D02*
X117638095Y-77052380D01*
X117971428Y-77433333D01*
X117828571Y-77433333D01*
X117733333Y-77480952D01*
X117685714Y-77528571D01*
X117638095Y-77623809D01*
X117638095Y-77861904D01*
X117685714Y-77957142D01*
X117733333Y-78004761D01*
X117828571Y-78052380D01*
X118114285Y-78052380D01*
X118209523Y-78004761D01*
X118257142Y-77957142D01*
X146942857Y-108142380D02*
X147276190Y-107666190D01*
X147514285Y-108142380D02*
X147514285Y-107142380D01*
X147133333Y-107142380D01*
X147038095Y-107190000D01*
X146990476Y-107237619D01*
X146942857Y-107332857D01*
X146942857Y-107475714D01*
X146990476Y-107570952D01*
X147038095Y-107618571D01*
X147133333Y-107666190D01*
X147514285Y-107666190D01*
X146609523Y-107142380D02*
X145942857Y-107142380D01*
X146371428Y-108142380D01*
X145609523Y-107237619D02*
X145561904Y-107190000D01*
X145466666Y-107142380D01*
X145228571Y-107142380D01*
X145133333Y-107190000D01*
X145085714Y-107237619D01*
X145038095Y-107332857D01*
X145038095Y-107428095D01*
X145085714Y-107570952D01*
X145657142Y-108142380D01*
X145038095Y-108142380D01*
X114542857Y-78052380D02*
X114876190Y-77576190D01*
X115114285Y-78052380D02*
X115114285Y-77052380D01*
X114733333Y-77052380D01*
X114638095Y-77100000D01*
X114590476Y-77147619D01*
X114542857Y-77242857D01*
X114542857Y-77385714D01*
X114590476Y-77480952D01*
X114638095Y-77528571D01*
X114733333Y-77576190D01*
X115114285Y-77576190D01*
X114209523Y-77052380D02*
X113542857Y-77052380D01*
X113971428Y-78052380D01*
X112638095Y-78052380D02*
X113209523Y-78052380D01*
X112923809Y-78052380D02*
X112923809Y-77052380D01*
X113019047Y-77195238D01*
X113114285Y-77290476D01*
X113209523Y-77338095D01*
X151830357Y-108142380D02*
X152163690Y-107666190D01*
X152401785Y-108142380D02*
X152401785Y-107142380D01*
X152020833Y-107142380D01*
X151925595Y-107190000D01*
X151877976Y-107237619D01*
X151830357Y-107332857D01*
X151830357Y-107475714D01*
X151877976Y-107570952D01*
X151925595Y-107618571D01*
X152020833Y-107666190D01*
X152401785Y-107666190D01*
X151497023Y-107142380D02*
X150830357Y-107142380D01*
X151258928Y-108142380D01*
X150258928Y-107142380D02*
X150163690Y-107142380D01*
X150068452Y-107190000D01*
X150020833Y-107237619D01*
X149973214Y-107332857D01*
X149925595Y-107523333D01*
X149925595Y-107761428D01*
X149973214Y-107951904D01*
X150020833Y-108047142D01*
X150068452Y-108094761D01*
X150163690Y-108142380D01*
X150258928Y-108142380D01*
X150354166Y-108094761D01*
X150401785Y-108047142D01*
X150449404Y-107951904D01*
X150497023Y-107761428D01*
X150497023Y-107523333D01*
X150449404Y-107332857D01*
X150401785Y-107237619D01*
X150354166Y-107190000D01*
X150258928Y-107142380D01*
X156942857Y-108142380D02*
X157276190Y-107666190D01*
X157514285Y-108142380D02*
X157514285Y-107142380D01*
X157133333Y-107142380D01*
X157038095Y-107190000D01*
X156990476Y-107237619D01*
X156942857Y-107332857D01*
X156942857Y-107475714D01*
X156990476Y-107570952D01*
X157038095Y-107618571D01*
X157133333Y-107666190D01*
X157514285Y-107666190D01*
X156085714Y-107142380D02*
X156276190Y-107142380D01*
X156371428Y-107190000D01*
X156419047Y-107237619D01*
X156514285Y-107380476D01*
X156561904Y-107570952D01*
X156561904Y-107951904D01*
X156514285Y-108047142D01*
X156466666Y-108094761D01*
X156371428Y-108142380D01*
X156180952Y-108142380D01*
X156085714Y-108094761D01*
X156038095Y-108047142D01*
X155990476Y-107951904D01*
X155990476Y-107713809D01*
X156038095Y-107618571D01*
X156085714Y-107570952D01*
X156180952Y-107523333D01*
X156371428Y-107523333D01*
X156466666Y-107570952D01*
X156514285Y-107618571D01*
X156561904Y-107713809D01*
X155514285Y-108142380D02*
X155323809Y-108142380D01*
X155228571Y-108094761D01*
X155180952Y-108047142D01*
X155085714Y-107904285D01*
X155038095Y-107713809D01*
X155038095Y-107332857D01*
X155085714Y-107237619D01*
X155133333Y-107190000D01*
X155228571Y-107142380D01*
X155419047Y-107142380D01*
X155514285Y-107190000D01*
X155561904Y-107237619D01*
X155609523Y-107332857D01*
X155609523Y-107570952D01*
X155561904Y-107666190D01*
X155514285Y-107713809D01*
X155419047Y-107761428D01*
X155228571Y-107761428D01*
X155133333Y-107713809D01*
X155085714Y-107666190D01*
X155038095Y-107570952D01*
X144442857Y-77972380D02*
X144776190Y-77496190D01*
X145014285Y-77972380D02*
X145014285Y-76972380D01*
X144633333Y-76972380D01*
X144538095Y-77020000D01*
X144490476Y-77067619D01*
X144442857Y-77162857D01*
X144442857Y-77305714D01*
X144490476Y-77400952D01*
X144538095Y-77448571D01*
X144633333Y-77496190D01*
X145014285Y-77496190D01*
X143585714Y-76972380D02*
X143776190Y-76972380D01*
X143871428Y-77020000D01*
X143919047Y-77067619D01*
X144014285Y-77210476D01*
X144061904Y-77400952D01*
X144061904Y-77781904D01*
X144014285Y-77877142D01*
X143966666Y-77924761D01*
X143871428Y-77972380D01*
X143680952Y-77972380D01*
X143585714Y-77924761D01*
X143538095Y-77877142D01*
X143490476Y-77781904D01*
X143490476Y-77543809D01*
X143538095Y-77448571D01*
X143585714Y-77400952D01*
X143680952Y-77353333D01*
X143871428Y-77353333D01*
X143966666Y-77400952D01*
X144014285Y-77448571D01*
X144061904Y-77543809D01*
X142919047Y-77400952D02*
X143014285Y-77353333D01*
X143061904Y-77305714D01*
X143109523Y-77210476D01*
X143109523Y-77162857D01*
X143061904Y-77067619D01*
X143014285Y-77020000D01*
X142919047Y-76972380D01*
X142728571Y-76972380D01*
X142633333Y-77020000D01*
X142585714Y-77067619D01*
X142538095Y-77162857D01*
X142538095Y-77210476D01*
X142585714Y-77305714D01*
X142633333Y-77353333D01*
X142728571Y-77400952D01*
X142919047Y-77400952D01*
X143014285Y-77448571D01*
X143061904Y-77496190D01*
X143109523Y-77591428D01*
X143109523Y-77781904D01*
X143061904Y-77877142D01*
X143014285Y-77924761D01*
X142919047Y-77972380D01*
X142728571Y-77972380D01*
X142633333Y-77924761D01*
X142585714Y-77877142D01*
X142538095Y-77781904D01*
X142538095Y-77591428D01*
X142585714Y-77496190D01*
X142633333Y-77448571D01*
X142728571Y-77400952D01*
X171852857Y-108142380D02*
X172186190Y-107666190D01*
X172424285Y-108142380D02*
X172424285Y-107142380D01*
X172043333Y-107142380D01*
X171948095Y-107190000D01*
X171900476Y-107237619D01*
X171852857Y-107332857D01*
X171852857Y-107475714D01*
X171900476Y-107570952D01*
X171948095Y-107618571D01*
X172043333Y-107666190D01*
X172424285Y-107666190D01*
X170995714Y-107142380D02*
X171186190Y-107142380D01*
X171281428Y-107190000D01*
X171329047Y-107237619D01*
X171424285Y-107380476D01*
X171471904Y-107570952D01*
X171471904Y-107951904D01*
X171424285Y-108047142D01*
X171376666Y-108094761D01*
X171281428Y-108142380D01*
X171090952Y-108142380D01*
X170995714Y-108094761D01*
X170948095Y-108047142D01*
X170900476Y-107951904D01*
X170900476Y-107713809D01*
X170948095Y-107618571D01*
X170995714Y-107570952D01*
X171090952Y-107523333D01*
X171281428Y-107523333D01*
X171376666Y-107570952D01*
X171424285Y-107618571D01*
X171471904Y-107713809D01*
X170567142Y-107142380D02*
X169900476Y-107142380D01*
X170329047Y-108142380D01*
X139442857Y-78052380D02*
X139776190Y-77576190D01*
X140014285Y-78052380D02*
X140014285Y-77052380D01*
X139633333Y-77052380D01*
X139538095Y-77100000D01*
X139490476Y-77147619D01*
X139442857Y-77242857D01*
X139442857Y-77385714D01*
X139490476Y-77480952D01*
X139538095Y-77528571D01*
X139633333Y-77576190D01*
X140014285Y-77576190D01*
X138585714Y-77052380D02*
X138776190Y-77052380D01*
X138871428Y-77100000D01*
X138919047Y-77147619D01*
X139014285Y-77290476D01*
X139061904Y-77480952D01*
X139061904Y-77861904D01*
X139014285Y-77957142D01*
X138966666Y-78004761D01*
X138871428Y-78052380D01*
X138680952Y-78052380D01*
X138585714Y-78004761D01*
X138538095Y-77957142D01*
X138490476Y-77861904D01*
X138490476Y-77623809D01*
X138538095Y-77528571D01*
X138585714Y-77480952D01*
X138680952Y-77433333D01*
X138871428Y-77433333D01*
X138966666Y-77480952D01*
X139014285Y-77528571D01*
X139061904Y-77623809D01*
X137633333Y-77052380D02*
X137823809Y-77052380D01*
X137919047Y-77100000D01*
X137966666Y-77147619D01*
X138061904Y-77290476D01*
X138109523Y-77480952D01*
X138109523Y-77861904D01*
X138061904Y-77957142D01*
X138014285Y-78004761D01*
X137919047Y-78052380D01*
X137728571Y-78052380D01*
X137633333Y-78004761D01*
X137585714Y-77957142D01*
X137538095Y-77861904D01*
X137538095Y-77623809D01*
X137585714Y-77528571D01*
X137633333Y-77480952D01*
X137728571Y-77433333D01*
X137919047Y-77433333D01*
X138014285Y-77480952D01*
X138061904Y-77528571D01*
X138109523Y-77623809D01*
X161930357Y-108142380D02*
X162263690Y-107666190D01*
X162501785Y-108142380D02*
X162501785Y-107142380D01*
X162120833Y-107142380D01*
X162025595Y-107190000D01*
X161977976Y-107237619D01*
X161930357Y-107332857D01*
X161930357Y-107475714D01*
X161977976Y-107570952D01*
X162025595Y-107618571D01*
X162120833Y-107666190D01*
X162501785Y-107666190D01*
X161073214Y-107142380D02*
X161263690Y-107142380D01*
X161358928Y-107190000D01*
X161406547Y-107237619D01*
X161501785Y-107380476D01*
X161549404Y-107570952D01*
X161549404Y-107951904D01*
X161501785Y-108047142D01*
X161454166Y-108094761D01*
X161358928Y-108142380D01*
X161168452Y-108142380D01*
X161073214Y-108094761D01*
X161025595Y-108047142D01*
X160977976Y-107951904D01*
X160977976Y-107713809D01*
X161025595Y-107618571D01*
X161073214Y-107570952D01*
X161168452Y-107523333D01*
X161358928Y-107523333D01*
X161454166Y-107570952D01*
X161501785Y-107618571D01*
X161549404Y-107713809D01*
X160073214Y-107142380D02*
X160549404Y-107142380D01*
X160597023Y-107618571D01*
X160549404Y-107570952D01*
X160454166Y-107523333D01*
X160216071Y-107523333D01*
X160120833Y-107570952D01*
X160073214Y-107618571D01*
X160025595Y-107713809D01*
X160025595Y-107951904D01*
X160073214Y-108047142D01*
X160120833Y-108094761D01*
X160216071Y-108142380D01*
X160454166Y-108142380D01*
X160549404Y-108094761D01*
X160597023Y-108047142D01*
X134442857Y-78052380D02*
X134776190Y-77576190D01*
X135014285Y-78052380D02*
X135014285Y-77052380D01*
X134633333Y-77052380D01*
X134538095Y-77100000D01*
X134490476Y-77147619D01*
X134442857Y-77242857D01*
X134442857Y-77385714D01*
X134490476Y-77480952D01*
X134538095Y-77528571D01*
X134633333Y-77576190D01*
X135014285Y-77576190D01*
X133585714Y-77052380D02*
X133776190Y-77052380D01*
X133871428Y-77100000D01*
X133919047Y-77147619D01*
X134014285Y-77290476D01*
X134061904Y-77480952D01*
X134061904Y-77861904D01*
X134014285Y-77957142D01*
X133966666Y-78004761D01*
X133871428Y-78052380D01*
X133680952Y-78052380D01*
X133585714Y-78004761D01*
X133538095Y-77957142D01*
X133490476Y-77861904D01*
X133490476Y-77623809D01*
X133538095Y-77528571D01*
X133585714Y-77480952D01*
X133680952Y-77433333D01*
X133871428Y-77433333D01*
X133966666Y-77480952D01*
X134014285Y-77528571D01*
X134061904Y-77623809D01*
X132633333Y-77385714D02*
X132633333Y-78052380D01*
X132871428Y-77004761D02*
X133109523Y-77719047D01*
X132490476Y-77719047D01*
X181842857Y-108282380D02*
X182176190Y-107806190D01*
X182414285Y-108282380D02*
X182414285Y-107282380D01*
X182033333Y-107282380D01*
X181938095Y-107330000D01*
X181890476Y-107377619D01*
X181842857Y-107472857D01*
X181842857Y-107615714D01*
X181890476Y-107710952D01*
X181938095Y-107758571D01*
X182033333Y-107806190D01*
X182414285Y-107806190D01*
X180985714Y-107282380D02*
X181176190Y-107282380D01*
X181271428Y-107330000D01*
X181319047Y-107377619D01*
X181414285Y-107520476D01*
X181461904Y-107710952D01*
X181461904Y-108091904D01*
X181414285Y-108187142D01*
X181366666Y-108234761D01*
X181271428Y-108282380D01*
X181080952Y-108282380D01*
X180985714Y-108234761D01*
X180938095Y-108187142D01*
X180890476Y-108091904D01*
X180890476Y-107853809D01*
X180938095Y-107758571D01*
X180985714Y-107710952D01*
X181080952Y-107663333D01*
X181271428Y-107663333D01*
X181366666Y-107710952D01*
X181414285Y-107758571D01*
X181461904Y-107853809D01*
X180557142Y-107282380D02*
X179938095Y-107282380D01*
X180271428Y-107663333D01*
X180128571Y-107663333D01*
X180033333Y-107710952D01*
X179985714Y-107758571D01*
X179938095Y-107853809D01*
X179938095Y-108091904D01*
X179985714Y-108187142D01*
X180033333Y-108234761D01*
X180128571Y-108282380D01*
X180414285Y-108282380D01*
X180509523Y-108234761D01*
X180557142Y-108187142D01*
X129542857Y-78052380D02*
X129876190Y-77576190D01*
X130114285Y-78052380D02*
X130114285Y-77052380D01*
X129733333Y-77052380D01*
X129638095Y-77100000D01*
X129590476Y-77147619D01*
X129542857Y-77242857D01*
X129542857Y-77385714D01*
X129590476Y-77480952D01*
X129638095Y-77528571D01*
X129733333Y-77576190D01*
X130114285Y-77576190D01*
X128685714Y-77052380D02*
X128876190Y-77052380D01*
X128971428Y-77100000D01*
X129019047Y-77147619D01*
X129114285Y-77290476D01*
X129161904Y-77480952D01*
X129161904Y-77861904D01*
X129114285Y-77957142D01*
X129066666Y-78004761D01*
X128971428Y-78052380D01*
X128780952Y-78052380D01*
X128685714Y-78004761D01*
X128638095Y-77957142D01*
X128590476Y-77861904D01*
X128590476Y-77623809D01*
X128638095Y-77528571D01*
X128685714Y-77480952D01*
X128780952Y-77433333D01*
X128971428Y-77433333D01*
X129066666Y-77480952D01*
X129114285Y-77528571D01*
X129161904Y-77623809D01*
X128209523Y-77147619D02*
X128161904Y-77100000D01*
X128066666Y-77052380D01*
X127828571Y-77052380D01*
X127733333Y-77100000D01*
X127685714Y-77147619D01*
X127638095Y-77242857D01*
X127638095Y-77338095D01*
X127685714Y-77480952D01*
X128257142Y-78052380D01*
X127638095Y-78052380D01*
X184405357Y-78122380D02*
X184738690Y-77646190D01*
X184976785Y-78122380D02*
X184976785Y-77122380D01*
X184595833Y-77122380D01*
X184500595Y-77170000D01*
X184452976Y-77217619D01*
X184405357Y-77312857D01*
X184405357Y-77455714D01*
X184452976Y-77550952D01*
X184500595Y-77598571D01*
X184595833Y-77646190D01*
X184976785Y-77646190D01*
X183548214Y-77122380D02*
X183738690Y-77122380D01*
X183833928Y-77170000D01*
X183881547Y-77217619D01*
X183976785Y-77360476D01*
X184024404Y-77550952D01*
X184024404Y-77931904D01*
X183976785Y-78027142D01*
X183929166Y-78074761D01*
X183833928Y-78122380D01*
X183643452Y-78122380D01*
X183548214Y-78074761D01*
X183500595Y-78027142D01*
X183452976Y-77931904D01*
X183452976Y-77693809D01*
X183500595Y-77598571D01*
X183548214Y-77550952D01*
X183643452Y-77503333D01*
X183833928Y-77503333D01*
X183929166Y-77550952D01*
X183976785Y-77598571D01*
X184024404Y-77693809D01*
X182500595Y-78122380D02*
X183072023Y-78122380D01*
X182786309Y-78122380D02*
X182786309Y-77122380D01*
X182881547Y-77265238D01*
X182976785Y-77360476D01*
X183072023Y-77408095D01*
X124462857Y-78102380D02*
X124796190Y-77626190D01*
X125034285Y-78102380D02*
X125034285Y-77102380D01*
X124653333Y-77102380D01*
X124558095Y-77150000D01*
X124510476Y-77197619D01*
X124462857Y-77292857D01*
X124462857Y-77435714D01*
X124510476Y-77530952D01*
X124558095Y-77578571D01*
X124653333Y-77626190D01*
X125034285Y-77626190D01*
X123605714Y-77102380D02*
X123796190Y-77102380D01*
X123891428Y-77150000D01*
X123939047Y-77197619D01*
X124034285Y-77340476D01*
X124081904Y-77530952D01*
X124081904Y-77911904D01*
X124034285Y-78007142D01*
X123986666Y-78054761D01*
X123891428Y-78102380D01*
X123700952Y-78102380D01*
X123605714Y-78054761D01*
X123558095Y-78007142D01*
X123510476Y-77911904D01*
X123510476Y-77673809D01*
X123558095Y-77578571D01*
X123605714Y-77530952D01*
X123700952Y-77483333D01*
X123891428Y-77483333D01*
X123986666Y-77530952D01*
X124034285Y-77578571D01*
X124081904Y-77673809D01*
X122891428Y-77102380D02*
X122796190Y-77102380D01*
X122700952Y-77150000D01*
X122653333Y-77197619D01*
X122605714Y-77292857D01*
X122558095Y-77483333D01*
X122558095Y-77721428D01*
X122605714Y-77911904D01*
X122653333Y-78007142D01*
X122700952Y-78054761D01*
X122796190Y-78102380D01*
X122891428Y-78102380D01*
X122986666Y-78054761D01*
X123034285Y-78007142D01*
X123081904Y-77911904D01*
X123129523Y-77721428D01*
X123129523Y-77483333D01*
X123081904Y-77292857D01*
X123034285Y-77197619D01*
X122986666Y-77150000D01*
X122891428Y-77102380D01*
X189322857Y-78182380D02*
X189656190Y-77706190D01*
X189894285Y-78182380D02*
X189894285Y-77182380D01*
X189513333Y-77182380D01*
X189418095Y-77230000D01*
X189370476Y-77277619D01*
X189322857Y-77372857D01*
X189322857Y-77515714D01*
X189370476Y-77610952D01*
X189418095Y-77658571D01*
X189513333Y-77706190D01*
X189894285Y-77706190D01*
X188418095Y-77182380D02*
X188894285Y-77182380D01*
X188941904Y-77658571D01*
X188894285Y-77610952D01*
X188799047Y-77563333D01*
X188560952Y-77563333D01*
X188465714Y-77610952D01*
X188418095Y-77658571D01*
X188370476Y-77753809D01*
X188370476Y-77991904D01*
X188418095Y-78087142D01*
X188465714Y-78134761D01*
X188560952Y-78182380D01*
X188799047Y-78182380D01*
X188894285Y-78134761D01*
X188941904Y-78087142D01*
X187894285Y-78182380D02*
X187703809Y-78182380D01*
X187608571Y-78134761D01*
X187560952Y-78087142D01*
X187465714Y-77944285D01*
X187418095Y-77753809D01*
X187418095Y-77372857D01*
X187465714Y-77277619D01*
X187513333Y-77230000D01*
X187608571Y-77182380D01*
X187799047Y-77182380D01*
X187894285Y-77230000D01*
X187941904Y-77277619D01*
X187989523Y-77372857D01*
X187989523Y-77610952D01*
X187941904Y-77706190D01*
X187894285Y-77753809D01*
X187799047Y-77801428D01*
X187608571Y-77801428D01*
X187513333Y-77753809D01*
X187465714Y-77706190D01*
X187418095Y-77610952D01*
X164442857Y-78072380D02*
X164776190Y-77596190D01*
X165014285Y-78072380D02*
X165014285Y-77072380D01*
X164633333Y-77072380D01*
X164538095Y-77120000D01*
X164490476Y-77167619D01*
X164442857Y-77262857D01*
X164442857Y-77405714D01*
X164490476Y-77500952D01*
X164538095Y-77548571D01*
X164633333Y-77596190D01*
X165014285Y-77596190D01*
X163538095Y-77072380D02*
X164014285Y-77072380D01*
X164061904Y-77548571D01*
X164014285Y-77500952D01*
X163919047Y-77453333D01*
X163680952Y-77453333D01*
X163585714Y-77500952D01*
X163538095Y-77548571D01*
X163490476Y-77643809D01*
X163490476Y-77881904D01*
X163538095Y-77977142D01*
X163585714Y-78024761D01*
X163680952Y-78072380D01*
X163919047Y-78072380D01*
X164014285Y-78024761D01*
X164061904Y-77977142D01*
X162919047Y-77500952D02*
X163014285Y-77453333D01*
X163061904Y-77405714D01*
X163109523Y-77310476D01*
X163109523Y-77262857D01*
X163061904Y-77167619D01*
X163014285Y-77120000D01*
X162919047Y-77072380D01*
X162728571Y-77072380D01*
X162633333Y-77120000D01*
X162585714Y-77167619D01*
X162538095Y-77262857D01*
X162538095Y-77310476D01*
X162585714Y-77405714D01*
X162633333Y-77453333D01*
X162728571Y-77500952D01*
X162919047Y-77500952D01*
X163014285Y-77548571D01*
X163061904Y-77596190D01*
X163109523Y-77691428D01*
X163109523Y-77881904D01*
X163061904Y-77977142D01*
X163014285Y-78024761D01*
X162919047Y-78072380D01*
X162728571Y-78072380D01*
X162633333Y-78024761D01*
X162585714Y-77977142D01*
X162538095Y-77881904D01*
X162538095Y-77691428D01*
X162585714Y-77596190D01*
X162633333Y-77548571D01*
X162728571Y-77500952D01*
X169342857Y-78052380D02*
X169676190Y-77576190D01*
X169914285Y-78052380D02*
X169914285Y-77052380D01*
X169533333Y-77052380D01*
X169438095Y-77100000D01*
X169390476Y-77147619D01*
X169342857Y-77242857D01*
X169342857Y-77385714D01*
X169390476Y-77480952D01*
X169438095Y-77528571D01*
X169533333Y-77576190D01*
X169914285Y-77576190D01*
X168438095Y-77052380D02*
X168914285Y-77052380D01*
X168961904Y-77528571D01*
X168914285Y-77480952D01*
X168819047Y-77433333D01*
X168580952Y-77433333D01*
X168485714Y-77480952D01*
X168438095Y-77528571D01*
X168390476Y-77623809D01*
X168390476Y-77861904D01*
X168438095Y-77957142D01*
X168485714Y-78004761D01*
X168580952Y-78052380D01*
X168819047Y-78052380D01*
X168914285Y-78004761D01*
X168961904Y-77957142D01*
X168057142Y-77052380D02*
X167390476Y-77052380D01*
X167819047Y-78052380D01*
X174342857Y-78052380D02*
X174676190Y-77576190D01*
X174914285Y-78052380D02*
X174914285Y-77052380D01*
X174533333Y-77052380D01*
X174438095Y-77100000D01*
X174390476Y-77147619D01*
X174342857Y-77242857D01*
X174342857Y-77385714D01*
X174390476Y-77480952D01*
X174438095Y-77528571D01*
X174533333Y-77576190D01*
X174914285Y-77576190D01*
X173438095Y-77052380D02*
X173914285Y-77052380D01*
X173961904Y-77528571D01*
X173914285Y-77480952D01*
X173819047Y-77433333D01*
X173580952Y-77433333D01*
X173485714Y-77480952D01*
X173438095Y-77528571D01*
X173390476Y-77623809D01*
X173390476Y-77861904D01*
X173438095Y-77957142D01*
X173485714Y-78004761D01*
X173580952Y-78052380D01*
X173819047Y-78052380D01*
X173914285Y-78004761D01*
X173961904Y-77957142D01*
X172533333Y-77052380D02*
X172723809Y-77052380D01*
X172819047Y-77100000D01*
X172866666Y-77147619D01*
X172961904Y-77290476D01*
X173009523Y-77480952D01*
X173009523Y-77861904D01*
X172961904Y-77957142D01*
X172914285Y-78004761D01*
X172819047Y-78052380D01*
X172628571Y-78052380D01*
X172533333Y-78004761D01*
X172485714Y-77957142D01*
X172438095Y-77861904D01*
X172438095Y-77623809D01*
X172485714Y-77528571D01*
X172533333Y-77480952D01*
X172628571Y-77433333D01*
X172819047Y-77433333D01*
X172914285Y-77480952D01*
X172961904Y-77528571D01*
X173009523Y-77623809D01*
X179442857Y-78052380D02*
X179776190Y-77576190D01*
X180014285Y-78052380D02*
X180014285Y-77052380D01*
X179633333Y-77052380D01*
X179538095Y-77100000D01*
X179490476Y-77147619D01*
X179442857Y-77242857D01*
X179442857Y-77385714D01*
X179490476Y-77480952D01*
X179538095Y-77528571D01*
X179633333Y-77576190D01*
X180014285Y-77576190D01*
X178538095Y-77052380D02*
X179014285Y-77052380D01*
X179061904Y-77528571D01*
X179014285Y-77480952D01*
X178919047Y-77433333D01*
X178680952Y-77433333D01*
X178585714Y-77480952D01*
X178538095Y-77528571D01*
X178490476Y-77623809D01*
X178490476Y-77861904D01*
X178538095Y-77957142D01*
X178585714Y-78004761D01*
X178680952Y-78052380D01*
X178919047Y-78052380D01*
X179014285Y-78004761D01*
X179061904Y-77957142D01*
X177585714Y-77052380D02*
X178061904Y-77052380D01*
X178109523Y-77528571D01*
X178061904Y-77480952D01*
X177966666Y-77433333D01*
X177728571Y-77433333D01*
X177633333Y-77480952D01*
X177585714Y-77528571D01*
X177538095Y-77623809D01*
X177538095Y-77861904D01*
X177585714Y-77957142D01*
X177633333Y-78004761D01*
X177728571Y-78052380D01*
X177966666Y-78052380D01*
X178061904Y-78004761D01*
X178109523Y-77957142D01*
X176842857Y-108212380D02*
X177176190Y-107736190D01*
X177414285Y-108212380D02*
X177414285Y-107212380D01*
X177033333Y-107212380D01*
X176938095Y-107260000D01*
X176890476Y-107307619D01*
X176842857Y-107402857D01*
X176842857Y-107545714D01*
X176890476Y-107640952D01*
X176938095Y-107688571D01*
X177033333Y-107736190D01*
X177414285Y-107736190D01*
X175938095Y-107212380D02*
X176414285Y-107212380D01*
X176461904Y-107688571D01*
X176414285Y-107640952D01*
X176319047Y-107593333D01*
X176080952Y-107593333D01*
X175985714Y-107640952D01*
X175938095Y-107688571D01*
X175890476Y-107783809D01*
X175890476Y-108021904D01*
X175938095Y-108117142D01*
X175985714Y-108164761D01*
X176080952Y-108212380D01*
X176319047Y-108212380D01*
X176414285Y-108164761D01*
X176461904Y-108117142D01*
X175033333Y-107545714D02*
X175033333Y-108212380D01*
X175271428Y-107164761D02*
X175509523Y-107879047D01*
X174890476Y-107879047D01*
X166842857Y-108142380D02*
X167176190Y-107666190D01*
X167414285Y-108142380D02*
X167414285Y-107142380D01*
X167033333Y-107142380D01*
X166938095Y-107190000D01*
X166890476Y-107237619D01*
X166842857Y-107332857D01*
X166842857Y-107475714D01*
X166890476Y-107570952D01*
X166938095Y-107618571D01*
X167033333Y-107666190D01*
X167414285Y-107666190D01*
X165938095Y-107142380D02*
X166414285Y-107142380D01*
X166461904Y-107618571D01*
X166414285Y-107570952D01*
X166319047Y-107523333D01*
X166080952Y-107523333D01*
X165985714Y-107570952D01*
X165938095Y-107618571D01*
X165890476Y-107713809D01*
X165890476Y-107951904D01*
X165938095Y-108047142D01*
X165985714Y-108094761D01*
X166080952Y-108142380D01*
X166319047Y-108142380D01*
X166414285Y-108094761D01*
X166461904Y-108047142D01*
X165557142Y-107142380D02*
X164938095Y-107142380D01*
X165271428Y-107523333D01*
X165128571Y-107523333D01*
X165033333Y-107570952D01*
X164985714Y-107618571D01*
X164938095Y-107713809D01*
X164938095Y-107951904D01*
X164985714Y-108047142D01*
X165033333Y-108094761D01*
X165128571Y-108142380D01*
X165414285Y-108142380D01*
X165509523Y-108094761D01*
X165557142Y-108047142D01*
X121882857Y-108142380D02*
X122216190Y-107666190D01*
X122454285Y-108142380D02*
X122454285Y-107142380D01*
X122073333Y-107142380D01*
X121978095Y-107190000D01*
X121930476Y-107237619D01*
X121882857Y-107332857D01*
X121882857Y-107475714D01*
X121930476Y-107570952D01*
X121978095Y-107618571D01*
X122073333Y-107666190D01*
X122454285Y-107666190D01*
X120978095Y-107142380D02*
X121454285Y-107142380D01*
X121501904Y-107618571D01*
X121454285Y-107570952D01*
X121359047Y-107523333D01*
X121120952Y-107523333D01*
X121025714Y-107570952D01*
X120978095Y-107618571D01*
X120930476Y-107713809D01*
X120930476Y-107951904D01*
X120978095Y-108047142D01*
X121025714Y-108094761D01*
X121120952Y-108142380D01*
X121359047Y-108142380D01*
X121454285Y-108094761D01*
X121501904Y-108047142D01*
X120549523Y-107237619D02*
X120501904Y-107190000D01*
X120406666Y-107142380D01*
X120168571Y-107142380D01*
X120073333Y-107190000D01*
X120025714Y-107237619D01*
X119978095Y-107332857D01*
X119978095Y-107428095D01*
X120025714Y-107570952D01*
X120597142Y-108142380D01*
X119978095Y-108142380D01*
X116842857Y-108142380D02*
X117176190Y-107666190D01*
X117414285Y-108142380D02*
X117414285Y-107142380D01*
X117033333Y-107142380D01*
X116938095Y-107190000D01*
X116890476Y-107237619D01*
X116842857Y-107332857D01*
X116842857Y-107475714D01*
X116890476Y-107570952D01*
X116938095Y-107618571D01*
X117033333Y-107666190D01*
X117414285Y-107666190D01*
X115938095Y-107142380D02*
X116414285Y-107142380D01*
X116461904Y-107618571D01*
X116414285Y-107570952D01*
X116319047Y-107523333D01*
X116080952Y-107523333D01*
X115985714Y-107570952D01*
X115938095Y-107618571D01*
X115890476Y-107713809D01*
X115890476Y-107951904D01*
X115938095Y-108047142D01*
X115985714Y-108094761D01*
X116080952Y-108142380D01*
X116319047Y-108142380D01*
X116414285Y-108094761D01*
X116461904Y-108047142D01*
X114938095Y-108142380D02*
X115509523Y-108142380D01*
X115223809Y-108142380D02*
X115223809Y-107142380D01*
X115319047Y-107285238D01*
X115414285Y-107380476D01*
X115509523Y-107428095D01*
X149442857Y-78042380D02*
X149776190Y-77566190D01*
X150014285Y-78042380D02*
X150014285Y-77042380D01*
X149633333Y-77042380D01*
X149538095Y-77090000D01*
X149490476Y-77137619D01*
X149442857Y-77232857D01*
X149442857Y-77375714D01*
X149490476Y-77470952D01*
X149538095Y-77518571D01*
X149633333Y-77566190D01*
X150014285Y-77566190D01*
X148538095Y-77042380D02*
X149014285Y-77042380D01*
X149061904Y-77518571D01*
X149014285Y-77470952D01*
X148919047Y-77423333D01*
X148680952Y-77423333D01*
X148585714Y-77470952D01*
X148538095Y-77518571D01*
X148490476Y-77613809D01*
X148490476Y-77851904D01*
X148538095Y-77947142D01*
X148585714Y-77994761D01*
X148680952Y-78042380D01*
X148919047Y-78042380D01*
X149014285Y-77994761D01*
X149061904Y-77947142D01*
X147871428Y-77042380D02*
X147776190Y-77042380D01*
X147680952Y-77090000D01*
X147633333Y-77137619D01*
X147585714Y-77232857D01*
X147538095Y-77423333D01*
X147538095Y-77661428D01*
X147585714Y-77851904D01*
X147633333Y-77947142D01*
X147680952Y-77994761D01*
X147776190Y-78042380D01*
X147871428Y-78042380D01*
X147966666Y-77994761D01*
X148014285Y-77947142D01*
X148061904Y-77851904D01*
X148109523Y-77661428D01*
X148109523Y-77423333D01*
X148061904Y-77232857D01*
X148014285Y-77137619D01*
X147966666Y-77090000D01*
X147871428Y-77042380D01*
X154542857Y-78062380D02*
X154876190Y-77586190D01*
X155114285Y-78062380D02*
X155114285Y-77062380D01*
X154733333Y-77062380D01*
X154638095Y-77110000D01*
X154590476Y-77157619D01*
X154542857Y-77252857D01*
X154542857Y-77395714D01*
X154590476Y-77490952D01*
X154638095Y-77538571D01*
X154733333Y-77586190D01*
X155114285Y-77586190D01*
X153685714Y-77395714D02*
X153685714Y-78062380D01*
X153923809Y-77014761D02*
X154161904Y-77729047D01*
X153542857Y-77729047D01*
X153114285Y-78062380D02*
X152923809Y-78062380D01*
X152828571Y-78014761D01*
X152780952Y-77967142D01*
X152685714Y-77824285D01*
X152638095Y-77633809D01*
X152638095Y-77252857D01*
X152685714Y-77157619D01*
X152733333Y-77110000D01*
X152828571Y-77062380D01*
X153019047Y-77062380D01*
X153114285Y-77110000D01*
X153161904Y-77157619D01*
X153209523Y-77252857D01*
X153209523Y-77490952D01*
X153161904Y-77586190D01*
X153114285Y-77633809D01*
X153019047Y-77681428D01*
X152828571Y-77681428D01*
X152733333Y-77633809D01*
X152685714Y-77586190D01*
X152638095Y-77490952D01*
X111742857Y-108142380D02*
X112076190Y-107666190D01*
X112314285Y-108142380D02*
X112314285Y-107142380D01*
X111933333Y-107142380D01*
X111838095Y-107190000D01*
X111790476Y-107237619D01*
X111742857Y-107332857D01*
X111742857Y-107475714D01*
X111790476Y-107570952D01*
X111838095Y-107618571D01*
X111933333Y-107666190D01*
X112314285Y-107666190D01*
X110885714Y-107475714D02*
X110885714Y-108142380D01*
X111123809Y-107094761D02*
X111361904Y-107809047D01*
X110742857Y-107809047D01*
X110219047Y-107570952D02*
X110314285Y-107523333D01*
X110361904Y-107475714D01*
X110409523Y-107380476D01*
X110409523Y-107332857D01*
X110361904Y-107237619D01*
X110314285Y-107190000D01*
X110219047Y-107142380D01*
X110028571Y-107142380D01*
X109933333Y-107190000D01*
X109885714Y-107237619D01*
X109838095Y-107332857D01*
X109838095Y-107380476D01*
X109885714Y-107475714D01*
X109933333Y-107523333D01*
X110028571Y-107570952D01*
X110219047Y-107570952D01*
X110314285Y-107618571D01*
X110361904Y-107666190D01*
X110409523Y-107761428D01*
X110409523Y-107951904D01*
X110361904Y-108047142D01*
X110314285Y-108094761D01*
X110219047Y-108142380D01*
X110028571Y-108142380D01*
X109933333Y-108094761D01*
X109885714Y-108047142D01*
X109838095Y-107951904D01*
X109838095Y-107761428D01*
X109885714Y-107666190D01*
X109933333Y-107618571D01*
X110028571Y-107570952D01*
X106792857Y-108142380D02*
X107126190Y-107666190D01*
X107364285Y-108142380D02*
X107364285Y-107142380D01*
X106983333Y-107142380D01*
X106888095Y-107190000D01*
X106840476Y-107237619D01*
X106792857Y-107332857D01*
X106792857Y-107475714D01*
X106840476Y-107570952D01*
X106888095Y-107618571D01*
X106983333Y-107666190D01*
X107364285Y-107666190D01*
X105935714Y-107475714D02*
X105935714Y-108142380D01*
X106173809Y-107094761D02*
X106411904Y-107809047D01*
X105792857Y-107809047D01*
X105507142Y-107142380D02*
X104840476Y-107142380D01*
X105269047Y-108142380D01*
X159412857Y-78122380D02*
X159746190Y-77646190D01*
X159984285Y-78122380D02*
X159984285Y-77122380D01*
X159603333Y-77122380D01*
X159508095Y-77170000D01*
X159460476Y-77217619D01*
X159412857Y-77312857D01*
X159412857Y-77455714D01*
X159460476Y-77550952D01*
X159508095Y-77598571D01*
X159603333Y-77646190D01*
X159984285Y-77646190D01*
X158555714Y-77455714D02*
X158555714Y-78122380D01*
X158793809Y-77074761D02*
X159031904Y-77789047D01*
X158412857Y-77789047D01*
X157603333Y-77122380D02*
X157793809Y-77122380D01*
X157889047Y-77170000D01*
X157936666Y-77217619D01*
X158031904Y-77360476D01*
X158079523Y-77550952D01*
X158079523Y-77931904D01*
X158031904Y-78027142D01*
X157984285Y-78074761D01*
X157889047Y-78122380D01*
X157698571Y-78122380D01*
X157603333Y-78074761D01*
X157555714Y-78027142D01*
X157508095Y-77931904D01*
X157508095Y-77693809D01*
X157555714Y-77598571D01*
X157603333Y-77550952D01*
X157698571Y-77503333D01*
X157889047Y-77503333D01*
X157984285Y-77550952D01*
X158031904Y-77598571D01*
X158079523Y-77693809D01*
X98742857Y-72052380D02*
X99076190Y-71576190D01*
X99314285Y-72052380D02*
X99314285Y-71052380D01*
X98933333Y-71052380D01*
X98838095Y-71100000D01*
X98790476Y-71147619D01*
X98742857Y-71242857D01*
X98742857Y-71385714D01*
X98790476Y-71480952D01*
X98838095Y-71528571D01*
X98933333Y-71576190D01*
X99314285Y-71576190D01*
X97885714Y-71385714D02*
X97885714Y-72052380D01*
X98123809Y-71004761D02*
X98361904Y-71719047D01*
X97742857Y-71719047D01*
X96838095Y-72052380D02*
X97409523Y-72052380D01*
X97123809Y-72052380D02*
X97123809Y-71052380D01*
X97219047Y-71195238D01*
X97314285Y-71290476D01*
X97409523Y-71338095D01*
X92742857Y-69122380D02*
X93076190Y-68646190D01*
X93314285Y-69122380D02*
X93314285Y-68122380D01*
X92933333Y-68122380D01*
X92838095Y-68170000D01*
X92790476Y-68217619D01*
X92742857Y-68312857D01*
X92742857Y-68455714D01*
X92790476Y-68550952D01*
X92838095Y-68598571D01*
X92933333Y-68646190D01*
X93314285Y-68646190D01*
X91885714Y-68455714D02*
X91885714Y-69122380D01*
X92123809Y-68074761D02*
X92361904Y-68789047D01*
X91742857Y-68789047D01*
X91171428Y-68122380D02*
X91076190Y-68122380D01*
X90980952Y-68170000D01*
X90933333Y-68217619D01*
X90885714Y-68312857D01*
X90838095Y-68503333D01*
X90838095Y-68741428D01*
X90885714Y-68931904D01*
X90933333Y-69027142D01*
X90980952Y-69074761D01*
X91076190Y-69122380D01*
X91171428Y-69122380D01*
X91266666Y-69074761D01*
X91314285Y-69027142D01*
X91361904Y-68931904D01*
X91409523Y-68741428D01*
X91409523Y-68503333D01*
X91361904Y-68312857D01*
X91314285Y-68217619D01*
X91266666Y-68170000D01*
X91171428Y-68122380D01*
X104255357Y-72052380D02*
X104588690Y-71576190D01*
X104826785Y-72052380D02*
X104826785Y-71052380D01*
X104445833Y-71052380D01*
X104350595Y-71100000D01*
X104302976Y-71147619D01*
X104255357Y-71242857D01*
X104255357Y-71385714D01*
X104302976Y-71480952D01*
X104350595Y-71528571D01*
X104445833Y-71576190D01*
X104826785Y-71576190D01*
X103922023Y-71052380D02*
X103302976Y-71052380D01*
X103636309Y-71433333D01*
X103493452Y-71433333D01*
X103398214Y-71480952D01*
X103350595Y-71528571D01*
X103302976Y-71623809D01*
X103302976Y-71861904D01*
X103350595Y-71957142D01*
X103398214Y-72004761D01*
X103493452Y-72052380D01*
X103779166Y-72052380D01*
X103874404Y-72004761D01*
X103922023Y-71957142D01*
X102826785Y-72052380D02*
X102636309Y-72052380D01*
X102541071Y-72004761D01*
X102493452Y-71957142D01*
X102398214Y-71814285D01*
X102350595Y-71623809D01*
X102350595Y-71242857D01*
X102398214Y-71147619D01*
X102445833Y-71100000D01*
X102541071Y-71052380D01*
X102731547Y-71052380D01*
X102826785Y-71100000D01*
X102874404Y-71147619D01*
X102922023Y-71242857D01*
X102922023Y-71480952D01*
X102874404Y-71576190D01*
X102826785Y-71623809D01*
X102731547Y-71671428D01*
X102541071Y-71671428D01*
X102445833Y-71623809D01*
X102398214Y-71576190D01*
X102350595Y-71480952D01*
X196530357Y-108282380D02*
X196863690Y-107806190D01*
X197101785Y-108282380D02*
X197101785Y-107282380D01*
X196720833Y-107282380D01*
X196625595Y-107330000D01*
X196577976Y-107377619D01*
X196530357Y-107472857D01*
X196530357Y-107615714D01*
X196577976Y-107710952D01*
X196625595Y-107758571D01*
X196720833Y-107806190D01*
X197101785Y-107806190D01*
X196197023Y-107282380D02*
X195577976Y-107282380D01*
X195911309Y-107663333D01*
X195768452Y-107663333D01*
X195673214Y-107710952D01*
X195625595Y-107758571D01*
X195577976Y-107853809D01*
X195577976Y-108091904D01*
X195625595Y-108187142D01*
X195673214Y-108234761D01*
X195768452Y-108282380D01*
X196054166Y-108282380D01*
X196149404Y-108234761D01*
X196197023Y-108187142D01*
X194673214Y-107282380D02*
X195149404Y-107282380D01*
X195197023Y-107758571D01*
X195149404Y-107710952D01*
X195054166Y-107663333D01*
X194816071Y-107663333D01*
X194720833Y-107710952D01*
X194673214Y-107758571D01*
X194625595Y-107853809D01*
X194625595Y-108091904D01*
X194673214Y-108187142D01*
X194720833Y-108234761D01*
X194816071Y-108282380D01*
X195054166Y-108282380D01*
X195149404Y-108234761D01*
X195197023Y-108187142D01*
X127042857Y-114252380D02*
X127376190Y-113776190D01*
X127614285Y-114252380D02*
X127614285Y-113252380D01*
X127233333Y-113252380D01*
X127138095Y-113300000D01*
X127090476Y-113347619D01*
X127042857Y-113442857D01*
X127042857Y-113585714D01*
X127090476Y-113680952D01*
X127138095Y-113728571D01*
X127233333Y-113776190D01*
X127614285Y-113776190D01*
X126709523Y-113252380D02*
X126090476Y-113252380D01*
X126423809Y-113633333D01*
X126280952Y-113633333D01*
X126185714Y-113680952D01*
X126138095Y-113728571D01*
X126090476Y-113823809D01*
X126090476Y-114061904D01*
X126138095Y-114157142D01*
X126185714Y-114204761D01*
X126280952Y-114252380D01*
X126566666Y-114252380D01*
X126661904Y-114204761D01*
X126709523Y-114157142D01*
X125757142Y-113252380D02*
X125138095Y-113252380D01*
X125471428Y-113633333D01*
X125328571Y-113633333D01*
X125233333Y-113680952D01*
X125185714Y-113728571D01*
X125138095Y-113823809D01*
X125138095Y-114061904D01*
X125185714Y-114157142D01*
X125233333Y-114204761D01*
X125328571Y-114252380D01*
X125614285Y-114252380D01*
X125709523Y-114204761D01*
X125757142Y-114157142D01*
X131992857Y-114152380D02*
X132326190Y-113676190D01*
X132564285Y-114152380D02*
X132564285Y-113152380D01*
X132183333Y-113152380D01*
X132088095Y-113200000D01*
X132040476Y-113247619D01*
X131992857Y-113342857D01*
X131992857Y-113485714D01*
X132040476Y-113580952D01*
X132088095Y-113628571D01*
X132183333Y-113676190D01*
X132564285Y-113676190D01*
X131659523Y-113152380D02*
X131040476Y-113152380D01*
X131373809Y-113533333D01*
X131230952Y-113533333D01*
X131135714Y-113580952D01*
X131088095Y-113628571D01*
X131040476Y-113723809D01*
X131040476Y-113961904D01*
X131088095Y-114057142D01*
X131135714Y-114104761D01*
X131230952Y-114152380D01*
X131516666Y-114152380D01*
X131611904Y-114104761D01*
X131659523Y-114057142D01*
X130659523Y-113247619D02*
X130611904Y-113200000D01*
X130516666Y-113152380D01*
X130278571Y-113152380D01*
X130183333Y-113200000D01*
X130135714Y-113247619D01*
X130088095Y-113342857D01*
X130088095Y-113438095D01*
X130135714Y-113580952D01*
X130707142Y-114152380D01*
X130088095Y-114152380D01*
X137042857Y-114152380D02*
X137376190Y-113676190D01*
X137614285Y-114152380D02*
X137614285Y-113152380D01*
X137233333Y-113152380D01*
X137138095Y-113200000D01*
X137090476Y-113247619D01*
X137042857Y-113342857D01*
X137042857Y-113485714D01*
X137090476Y-113580952D01*
X137138095Y-113628571D01*
X137233333Y-113676190D01*
X137614285Y-113676190D01*
X136709523Y-113152380D02*
X136090476Y-113152380D01*
X136423809Y-113533333D01*
X136280952Y-113533333D01*
X136185714Y-113580952D01*
X136138095Y-113628571D01*
X136090476Y-113723809D01*
X136090476Y-113961904D01*
X136138095Y-114057142D01*
X136185714Y-114104761D01*
X136280952Y-114152380D01*
X136566666Y-114152380D01*
X136661904Y-114104761D01*
X136709523Y-114057142D01*
X135138095Y-114152380D02*
X135709523Y-114152380D01*
X135423809Y-114152380D02*
X135423809Y-113152380D01*
X135519047Y-113295238D01*
X135614285Y-113390476D01*
X135709523Y-113438095D01*
X141982857Y-114152380D02*
X142316190Y-113676190D01*
X142554285Y-114152380D02*
X142554285Y-113152380D01*
X142173333Y-113152380D01*
X142078095Y-113200000D01*
X142030476Y-113247619D01*
X141982857Y-113342857D01*
X141982857Y-113485714D01*
X142030476Y-113580952D01*
X142078095Y-113628571D01*
X142173333Y-113676190D01*
X142554285Y-113676190D01*
X141649523Y-113152380D02*
X141030476Y-113152380D01*
X141363809Y-113533333D01*
X141220952Y-113533333D01*
X141125714Y-113580952D01*
X141078095Y-113628571D01*
X141030476Y-113723809D01*
X141030476Y-113961904D01*
X141078095Y-114057142D01*
X141125714Y-114104761D01*
X141220952Y-114152380D01*
X141506666Y-114152380D01*
X141601904Y-114104761D01*
X141649523Y-114057142D01*
X140411428Y-113152380D02*
X140316190Y-113152380D01*
X140220952Y-113200000D01*
X140173333Y-113247619D01*
X140125714Y-113342857D01*
X140078095Y-113533333D01*
X140078095Y-113771428D01*
X140125714Y-113961904D01*
X140173333Y-114057142D01*
X140220952Y-114104761D01*
X140316190Y-114152380D01*
X140411428Y-114152380D01*
X140506666Y-114104761D01*
X140554285Y-114057142D01*
X140601904Y-113961904D01*
X140649523Y-113771428D01*
X140649523Y-113533333D01*
X140601904Y-113342857D01*
X140554285Y-113247619D01*
X140506666Y-113200000D01*
X140411428Y-113152380D01*
X147032857Y-114202380D02*
X147366190Y-113726190D01*
X147604285Y-114202380D02*
X147604285Y-113202380D01*
X147223333Y-113202380D01*
X147128095Y-113250000D01*
X147080476Y-113297619D01*
X147032857Y-113392857D01*
X147032857Y-113535714D01*
X147080476Y-113630952D01*
X147128095Y-113678571D01*
X147223333Y-113726190D01*
X147604285Y-113726190D01*
X146651904Y-113297619D02*
X146604285Y-113250000D01*
X146509047Y-113202380D01*
X146270952Y-113202380D01*
X146175714Y-113250000D01*
X146128095Y-113297619D01*
X146080476Y-113392857D01*
X146080476Y-113488095D01*
X146128095Y-113630952D01*
X146699523Y-114202380D01*
X146080476Y-114202380D01*
X145604285Y-114202380D02*
X145413809Y-114202380D01*
X145318571Y-114154761D01*
X145270952Y-114107142D01*
X145175714Y-113964285D01*
X145128095Y-113773809D01*
X145128095Y-113392857D01*
X145175714Y-113297619D01*
X145223333Y-113250000D01*
X145318571Y-113202380D01*
X145509047Y-113202380D01*
X145604285Y-113250000D01*
X145651904Y-113297619D01*
X145699523Y-113392857D01*
X145699523Y-113630952D01*
X145651904Y-113726190D01*
X145604285Y-113773809D01*
X145509047Y-113821428D01*
X145318571Y-113821428D01*
X145223333Y-113773809D01*
X145175714Y-113726190D01*
X145128095Y-113630952D01*
X152042857Y-114202380D02*
X152376190Y-113726190D01*
X152614285Y-114202380D02*
X152614285Y-113202380D01*
X152233333Y-113202380D01*
X152138095Y-113250000D01*
X152090476Y-113297619D01*
X152042857Y-113392857D01*
X152042857Y-113535714D01*
X152090476Y-113630952D01*
X152138095Y-113678571D01*
X152233333Y-113726190D01*
X152614285Y-113726190D01*
X151661904Y-113297619D02*
X151614285Y-113250000D01*
X151519047Y-113202380D01*
X151280952Y-113202380D01*
X151185714Y-113250000D01*
X151138095Y-113297619D01*
X151090476Y-113392857D01*
X151090476Y-113488095D01*
X151138095Y-113630952D01*
X151709523Y-114202380D01*
X151090476Y-114202380D01*
X150519047Y-113630952D02*
X150614285Y-113583333D01*
X150661904Y-113535714D01*
X150709523Y-113440476D01*
X150709523Y-113392857D01*
X150661904Y-113297619D01*
X150614285Y-113250000D01*
X150519047Y-113202380D01*
X150328571Y-113202380D01*
X150233333Y-113250000D01*
X150185714Y-113297619D01*
X150138095Y-113392857D01*
X150138095Y-113440476D01*
X150185714Y-113535714D01*
X150233333Y-113583333D01*
X150328571Y-113630952D01*
X150519047Y-113630952D01*
X150614285Y-113678571D01*
X150661904Y-113726190D01*
X150709523Y-113821428D01*
X150709523Y-114011904D01*
X150661904Y-114107142D01*
X150614285Y-114154761D01*
X150519047Y-114202380D01*
X150328571Y-114202380D01*
X150233333Y-114154761D01*
X150185714Y-114107142D01*
X150138095Y-114011904D01*
X150138095Y-113821428D01*
X150185714Y-113726190D01*
X150233333Y-113678571D01*
X150328571Y-113630952D01*
X144562857Y-72042380D02*
X144896190Y-71566190D01*
X145134285Y-72042380D02*
X145134285Y-71042380D01*
X144753333Y-71042380D01*
X144658095Y-71090000D01*
X144610476Y-71137619D01*
X144562857Y-71232857D01*
X144562857Y-71375714D01*
X144610476Y-71470952D01*
X144658095Y-71518571D01*
X144753333Y-71566190D01*
X145134285Y-71566190D01*
X144181904Y-71137619D02*
X144134285Y-71090000D01*
X144039047Y-71042380D01*
X143800952Y-71042380D01*
X143705714Y-71090000D01*
X143658095Y-71137619D01*
X143610476Y-71232857D01*
X143610476Y-71328095D01*
X143658095Y-71470952D01*
X144229523Y-72042380D01*
X143610476Y-72042380D01*
X143277142Y-71042380D02*
X142610476Y-71042380D01*
X143039047Y-72042380D01*
X139572857Y-72042380D02*
X139906190Y-71566190D01*
X140144285Y-72042380D02*
X140144285Y-71042380D01*
X139763333Y-71042380D01*
X139668095Y-71090000D01*
X139620476Y-71137619D01*
X139572857Y-71232857D01*
X139572857Y-71375714D01*
X139620476Y-71470952D01*
X139668095Y-71518571D01*
X139763333Y-71566190D01*
X140144285Y-71566190D01*
X139191904Y-71137619D02*
X139144285Y-71090000D01*
X139049047Y-71042380D01*
X138810952Y-71042380D01*
X138715714Y-71090000D01*
X138668095Y-71137619D01*
X138620476Y-71232857D01*
X138620476Y-71328095D01*
X138668095Y-71470952D01*
X139239523Y-72042380D01*
X138620476Y-72042380D01*
X137763333Y-71042380D02*
X137953809Y-71042380D01*
X138049047Y-71090000D01*
X138096666Y-71137619D01*
X138191904Y-71280476D01*
X138239523Y-71470952D01*
X138239523Y-71851904D01*
X138191904Y-71947142D01*
X138144285Y-71994761D01*
X138049047Y-72042380D01*
X137858571Y-72042380D01*
X137763333Y-71994761D01*
X137715714Y-71947142D01*
X137668095Y-71851904D01*
X137668095Y-71613809D01*
X137715714Y-71518571D01*
X137763333Y-71470952D01*
X137858571Y-71423333D01*
X138049047Y-71423333D01*
X138144285Y-71470952D01*
X138191904Y-71518571D01*
X138239523Y-71613809D01*
X134605357Y-72042380D02*
X134938690Y-71566190D01*
X135176785Y-72042380D02*
X135176785Y-71042380D01*
X134795833Y-71042380D01*
X134700595Y-71090000D01*
X134652976Y-71137619D01*
X134605357Y-71232857D01*
X134605357Y-71375714D01*
X134652976Y-71470952D01*
X134700595Y-71518571D01*
X134795833Y-71566190D01*
X135176785Y-71566190D01*
X134224404Y-71137619D02*
X134176785Y-71090000D01*
X134081547Y-71042380D01*
X133843452Y-71042380D01*
X133748214Y-71090000D01*
X133700595Y-71137619D01*
X133652976Y-71232857D01*
X133652976Y-71328095D01*
X133700595Y-71470952D01*
X134272023Y-72042380D01*
X133652976Y-72042380D01*
X132748214Y-71042380D02*
X133224404Y-71042380D01*
X133272023Y-71518571D01*
X133224404Y-71470952D01*
X133129166Y-71423333D01*
X132891071Y-71423333D01*
X132795833Y-71470952D01*
X132748214Y-71518571D01*
X132700595Y-71613809D01*
X132700595Y-71851904D01*
X132748214Y-71947142D01*
X132795833Y-71994761D01*
X132891071Y-72042380D01*
X133129166Y-72042380D01*
X133224404Y-71994761D01*
X133272023Y-71947142D01*
X129602857Y-72042380D02*
X129936190Y-71566190D01*
X130174285Y-72042380D02*
X130174285Y-71042380D01*
X129793333Y-71042380D01*
X129698095Y-71090000D01*
X129650476Y-71137619D01*
X129602857Y-71232857D01*
X129602857Y-71375714D01*
X129650476Y-71470952D01*
X129698095Y-71518571D01*
X129793333Y-71566190D01*
X130174285Y-71566190D01*
X129221904Y-71137619D02*
X129174285Y-71090000D01*
X129079047Y-71042380D01*
X128840952Y-71042380D01*
X128745714Y-71090000D01*
X128698095Y-71137619D01*
X128650476Y-71232857D01*
X128650476Y-71328095D01*
X128698095Y-71470952D01*
X129269523Y-72042380D01*
X128650476Y-72042380D01*
X127793333Y-71375714D02*
X127793333Y-72042380D01*
X128031428Y-70994761D02*
X128269523Y-71709047D01*
X127650476Y-71709047D01*
X124492857Y-72042380D02*
X124826190Y-71566190D01*
X125064285Y-72042380D02*
X125064285Y-71042380D01*
X124683333Y-71042380D01*
X124588095Y-71090000D01*
X124540476Y-71137619D01*
X124492857Y-71232857D01*
X124492857Y-71375714D01*
X124540476Y-71470952D01*
X124588095Y-71518571D01*
X124683333Y-71566190D01*
X125064285Y-71566190D01*
X124111904Y-71137619D02*
X124064285Y-71090000D01*
X123969047Y-71042380D01*
X123730952Y-71042380D01*
X123635714Y-71090000D01*
X123588095Y-71137619D01*
X123540476Y-71232857D01*
X123540476Y-71328095D01*
X123588095Y-71470952D01*
X124159523Y-72042380D01*
X123540476Y-72042380D01*
X123207142Y-71042380D02*
X122588095Y-71042380D01*
X122921428Y-71423333D01*
X122778571Y-71423333D01*
X122683333Y-71470952D01*
X122635714Y-71518571D01*
X122588095Y-71613809D01*
X122588095Y-71851904D01*
X122635714Y-71947142D01*
X122683333Y-71994761D01*
X122778571Y-72042380D01*
X123064285Y-72042380D01*
X123159523Y-71994761D01*
X123207142Y-71947142D01*
X159522857Y-72042380D02*
X159856190Y-71566190D01*
X160094285Y-72042380D02*
X160094285Y-71042380D01*
X159713333Y-71042380D01*
X159618095Y-71090000D01*
X159570476Y-71137619D01*
X159522857Y-71232857D01*
X159522857Y-71375714D01*
X159570476Y-71470952D01*
X159618095Y-71518571D01*
X159713333Y-71566190D01*
X160094285Y-71566190D01*
X158570476Y-72042380D02*
X159141904Y-72042380D01*
X158856190Y-72042380D02*
X158856190Y-71042380D01*
X158951428Y-71185238D01*
X159046666Y-71280476D01*
X159141904Y-71328095D01*
X157713333Y-71375714D02*
X157713333Y-72042380D01*
X157951428Y-70994761D02*
X158189523Y-71709047D01*
X157570476Y-71709047D01*
X154522857Y-72042380D02*
X154856190Y-71566190D01*
X155094285Y-72042380D02*
X155094285Y-71042380D01*
X154713333Y-71042380D01*
X154618095Y-71090000D01*
X154570476Y-71137619D01*
X154522857Y-71232857D01*
X154522857Y-71375714D01*
X154570476Y-71470952D01*
X154618095Y-71518571D01*
X154713333Y-71566190D01*
X155094285Y-71566190D01*
X153570476Y-72042380D02*
X154141904Y-72042380D01*
X153856190Y-72042380D02*
X153856190Y-71042380D01*
X153951428Y-71185238D01*
X154046666Y-71280476D01*
X154141904Y-71328095D01*
X153237142Y-71042380D02*
X152618095Y-71042380D01*
X152951428Y-71423333D01*
X152808571Y-71423333D01*
X152713333Y-71470952D01*
X152665714Y-71518571D01*
X152618095Y-71613809D01*
X152618095Y-71851904D01*
X152665714Y-71947142D01*
X152713333Y-71994761D01*
X152808571Y-72042380D01*
X153094285Y-72042380D01*
X153189523Y-71994761D01*
X153237142Y-71947142D01*
X149522857Y-72042380D02*
X149856190Y-71566190D01*
X150094285Y-72042380D02*
X150094285Y-71042380D01*
X149713333Y-71042380D01*
X149618095Y-71090000D01*
X149570476Y-71137619D01*
X149522857Y-71232857D01*
X149522857Y-71375714D01*
X149570476Y-71470952D01*
X149618095Y-71518571D01*
X149713333Y-71566190D01*
X150094285Y-71566190D01*
X148570476Y-72042380D02*
X149141904Y-72042380D01*
X148856190Y-72042380D02*
X148856190Y-71042380D01*
X148951428Y-71185238D01*
X149046666Y-71280476D01*
X149141904Y-71328095D01*
X148189523Y-71137619D02*
X148141904Y-71090000D01*
X148046666Y-71042380D01*
X147808571Y-71042380D01*
X147713333Y-71090000D01*
X147665714Y-71137619D01*
X147618095Y-71232857D01*
X147618095Y-71328095D01*
X147665714Y-71470952D01*
X148237142Y-72042380D01*
X147618095Y-72042380D01*
D16*
X187373333Y-119454523D02*
X187373333Y-120361666D01*
X187433809Y-120543095D01*
X187554761Y-120664047D01*
X187736190Y-120724523D01*
X187857142Y-120724523D01*
X186889523Y-119454523D02*
X186042857Y-119454523D01*
X186587142Y-120724523D01*
X187473333Y-63054523D02*
X187473333Y-63961666D01*
X187533809Y-64143095D01*
X187654761Y-64264047D01*
X187836190Y-64324523D01*
X187957142Y-64324523D01*
X186324285Y-63054523D02*
X186566190Y-63054523D01*
X186687142Y-63115000D01*
X186747619Y-63175476D01*
X186868571Y-63356904D01*
X186929047Y-63598809D01*
X186929047Y-64082619D01*
X186868571Y-64203571D01*
X186808095Y-64264047D01*
X186687142Y-64324523D01*
X186445238Y-64324523D01*
X186324285Y-64264047D01*
X186263809Y-64203571D01*
X186203333Y-64082619D01*
X186203333Y-63780238D01*
X186263809Y-63659285D01*
X186324285Y-63598809D01*
X186445238Y-63538333D01*
X186687142Y-63538333D01*
X186808095Y-63598809D01*
X186868571Y-63659285D01*
X186929047Y-63780238D01*
D15*
X165442857Y-101007142D02*
X165490476Y-101054761D01*
X165633333Y-101102380D01*
X165728571Y-101102380D01*
X165871428Y-101054761D01*
X165966666Y-100959523D01*
X166014285Y-100864285D01*
X166061904Y-100673809D01*
X166061904Y-100530952D01*
X166014285Y-100340476D01*
X165966666Y-100245238D01*
X165871428Y-100150000D01*
X165728571Y-100102380D01*
X165633333Y-100102380D01*
X165490476Y-100150000D01*
X165442857Y-100197619D01*
X164585714Y-100435714D02*
X164585714Y-101102380D01*
X164823809Y-100054761D02*
X165061904Y-100769047D01*
X164442857Y-100769047D01*
X163633333Y-100435714D02*
X163633333Y-101102380D01*
X163871428Y-100054761D02*
X164109523Y-100769047D01*
X163490476Y-100769047D01*
X126955357Y-110887142D02*
X127002976Y-110934761D01*
X127145833Y-110982380D01*
X127241071Y-110982380D01*
X127383928Y-110934761D01*
X127479166Y-110839523D01*
X127526785Y-110744285D01*
X127574404Y-110553809D01*
X127574404Y-110410952D01*
X127526785Y-110220476D01*
X127479166Y-110125238D01*
X127383928Y-110030000D01*
X127241071Y-109982380D01*
X127145833Y-109982380D01*
X127002976Y-110030000D01*
X126955357Y-110077619D01*
X126098214Y-110315714D02*
X126098214Y-110982380D01*
X126336309Y-109934761D02*
X126574404Y-110649047D01*
X125955357Y-110649047D01*
X125669642Y-109982380D02*
X125050595Y-109982380D01*
X125383928Y-110363333D01*
X125241071Y-110363333D01*
X125145833Y-110410952D01*
X125098214Y-110458571D01*
X125050595Y-110553809D01*
X125050595Y-110791904D01*
X125098214Y-110887142D01*
X125145833Y-110934761D01*
X125241071Y-110982380D01*
X125526785Y-110982380D01*
X125622023Y-110934761D01*
X125669642Y-110887142D01*
X131942857Y-110887142D02*
X131990476Y-110934761D01*
X132133333Y-110982380D01*
X132228571Y-110982380D01*
X132371428Y-110934761D01*
X132466666Y-110839523D01*
X132514285Y-110744285D01*
X132561904Y-110553809D01*
X132561904Y-110410952D01*
X132514285Y-110220476D01*
X132466666Y-110125238D01*
X132371428Y-110030000D01*
X132228571Y-109982380D01*
X132133333Y-109982380D01*
X131990476Y-110030000D01*
X131942857Y-110077619D01*
X131085714Y-110315714D02*
X131085714Y-110982380D01*
X131323809Y-109934761D02*
X131561904Y-110649047D01*
X130942857Y-110649047D01*
X130609523Y-110077619D02*
X130561904Y-110030000D01*
X130466666Y-109982380D01*
X130228571Y-109982380D01*
X130133333Y-110030000D01*
X130085714Y-110077619D01*
X130038095Y-110172857D01*
X130038095Y-110268095D01*
X130085714Y-110410952D01*
X130657142Y-110982380D01*
X130038095Y-110982380D01*
X136942857Y-110887142D02*
X136990476Y-110934761D01*
X137133333Y-110982380D01*
X137228571Y-110982380D01*
X137371428Y-110934761D01*
X137466666Y-110839523D01*
X137514285Y-110744285D01*
X137561904Y-110553809D01*
X137561904Y-110410952D01*
X137514285Y-110220476D01*
X137466666Y-110125238D01*
X137371428Y-110030000D01*
X137228571Y-109982380D01*
X137133333Y-109982380D01*
X136990476Y-110030000D01*
X136942857Y-110077619D01*
X136085714Y-110315714D02*
X136085714Y-110982380D01*
X136323809Y-109934761D02*
X136561904Y-110649047D01*
X135942857Y-110649047D01*
X135038095Y-110982380D02*
X135609523Y-110982380D01*
X135323809Y-110982380D02*
X135323809Y-109982380D01*
X135419047Y-110125238D01*
X135514285Y-110220476D01*
X135609523Y-110268095D01*
X141942857Y-110887142D02*
X141990476Y-110934761D01*
X142133333Y-110982380D01*
X142228571Y-110982380D01*
X142371428Y-110934761D01*
X142466666Y-110839523D01*
X142514285Y-110744285D01*
X142561904Y-110553809D01*
X142561904Y-110410952D01*
X142514285Y-110220476D01*
X142466666Y-110125238D01*
X142371428Y-110030000D01*
X142228571Y-109982380D01*
X142133333Y-109982380D01*
X141990476Y-110030000D01*
X141942857Y-110077619D01*
X141085714Y-110315714D02*
X141085714Y-110982380D01*
X141323809Y-109934761D02*
X141561904Y-110649047D01*
X140942857Y-110649047D01*
X140371428Y-109982380D02*
X140276190Y-109982380D01*
X140180952Y-110030000D01*
X140133333Y-110077619D01*
X140085714Y-110172857D01*
X140038095Y-110363333D01*
X140038095Y-110601428D01*
X140085714Y-110791904D01*
X140133333Y-110887142D01*
X140180952Y-110934761D01*
X140276190Y-110982380D01*
X140371428Y-110982380D01*
X140466666Y-110934761D01*
X140514285Y-110887142D01*
X140561904Y-110791904D01*
X140609523Y-110601428D01*
X140609523Y-110363333D01*
X140561904Y-110172857D01*
X140514285Y-110077619D01*
X140466666Y-110030000D01*
X140371428Y-109982380D01*
X119555357Y-75057142D02*
X119602976Y-75104761D01*
X119745833Y-75152380D01*
X119841071Y-75152380D01*
X119983928Y-75104761D01*
X120079166Y-75009523D01*
X120126785Y-74914285D01*
X120174404Y-74723809D01*
X120174404Y-74580952D01*
X120126785Y-74390476D01*
X120079166Y-74295238D01*
X119983928Y-74200000D01*
X119841071Y-74152380D01*
X119745833Y-74152380D01*
X119602976Y-74200000D01*
X119555357Y-74247619D01*
X119222023Y-74152380D02*
X118602976Y-74152380D01*
X118936309Y-74533333D01*
X118793452Y-74533333D01*
X118698214Y-74580952D01*
X118650595Y-74628571D01*
X118602976Y-74723809D01*
X118602976Y-74961904D01*
X118650595Y-75057142D01*
X118698214Y-75104761D01*
X118793452Y-75152380D01*
X119079166Y-75152380D01*
X119174404Y-75104761D01*
X119222023Y-75057142D01*
X118126785Y-75152380D02*
X117936309Y-75152380D01*
X117841071Y-75104761D01*
X117793452Y-75057142D01*
X117698214Y-74914285D01*
X117650595Y-74723809D01*
X117650595Y-74342857D01*
X117698214Y-74247619D01*
X117745833Y-74200000D01*
X117841071Y-74152380D01*
X118031547Y-74152380D01*
X118126785Y-74200000D01*
X118174404Y-74247619D01*
X118222023Y-74342857D01*
X118222023Y-74580952D01*
X118174404Y-74676190D01*
X118126785Y-74723809D01*
X118031547Y-74771428D01*
X117841071Y-74771428D01*
X117745833Y-74723809D01*
X117698214Y-74676190D01*
X117650595Y-74580952D01*
X146942857Y-110887142D02*
X146990476Y-110934761D01*
X147133333Y-110982380D01*
X147228571Y-110982380D01*
X147371428Y-110934761D01*
X147466666Y-110839523D01*
X147514285Y-110744285D01*
X147561904Y-110553809D01*
X147561904Y-110410952D01*
X147514285Y-110220476D01*
X147466666Y-110125238D01*
X147371428Y-110030000D01*
X147228571Y-109982380D01*
X147133333Y-109982380D01*
X146990476Y-110030000D01*
X146942857Y-110077619D01*
X146609523Y-109982380D02*
X145990476Y-109982380D01*
X146323809Y-110363333D01*
X146180952Y-110363333D01*
X146085714Y-110410952D01*
X146038095Y-110458571D01*
X145990476Y-110553809D01*
X145990476Y-110791904D01*
X146038095Y-110887142D01*
X146085714Y-110934761D01*
X146180952Y-110982380D01*
X146466666Y-110982380D01*
X146561904Y-110934761D01*
X146609523Y-110887142D01*
X145419047Y-110410952D02*
X145514285Y-110363333D01*
X145561904Y-110315714D01*
X145609523Y-110220476D01*
X145609523Y-110172857D01*
X145561904Y-110077619D01*
X145514285Y-110030000D01*
X145419047Y-109982380D01*
X145228571Y-109982380D01*
X145133333Y-110030000D01*
X145085714Y-110077619D01*
X145038095Y-110172857D01*
X145038095Y-110220476D01*
X145085714Y-110315714D01*
X145133333Y-110363333D01*
X145228571Y-110410952D01*
X145419047Y-110410952D01*
X145514285Y-110458571D01*
X145561904Y-110506190D01*
X145609523Y-110601428D01*
X145609523Y-110791904D01*
X145561904Y-110887142D01*
X145514285Y-110934761D01*
X145419047Y-110982380D01*
X145228571Y-110982380D01*
X145133333Y-110934761D01*
X145085714Y-110887142D01*
X145038095Y-110791904D01*
X145038095Y-110601428D01*
X145085714Y-110506190D01*
X145133333Y-110458571D01*
X145228571Y-110410952D01*
X114542857Y-75057142D02*
X114590476Y-75104761D01*
X114733333Y-75152380D01*
X114828571Y-75152380D01*
X114971428Y-75104761D01*
X115066666Y-75009523D01*
X115114285Y-74914285D01*
X115161904Y-74723809D01*
X115161904Y-74580952D01*
X115114285Y-74390476D01*
X115066666Y-74295238D01*
X114971428Y-74200000D01*
X114828571Y-74152380D01*
X114733333Y-74152380D01*
X114590476Y-74200000D01*
X114542857Y-74247619D01*
X114209523Y-74152380D02*
X113590476Y-74152380D01*
X113923809Y-74533333D01*
X113780952Y-74533333D01*
X113685714Y-74580952D01*
X113638095Y-74628571D01*
X113590476Y-74723809D01*
X113590476Y-74961904D01*
X113638095Y-75057142D01*
X113685714Y-75104761D01*
X113780952Y-75152380D01*
X114066666Y-75152380D01*
X114161904Y-75104761D01*
X114209523Y-75057142D01*
X113257142Y-74152380D02*
X112590476Y-74152380D01*
X113019047Y-75152380D01*
X151942857Y-110887142D02*
X151990476Y-110934761D01*
X152133333Y-110982380D01*
X152228571Y-110982380D01*
X152371428Y-110934761D01*
X152466666Y-110839523D01*
X152514285Y-110744285D01*
X152561904Y-110553809D01*
X152561904Y-110410952D01*
X152514285Y-110220476D01*
X152466666Y-110125238D01*
X152371428Y-110030000D01*
X152228571Y-109982380D01*
X152133333Y-109982380D01*
X151990476Y-110030000D01*
X151942857Y-110077619D01*
X151609523Y-109982380D02*
X150990476Y-109982380D01*
X151323809Y-110363333D01*
X151180952Y-110363333D01*
X151085714Y-110410952D01*
X151038095Y-110458571D01*
X150990476Y-110553809D01*
X150990476Y-110791904D01*
X151038095Y-110887142D01*
X151085714Y-110934761D01*
X151180952Y-110982380D01*
X151466666Y-110982380D01*
X151561904Y-110934761D01*
X151609523Y-110887142D01*
X150133333Y-109982380D02*
X150323809Y-109982380D01*
X150419047Y-110030000D01*
X150466666Y-110077619D01*
X150561904Y-110220476D01*
X150609523Y-110410952D01*
X150609523Y-110791904D01*
X150561904Y-110887142D01*
X150514285Y-110934761D01*
X150419047Y-110982380D01*
X150228571Y-110982380D01*
X150133333Y-110934761D01*
X150085714Y-110887142D01*
X150038095Y-110791904D01*
X150038095Y-110553809D01*
X150085714Y-110458571D01*
X150133333Y-110410952D01*
X150228571Y-110363333D01*
X150419047Y-110363333D01*
X150514285Y-110410952D01*
X150561904Y-110458571D01*
X150609523Y-110553809D01*
X156942857Y-110887142D02*
X156990476Y-110934761D01*
X157133333Y-110982380D01*
X157228571Y-110982380D01*
X157371428Y-110934761D01*
X157466666Y-110839523D01*
X157514285Y-110744285D01*
X157561904Y-110553809D01*
X157561904Y-110410952D01*
X157514285Y-110220476D01*
X157466666Y-110125238D01*
X157371428Y-110030000D01*
X157228571Y-109982380D01*
X157133333Y-109982380D01*
X156990476Y-110030000D01*
X156942857Y-110077619D01*
X156609523Y-109982380D02*
X155990476Y-109982380D01*
X156323809Y-110363333D01*
X156180952Y-110363333D01*
X156085714Y-110410952D01*
X156038095Y-110458571D01*
X155990476Y-110553809D01*
X155990476Y-110791904D01*
X156038095Y-110887142D01*
X156085714Y-110934761D01*
X156180952Y-110982380D01*
X156466666Y-110982380D01*
X156561904Y-110934761D01*
X156609523Y-110887142D01*
X155085714Y-109982380D02*
X155561904Y-109982380D01*
X155609523Y-110458571D01*
X155561904Y-110410952D01*
X155466666Y-110363333D01*
X155228571Y-110363333D01*
X155133333Y-110410952D01*
X155085714Y-110458571D01*
X155038095Y-110553809D01*
X155038095Y-110791904D01*
X155085714Y-110887142D01*
X155133333Y-110934761D01*
X155228571Y-110982380D01*
X155466666Y-110982380D01*
X155561904Y-110934761D01*
X155609523Y-110887142D01*
X144442857Y-75057142D02*
X144490476Y-75104761D01*
X144633333Y-75152380D01*
X144728571Y-75152380D01*
X144871428Y-75104761D01*
X144966666Y-75009523D01*
X145014285Y-74914285D01*
X145061904Y-74723809D01*
X145061904Y-74580952D01*
X145014285Y-74390476D01*
X144966666Y-74295238D01*
X144871428Y-74200000D01*
X144728571Y-74152380D01*
X144633333Y-74152380D01*
X144490476Y-74200000D01*
X144442857Y-74247619D01*
X144109523Y-74152380D02*
X143490476Y-74152380D01*
X143823809Y-74533333D01*
X143680952Y-74533333D01*
X143585714Y-74580952D01*
X143538095Y-74628571D01*
X143490476Y-74723809D01*
X143490476Y-74961904D01*
X143538095Y-75057142D01*
X143585714Y-75104761D01*
X143680952Y-75152380D01*
X143966666Y-75152380D01*
X144061904Y-75104761D01*
X144109523Y-75057142D01*
X142633333Y-74485714D02*
X142633333Y-75152380D01*
X142871428Y-74104761D02*
X143109523Y-74819047D01*
X142490476Y-74819047D01*
X171930357Y-110887142D02*
X171977976Y-110934761D01*
X172120833Y-110982380D01*
X172216071Y-110982380D01*
X172358928Y-110934761D01*
X172454166Y-110839523D01*
X172501785Y-110744285D01*
X172549404Y-110553809D01*
X172549404Y-110410952D01*
X172501785Y-110220476D01*
X172454166Y-110125238D01*
X172358928Y-110030000D01*
X172216071Y-109982380D01*
X172120833Y-109982380D01*
X171977976Y-110030000D01*
X171930357Y-110077619D01*
X171597023Y-109982380D02*
X170977976Y-109982380D01*
X171311309Y-110363333D01*
X171168452Y-110363333D01*
X171073214Y-110410952D01*
X171025595Y-110458571D01*
X170977976Y-110553809D01*
X170977976Y-110791904D01*
X171025595Y-110887142D01*
X171073214Y-110934761D01*
X171168452Y-110982380D01*
X171454166Y-110982380D01*
X171549404Y-110934761D01*
X171597023Y-110887142D01*
X170644642Y-109982380D02*
X170025595Y-109982380D01*
X170358928Y-110363333D01*
X170216071Y-110363333D01*
X170120833Y-110410952D01*
X170073214Y-110458571D01*
X170025595Y-110553809D01*
X170025595Y-110791904D01*
X170073214Y-110887142D01*
X170120833Y-110934761D01*
X170216071Y-110982380D01*
X170501785Y-110982380D01*
X170597023Y-110934761D01*
X170644642Y-110887142D01*
X139442857Y-75057142D02*
X139490476Y-75104761D01*
X139633333Y-75152380D01*
X139728571Y-75152380D01*
X139871428Y-75104761D01*
X139966666Y-75009523D01*
X140014285Y-74914285D01*
X140061904Y-74723809D01*
X140061904Y-74580952D01*
X140014285Y-74390476D01*
X139966666Y-74295238D01*
X139871428Y-74200000D01*
X139728571Y-74152380D01*
X139633333Y-74152380D01*
X139490476Y-74200000D01*
X139442857Y-74247619D01*
X139109523Y-74152380D02*
X138490476Y-74152380D01*
X138823809Y-74533333D01*
X138680952Y-74533333D01*
X138585714Y-74580952D01*
X138538095Y-74628571D01*
X138490476Y-74723809D01*
X138490476Y-74961904D01*
X138538095Y-75057142D01*
X138585714Y-75104761D01*
X138680952Y-75152380D01*
X138966666Y-75152380D01*
X139061904Y-75104761D01*
X139109523Y-75057142D01*
X138109523Y-74247619D02*
X138061904Y-74200000D01*
X137966666Y-74152380D01*
X137728571Y-74152380D01*
X137633333Y-74200000D01*
X137585714Y-74247619D01*
X137538095Y-74342857D01*
X137538095Y-74438095D01*
X137585714Y-74580952D01*
X138157142Y-75152380D01*
X137538095Y-75152380D01*
X161942857Y-110887142D02*
X161990476Y-110934761D01*
X162133333Y-110982380D01*
X162228571Y-110982380D01*
X162371428Y-110934761D01*
X162466666Y-110839523D01*
X162514285Y-110744285D01*
X162561904Y-110553809D01*
X162561904Y-110410952D01*
X162514285Y-110220476D01*
X162466666Y-110125238D01*
X162371428Y-110030000D01*
X162228571Y-109982380D01*
X162133333Y-109982380D01*
X161990476Y-110030000D01*
X161942857Y-110077619D01*
X161609523Y-109982380D02*
X160990476Y-109982380D01*
X161323809Y-110363333D01*
X161180952Y-110363333D01*
X161085714Y-110410952D01*
X161038095Y-110458571D01*
X160990476Y-110553809D01*
X160990476Y-110791904D01*
X161038095Y-110887142D01*
X161085714Y-110934761D01*
X161180952Y-110982380D01*
X161466666Y-110982380D01*
X161561904Y-110934761D01*
X161609523Y-110887142D01*
X160038095Y-110982380D02*
X160609523Y-110982380D01*
X160323809Y-110982380D02*
X160323809Y-109982380D01*
X160419047Y-110125238D01*
X160514285Y-110220476D01*
X160609523Y-110268095D01*
X134542857Y-75057142D02*
X134590476Y-75104761D01*
X134733333Y-75152380D01*
X134828571Y-75152380D01*
X134971428Y-75104761D01*
X135066666Y-75009523D01*
X135114285Y-74914285D01*
X135161904Y-74723809D01*
X135161904Y-74580952D01*
X135114285Y-74390476D01*
X135066666Y-74295238D01*
X134971428Y-74200000D01*
X134828571Y-74152380D01*
X134733333Y-74152380D01*
X134590476Y-74200000D01*
X134542857Y-74247619D01*
X134209523Y-74152380D02*
X133590476Y-74152380D01*
X133923809Y-74533333D01*
X133780952Y-74533333D01*
X133685714Y-74580952D01*
X133638095Y-74628571D01*
X133590476Y-74723809D01*
X133590476Y-74961904D01*
X133638095Y-75057142D01*
X133685714Y-75104761D01*
X133780952Y-75152380D01*
X134066666Y-75152380D01*
X134161904Y-75104761D01*
X134209523Y-75057142D01*
X132971428Y-74152380D02*
X132876190Y-74152380D01*
X132780952Y-74200000D01*
X132733333Y-74247619D01*
X132685714Y-74342857D01*
X132638095Y-74533333D01*
X132638095Y-74771428D01*
X132685714Y-74961904D01*
X132733333Y-75057142D01*
X132780952Y-75104761D01*
X132876190Y-75152380D01*
X132971428Y-75152380D01*
X133066666Y-75104761D01*
X133114285Y-75057142D01*
X133161904Y-74961904D01*
X133209523Y-74771428D01*
X133209523Y-74533333D01*
X133161904Y-74342857D01*
X133114285Y-74247619D01*
X133066666Y-74200000D01*
X132971428Y-74152380D01*
X181842857Y-110887142D02*
X181890476Y-110934761D01*
X182033333Y-110982380D01*
X182128571Y-110982380D01*
X182271428Y-110934761D01*
X182366666Y-110839523D01*
X182414285Y-110744285D01*
X182461904Y-110553809D01*
X182461904Y-110410952D01*
X182414285Y-110220476D01*
X182366666Y-110125238D01*
X182271428Y-110030000D01*
X182128571Y-109982380D01*
X182033333Y-109982380D01*
X181890476Y-110030000D01*
X181842857Y-110077619D01*
X181461904Y-110077619D02*
X181414285Y-110030000D01*
X181319047Y-109982380D01*
X181080952Y-109982380D01*
X180985714Y-110030000D01*
X180938095Y-110077619D01*
X180890476Y-110172857D01*
X180890476Y-110268095D01*
X180938095Y-110410952D01*
X181509523Y-110982380D01*
X180890476Y-110982380D01*
X180414285Y-110982380D02*
X180223809Y-110982380D01*
X180128571Y-110934761D01*
X180080952Y-110887142D01*
X179985714Y-110744285D01*
X179938095Y-110553809D01*
X179938095Y-110172857D01*
X179985714Y-110077619D01*
X180033333Y-110030000D01*
X180128571Y-109982380D01*
X180319047Y-109982380D01*
X180414285Y-110030000D01*
X180461904Y-110077619D01*
X180509523Y-110172857D01*
X180509523Y-110410952D01*
X180461904Y-110506190D01*
X180414285Y-110553809D01*
X180319047Y-110601428D01*
X180128571Y-110601428D01*
X180033333Y-110553809D01*
X179985714Y-110506190D01*
X179938095Y-110410952D01*
X129542857Y-74957142D02*
X129590476Y-75004761D01*
X129733333Y-75052380D01*
X129828571Y-75052380D01*
X129971428Y-75004761D01*
X130066666Y-74909523D01*
X130114285Y-74814285D01*
X130161904Y-74623809D01*
X130161904Y-74480952D01*
X130114285Y-74290476D01*
X130066666Y-74195238D01*
X129971428Y-74100000D01*
X129828571Y-74052380D01*
X129733333Y-74052380D01*
X129590476Y-74100000D01*
X129542857Y-74147619D01*
X129161904Y-74147619D02*
X129114285Y-74100000D01*
X129019047Y-74052380D01*
X128780952Y-74052380D01*
X128685714Y-74100000D01*
X128638095Y-74147619D01*
X128590476Y-74242857D01*
X128590476Y-74338095D01*
X128638095Y-74480952D01*
X129209523Y-75052380D01*
X128590476Y-75052380D01*
X128019047Y-74480952D02*
X128114285Y-74433333D01*
X128161904Y-74385714D01*
X128209523Y-74290476D01*
X128209523Y-74242857D01*
X128161904Y-74147619D01*
X128114285Y-74100000D01*
X128019047Y-74052380D01*
X127828571Y-74052380D01*
X127733333Y-74100000D01*
X127685714Y-74147619D01*
X127638095Y-74242857D01*
X127638095Y-74290476D01*
X127685714Y-74385714D01*
X127733333Y-74433333D01*
X127828571Y-74480952D01*
X128019047Y-74480952D01*
X128114285Y-74528571D01*
X128161904Y-74576190D01*
X128209523Y-74671428D01*
X128209523Y-74861904D01*
X128161904Y-74957142D01*
X128114285Y-75004761D01*
X128019047Y-75052380D01*
X127828571Y-75052380D01*
X127733333Y-75004761D01*
X127685714Y-74957142D01*
X127638095Y-74861904D01*
X127638095Y-74671428D01*
X127685714Y-74576190D01*
X127733333Y-74528571D01*
X127828571Y-74480952D01*
X184442857Y-75057142D02*
X184490476Y-75104761D01*
X184633333Y-75152380D01*
X184728571Y-75152380D01*
X184871428Y-75104761D01*
X184966666Y-75009523D01*
X185014285Y-74914285D01*
X185061904Y-74723809D01*
X185061904Y-74580952D01*
X185014285Y-74390476D01*
X184966666Y-74295238D01*
X184871428Y-74200000D01*
X184728571Y-74152380D01*
X184633333Y-74152380D01*
X184490476Y-74200000D01*
X184442857Y-74247619D01*
X184061904Y-74247619D02*
X184014285Y-74200000D01*
X183919047Y-74152380D01*
X183680952Y-74152380D01*
X183585714Y-74200000D01*
X183538095Y-74247619D01*
X183490476Y-74342857D01*
X183490476Y-74438095D01*
X183538095Y-74580952D01*
X184109523Y-75152380D01*
X183490476Y-75152380D01*
X183157142Y-74152380D02*
X182490476Y-74152380D01*
X182919047Y-75152380D01*
X124542857Y-75057142D02*
X124590476Y-75104761D01*
X124733333Y-75152380D01*
X124828571Y-75152380D01*
X124971428Y-75104761D01*
X125066666Y-75009523D01*
X125114285Y-74914285D01*
X125161904Y-74723809D01*
X125161904Y-74580952D01*
X125114285Y-74390476D01*
X125066666Y-74295238D01*
X124971428Y-74200000D01*
X124828571Y-74152380D01*
X124733333Y-74152380D01*
X124590476Y-74200000D01*
X124542857Y-74247619D01*
X124161904Y-74247619D02*
X124114285Y-74200000D01*
X124019047Y-74152380D01*
X123780952Y-74152380D01*
X123685714Y-74200000D01*
X123638095Y-74247619D01*
X123590476Y-74342857D01*
X123590476Y-74438095D01*
X123638095Y-74580952D01*
X124209523Y-75152380D01*
X123590476Y-75152380D01*
X122733333Y-74152380D02*
X122923809Y-74152380D01*
X123019047Y-74200000D01*
X123066666Y-74247619D01*
X123161904Y-74390476D01*
X123209523Y-74580952D01*
X123209523Y-74961904D01*
X123161904Y-75057142D01*
X123114285Y-75104761D01*
X123019047Y-75152380D01*
X122828571Y-75152380D01*
X122733333Y-75104761D01*
X122685714Y-75057142D01*
X122638095Y-74961904D01*
X122638095Y-74723809D01*
X122685714Y-74628571D01*
X122733333Y-74580952D01*
X122828571Y-74533333D01*
X123019047Y-74533333D01*
X123114285Y-74580952D01*
X123161904Y-74628571D01*
X123209523Y-74723809D01*
X189442857Y-75057142D02*
X189490476Y-75104761D01*
X189633333Y-75152380D01*
X189728571Y-75152380D01*
X189871428Y-75104761D01*
X189966666Y-75009523D01*
X190014285Y-74914285D01*
X190061904Y-74723809D01*
X190061904Y-74580952D01*
X190014285Y-74390476D01*
X189966666Y-74295238D01*
X189871428Y-74200000D01*
X189728571Y-74152380D01*
X189633333Y-74152380D01*
X189490476Y-74200000D01*
X189442857Y-74247619D01*
X189061904Y-74247619D02*
X189014285Y-74200000D01*
X188919047Y-74152380D01*
X188680952Y-74152380D01*
X188585714Y-74200000D01*
X188538095Y-74247619D01*
X188490476Y-74342857D01*
X188490476Y-74438095D01*
X188538095Y-74580952D01*
X189109523Y-75152380D01*
X188490476Y-75152380D01*
X187585714Y-74152380D02*
X188061904Y-74152380D01*
X188109523Y-74628571D01*
X188061904Y-74580952D01*
X187966666Y-74533333D01*
X187728571Y-74533333D01*
X187633333Y-74580952D01*
X187585714Y-74628571D01*
X187538095Y-74723809D01*
X187538095Y-74961904D01*
X187585714Y-75057142D01*
X187633333Y-75104761D01*
X187728571Y-75152380D01*
X187966666Y-75152380D01*
X188061904Y-75104761D01*
X188109523Y-75057142D01*
X164442857Y-75157142D02*
X164490476Y-75204761D01*
X164633333Y-75252380D01*
X164728571Y-75252380D01*
X164871428Y-75204761D01*
X164966666Y-75109523D01*
X165014285Y-75014285D01*
X165061904Y-74823809D01*
X165061904Y-74680952D01*
X165014285Y-74490476D01*
X164966666Y-74395238D01*
X164871428Y-74300000D01*
X164728571Y-74252380D01*
X164633333Y-74252380D01*
X164490476Y-74300000D01*
X164442857Y-74347619D01*
X164061904Y-74347619D02*
X164014285Y-74300000D01*
X163919047Y-74252380D01*
X163680952Y-74252380D01*
X163585714Y-74300000D01*
X163538095Y-74347619D01*
X163490476Y-74442857D01*
X163490476Y-74538095D01*
X163538095Y-74680952D01*
X164109523Y-75252380D01*
X163490476Y-75252380D01*
X162633333Y-74585714D02*
X162633333Y-75252380D01*
X162871428Y-74204761D02*
X163109523Y-74919047D01*
X162490476Y-74919047D01*
X169355357Y-75057142D02*
X169402976Y-75104761D01*
X169545833Y-75152380D01*
X169641071Y-75152380D01*
X169783928Y-75104761D01*
X169879166Y-75009523D01*
X169926785Y-74914285D01*
X169974404Y-74723809D01*
X169974404Y-74580952D01*
X169926785Y-74390476D01*
X169879166Y-74295238D01*
X169783928Y-74200000D01*
X169641071Y-74152380D01*
X169545833Y-74152380D01*
X169402976Y-74200000D01*
X169355357Y-74247619D01*
X168974404Y-74247619D02*
X168926785Y-74200000D01*
X168831547Y-74152380D01*
X168593452Y-74152380D01*
X168498214Y-74200000D01*
X168450595Y-74247619D01*
X168402976Y-74342857D01*
X168402976Y-74438095D01*
X168450595Y-74580952D01*
X169022023Y-75152380D01*
X168402976Y-75152380D01*
X168069642Y-74152380D02*
X167450595Y-74152380D01*
X167783928Y-74533333D01*
X167641071Y-74533333D01*
X167545833Y-74580952D01*
X167498214Y-74628571D01*
X167450595Y-74723809D01*
X167450595Y-74961904D01*
X167498214Y-75057142D01*
X167545833Y-75104761D01*
X167641071Y-75152380D01*
X167926785Y-75152380D01*
X168022023Y-75104761D01*
X168069642Y-75057142D01*
X174342857Y-75057142D02*
X174390476Y-75104761D01*
X174533333Y-75152380D01*
X174628571Y-75152380D01*
X174771428Y-75104761D01*
X174866666Y-75009523D01*
X174914285Y-74914285D01*
X174961904Y-74723809D01*
X174961904Y-74580952D01*
X174914285Y-74390476D01*
X174866666Y-74295238D01*
X174771428Y-74200000D01*
X174628571Y-74152380D01*
X174533333Y-74152380D01*
X174390476Y-74200000D01*
X174342857Y-74247619D01*
X173961904Y-74247619D02*
X173914285Y-74200000D01*
X173819047Y-74152380D01*
X173580952Y-74152380D01*
X173485714Y-74200000D01*
X173438095Y-74247619D01*
X173390476Y-74342857D01*
X173390476Y-74438095D01*
X173438095Y-74580952D01*
X174009523Y-75152380D01*
X173390476Y-75152380D01*
X173009523Y-74247619D02*
X172961904Y-74200000D01*
X172866666Y-74152380D01*
X172628571Y-74152380D01*
X172533333Y-74200000D01*
X172485714Y-74247619D01*
X172438095Y-74342857D01*
X172438095Y-74438095D01*
X172485714Y-74580952D01*
X173057142Y-75152380D01*
X172438095Y-75152380D01*
X179555357Y-75057142D02*
X179602976Y-75104761D01*
X179745833Y-75152380D01*
X179841071Y-75152380D01*
X179983928Y-75104761D01*
X180079166Y-75009523D01*
X180126785Y-74914285D01*
X180174404Y-74723809D01*
X180174404Y-74580952D01*
X180126785Y-74390476D01*
X180079166Y-74295238D01*
X179983928Y-74200000D01*
X179841071Y-74152380D01*
X179745833Y-74152380D01*
X179602976Y-74200000D01*
X179555357Y-74247619D01*
X179174404Y-74247619D02*
X179126785Y-74200000D01*
X179031547Y-74152380D01*
X178793452Y-74152380D01*
X178698214Y-74200000D01*
X178650595Y-74247619D01*
X178602976Y-74342857D01*
X178602976Y-74438095D01*
X178650595Y-74580952D01*
X179222023Y-75152380D01*
X178602976Y-75152380D01*
X177650595Y-75152380D02*
X178222023Y-75152380D01*
X177936309Y-75152380D02*
X177936309Y-74152380D01*
X178031547Y-74295238D01*
X178126785Y-74390476D01*
X178222023Y-74438095D01*
X176942857Y-110887142D02*
X176990476Y-110934761D01*
X177133333Y-110982380D01*
X177228571Y-110982380D01*
X177371428Y-110934761D01*
X177466666Y-110839523D01*
X177514285Y-110744285D01*
X177561904Y-110553809D01*
X177561904Y-110410952D01*
X177514285Y-110220476D01*
X177466666Y-110125238D01*
X177371428Y-110030000D01*
X177228571Y-109982380D01*
X177133333Y-109982380D01*
X176990476Y-110030000D01*
X176942857Y-110077619D01*
X176561904Y-110077619D02*
X176514285Y-110030000D01*
X176419047Y-109982380D01*
X176180952Y-109982380D01*
X176085714Y-110030000D01*
X176038095Y-110077619D01*
X175990476Y-110172857D01*
X175990476Y-110268095D01*
X176038095Y-110410952D01*
X176609523Y-110982380D01*
X175990476Y-110982380D01*
X175371428Y-109982380D02*
X175276190Y-109982380D01*
X175180952Y-110030000D01*
X175133333Y-110077619D01*
X175085714Y-110172857D01*
X175038095Y-110363333D01*
X175038095Y-110601428D01*
X175085714Y-110791904D01*
X175133333Y-110887142D01*
X175180952Y-110934761D01*
X175276190Y-110982380D01*
X175371428Y-110982380D01*
X175466666Y-110934761D01*
X175514285Y-110887142D01*
X175561904Y-110791904D01*
X175609523Y-110601428D01*
X175609523Y-110363333D01*
X175561904Y-110172857D01*
X175514285Y-110077619D01*
X175466666Y-110030000D01*
X175371428Y-109982380D01*
X166942857Y-110887142D02*
X166990476Y-110934761D01*
X167133333Y-110982380D01*
X167228571Y-110982380D01*
X167371428Y-110934761D01*
X167466666Y-110839523D01*
X167514285Y-110744285D01*
X167561904Y-110553809D01*
X167561904Y-110410952D01*
X167514285Y-110220476D01*
X167466666Y-110125238D01*
X167371428Y-110030000D01*
X167228571Y-109982380D01*
X167133333Y-109982380D01*
X166990476Y-110030000D01*
X166942857Y-110077619D01*
X165990476Y-110982380D02*
X166561904Y-110982380D01*
X166276190Y-110982380D02*
X166276190Y-109982380D01*
X166371428Y-110125238D01*
X166466666Y-110220476D01*
X166561904Y-110268095D01*
X165514285Y-110982380D02*
X165323809Y-110982380D01*
X165228571Y-110934761D01*
X165180952Y-110887142D01*
X165085714Y-110744285D01*
X165038095Y-110553809D01*
X165038095Y-110172857D01*
X165085714Y-110077619D01*
X165133333Y-110030000D01*
X165228571Y-109982380D01*
X165419047Y-109982380D01*
X165514285Y-110030000D01*
X165561904Y-110077619D01*
X165609523Y-110172857D01*
X165609523Y-110410952D01*
X165561904Y-110506190D01*
X165514285Y-110553809D01*
X165419047Y-110601428D01*
X165228571Y-110601428D01*
X165133333Y-110553809D01*
X165085714Y-110506190D01*
X165038095Y-110410952D01*
X121942857Y-110887142D02*
X121990476Y-110934761D01*
X122133333Y-110982380D01*
X122228571Y-110982380D01*
X122371428Y-110934761D01*
X122466666Y-110839523D01*
X122514285Y-110744285D01*
X122561904Y-110553809D01*
X122561904Y-110410952D01*
X122514285Y-110220476D01*
X122466666Y-110125238D01*
X122371428Y-110030000D01*
X122228571Y-109982380D01*
X122133333Y-109982380D01*
X121990476Y-110030000D01*
X121942857Y-110077619D01*
X120990476Y-110982380D02*
X121561904Y-110982380D01*
X121276190Y-110982380D02*
X121276190Y-109982380D01*
X121371428Y-110125238D01*
X121466666Y-110220476D01*
X121561904Y-110268095D01*
X120419047Y-110410952D02*
X120514285Y-110363333D01*
X120561904Y-110315714D01*
X120609523Y-110220476D01*
X120609523Y-110172857D01*
X120561904Y-110077619D01*
X120514285Y-110030000D01*
X120419047Y-109982380D01*
X120228571Y-109982380D01*
X120133333Y-110030000D01*
X120085714Y-110077619D01*
X120038095Y-110172857D01*
X120038095Y-110220476D01*
X120085714Y-110315714D01*
X120133333Y-110363333D01*
X120228571Y-110410952D01*
X120419047Y-110410952D01*
X120514285Y-110458571D01*
X120561904Y-110506190D01*
X120609523Y-110601428D01*
X120609523Y-110791904D01*
X120561904Y-110887142D01*
X120514285Y-110934761D01*
X120419047Y-110982380D01*
X120228571Y-110982380D01*
X120133333Y-110934761D01*
X120085714Y-110887142D01*
X120038095Y-110791904D01*
X120038095Y-110601428D01*
X120085714Y-110506190D01*
X120133333Y-110458571D01*
X120228571Y-110410952D01*
X149442857Y-75057142D02*
X149490476Y-75104761D01*
X149633333Y-75152380D01*
X149728571Y-75152380D01*
X149871428Y-75104761D01*
X149966666Y-75009523D01*
X150014285Y-74914285D01*
X150061904Y-74723809D01*
X150061904Y-74580952D01*
X150014285Y-74390476D01*
X149966666Y-74295238D01*
X149871428Y-74200000D01*
X149728571Y-74152380D01*
X149633333Y-74152380D01*
X149490476Y-74200000D01*
X149442857Y-74247619D01*
X148490476Y-75152380D02*
X149061904Y-75152380D01*
X148776190Y-75152380D02*
X148776190Y-74152380D01*
X148871428Y-74295238D01*
X148966666Y-74390476D01*
X149061904Y-74438095D01*
X148157142Y-74152380D02*
X147490476Y-74152380D01*
X147919047Y-75152380D01*
X116842857Y-110887142D02*
X116890476Y-110934761D01*
X117033333Y-110982380D01*
X117128571Y-110982380D01*
X117271428Y-110934761D01*
X117366666Y-110839523D01*
X117414285Y-110744285D01*
X117461904Y-110553809D01*
X117461904Y-110410952D01*
X117414285Y-110220476D01*
X117366666Y-110125238D01*
X117271428Y-110030000D01*
X117128571Y-109982380D01*
X117033333Y-109982380D01*
X116890476Y-110030000D01*
X116842857Y-110077619D01*
X115890476Y-110982380D02*
X116461904Y-110982380D01*
X116176190Y-110982380D02*
X116176190Y-109982380D01*
X116271428Y-110125238D01*
X116366666Y-110220476D01*
X116461904Y-110268095D01*
X115033333Y-109982380D02*
X115223809Y-109982380D01*
X115319047Y-110030000D01*
X115366666Y-110077619D01*
X115461904Y-110220476D01*
X115509523Y-110410952D01*
X115509523Y-110791904D01*
X115461904Y-110887142D01*
X115414285Y-110934761D01*
X115319047Y-110982380D01*
X115128571Y-110982380D01*
X115033333Y-110934761D01*
X114985714Y-110887142D01*
X114938095Y-110791904D01*
X114938095Y-110553809D01*
X114985714Y-110458571D01*
X115033333Y-110410952D01*
X115128571Y-110363333D01*
X115319047Y-110363333D01*
X115414285Y-110410952D01*
X115461904Y-110458571D01*
X115509523Y-110553809D01*
X154542857Y-75057142D02*
X154590476Y-75104761D01*
X154733333Y-75152380D01*
X154828571Y-75152380D01*
X154971428Y-75104761D01*
X155066666Y-75009523D01*
X155114285Y-74914285D01*
X155161904Y-74723809D01*
X155161904Y-74580952D01*
X155114285Y-74390476D01*
X155066666Y-74295238D01*
X154971428Y-74200000D01*
X154828571Y-74152380D01*
X154733333Y-74152380D01*
X154590476Y-74200000D01*
X154542857Y-74247619D01*
X153590476Y-75152380D02*
X154161904Y-75152380D01*
X153876190Y-75152380D02*
X153876190Y-74152380D01*
X153971428Y-74295238D01*
X154066666Y-74390476D01*
X154161904Y-74438095D01*
X152685714Y-74152380D02*
X153161904Y-74152380D01*
X153209523Y-74628571D01*
X153161904Y-74580952D01*
X153066666Y-74533333D01*
X152828571Y-74533333D01*
X152733333Y-74580952D01*
X152685714Y-74628571D01*
X152638095Y-74723809D01*
X152638095Y-74961904D01*
X152685714Y-75057142D01*
X152733333Y-75104761D01*
X152828571Y-75152380D01*
X153066666Y-75152380D01*
X153161904Y-75104761D01*
X153209523Y-75057142D01*
X111742857Y-110887142D02*
X111790476Y-110934761D01*
X111933333Y-110982380D01*
X112028571Y-110982380D01*
X112171428Y-110934761D01*
X112266666Y-110839523D01*
X112314285Y-110744285D01*
X112361904Y-110553809D01*
X112361904Y-110410952D01*
X112314285Y-110220476D01*
X112266666Y-110125238D01*
X112171428Y-110030000D01*
X112028571Y-109982380D01*
X111933333Y-109982380D01*
X111790476Y-110030000D01*
X111742857Y-110077619D01*
X110790476Y-110982380D02*
X111361904Y-110982380D01*
X111076190Y-110982380D02*
X111076190Y-109982380D01*
X111171428Y-110125238D01*
X111266666Y-110220476D01*
X111361904Y-110268095D01*
X109933333Y-110315714D02*
X109933333Y-110982380D01*
X110171428Y-109934761D02*
X110409523Y-110649047D01*
X109790476Y-110649047D01*
X159442857Y-75057142D02*
X159490476Y-75104761D01*
X159633333Y-75152380D01*
X159728571Y-75152380D01*
X159871428Y-75104761D01*
X159966666Y-75009523D01*
X160014285Y-74914285D01*
X160061904Y-74723809D01*
X160061904Y-74580952D01*
X160014285Y-74390476D01*
X159966666Y-74295238D01*
X159871428Y-74200000D01*
X159728571Y-74152380D01*
X159633333Y-74152380D01*
X159490476Y-74200000D01*
X159442857Y-74247619D01*
X158490476Y-75152380D02*
X159061904Y-75152380D01*
X158776190Y-75152380D02*
X158776190Y-74152380D01*
X158871428Y-74295238D01*
X158966666Y-74390476D01*
X159061904Y-74438095D01*
X158157142Y-74152380D02*
X157538095Y-74152380D01*
X157871428Y-74533333D01*
X157728571Y-74533333D01*
X157633333Y-74580952D01*
X157585714Y-74628571D01*
X157538095Y-74723809D01*
X157538095Y-74961904D01*
X157585714Y-75057142D01*
X157633333Y-75104761D01*
X157728571Y-75152380D01*
X158014285Y-75152380D01*
X158109523Y-75104761D01*
X158157142Y-75057142D01*
X106792857Y-110887142D02*
X106840476Y-110934761D01*
X106983333Y-110982380D01*
X107078571Y-110982380D01*
X107221428Y-110934761D01*
X107316666Y-110839523D01*
X107364285Y-110744285D01*
X107411904Y-110553809D01*
X107411904Y-110410952D01*
X107364285Y-110220476D01*
X107316666Y-110125238D01*
X107221428Y-110030000D01*
X107078571Y-109982380D01*
X106983333Y-109982380D01*
X106840476Y-110030000D01*
X106792857Y-110077619D01*
X105840476Y-110982380D02*
X106411904Y-110982380D01*
X106126190Y-110982380D02*
X106126190Y-109982380D01*
X106221428Y-110125238D01*
X106316666Y-110220476D01*
X106411904Y-110268095D01*
X105459523Y-110077619D02*
X105411904Y-110030000D01*
X105316666Y-109982380D01*
X105078571Y-109982380D01*
X104983333Y-110030000D01*
X104935714Y-110077619D01*
X104888095Y-110172857D01*
X104888095Y-110268095D01*
X104935714Y-110410952D01*
X105507142Y-110982380D01*
X104888095Y-110982380D01*
X143966666Y-81527142D02*
X144014285Y-81574761D01*
X144157142Y-81622380D01*
X144252380Y-81622380D01*
X144395238Y-81574761D01*
X144490476Y-81479523D01*
X144538095Y-81384285D01*
X144585714Y-81193809D01*
X144585714Y-81050952D01*
X144538095Y-80860476D01*
X144490476Y-80765238D01*
X144395238Y-80670000D01*
X144252380Y-80622380D01*
X144157142Y-80622380D01*
X144014285Y-80670000D01*
X143966666Y-80717619D01*
X143109523Y-80955714D02*
X143109523Y-81622380D01*
X143347619Y-80574761D02*
X143585714Y-81289047D01*
X142966666Y-81289047D01*
X161504761Y-90447619D02*
X161552380Y-90590476D01*
X161552380Y-90828571D01*
X161504761Y-90923809D01*
X161457142Y-90971428D01*
X161361904Y-91019047D01*
X161266666Y-91019047D01*
X161171428Y-90971428D01*
X161123809Y-90923809D01*
X161076190Y-90828571D01*
X161028571Y-90638095D01*
X160980952Y-90542857D01*
X160933333Y-90495238D01*
X160838095Y-90447619D01*
X160742857Y-90447619D01*
X160647619Y-90495238D01*
X160600000Y-90542857D01*
X160552380Y-90638095D01*
X160552380Y-90876190D01*
X160600000Y-91019047D01*
X161504761Y-91828571D02*
X161552380Y-91733333D01*
X161552380Y-91542857D01*
X161504761Y-91447619D01*
X161409523Y-91400000D01*
X161028571Y-91400000D01*
X160933333Y-91447619D01*
X160885714Y-91542857D01*
X160885714Y-91733333D01*
X160933333Y-91828571D01*
X161028571Y-91876190D01*
X161123809Y-91876190D01*
X161219047Y-91400000D01*
X161552380Y-92304761D02*
X160885714Y-92304761D01*
X161076190Y-92304761D02*
X160980952Y-92352380D01*
X160933333Y-92400000D01*
X160885714Y-92495238D01*
X160885714Y-92590476D01*
X161552380Y-92923809D02*
X160885714Y-92923809D01*
X160552380Y-92923809D02*
X160600000Y-92876190D01*
X160647619Y-92923809D01*
X160600000Y-92971428D01*
X160552380Y-92923809D01*
X160647619Y-92923809D01*
X161552380Y-93828571D02*
X161028571Y-93828571D01*
X160933333Y-93780952D01*
X160885714Y-93685714D01*
X160885714Y-93495238D01*
X160933333Y-93400000D01*
X161504761Y-93828571D02*
X161552380Y-93733333D01*
X161552380Y-93495238D01*
X161504761Y-93400000D01*
X161409523Y-93352380D01*
X161314285Y-93352380D01*
X161219047Y-93400000D01*
X161171428Y-93495238D01*
X161171428Y-93733333D01*
X161123809Y-93828571D01*
X161552380Y-94447619D02*
X161504761Y-94352380D01*
X161409523Y-94304761D01*
X160552380Y-94304761D01*
X161552380Y-95352380D02*
X161552380Y-94780952D01*
X161552380Y-95066666D02*
X160552380Y-95066666D01*
X160695238Y-94971428D01*
X160790476Y-94876190D01*
X160838095Y-94780952D01*
X119532857Y-72042380D02*
X119866190Y-71566190D01*
X120104285Y-72042380D02*
X120104285Y-71042380D01*
X119723333Y-71042380D01*
X119628095Y-71090000D01*
X119580476Y-71137619D01*
X119532857Y-71232857D01*
X119532857Y-71375714D01*
X119580476Y-71470952D01*
X119628095Y-71518571D01*
X119723333Y-71566190D01*
X120104285Y-71566190D01*
X119151904Y-71137619D02*
X119104285Y-71090000D01*
X119009047Y-71042380D01*
X118770952Y-71042380D01*
X118675714Y-71090000D01*
X118628095Y-71137619D01*
X118580476Y-71232857D01*
X118580476Y-71328095D01*
X118628095Y-71470952D01*
X119199523Y-72042380D01*
X118580476Y-72042380D01*
X118199523Y-71137619D02*
X118151904Y-71090000D01*
X118056666Y-71042380D01*
X117818571Y-71042380D01*
X117723333Y-71090000D01*
X117675714Y-71137619D01*
X117628095Y-71232857D01*
X117628095Y-71328095D01*
X117675714Y-71470952D01*
X118247142Y-72042380D01*
X117628095Y-72042380D01*
X114572857Y-72042380D02*
X114906190Y-71566190D01*
X115144285Y-72042380D02*
X115144285Y-71042380D01*
X114763333Y-71042380D01*
X114668095Y-71090000D01*
X114620476Y-71137619D01*
X114572857Y-71232857D01*
X114572857Y-71375714D01*
X114620476Y-71470952D01*
X114668095Y-71518571D01*
X114763333Y-71566190D01*
X115144285Y-71566190D01*
X114191904Y-71137619D02*
X114144285Y-71090000D01*
X114049047Y-71042380D01*
X113810952Y-71042380D01*
X113715714Y-71090000D01*
X113668095Y-71137619D01*
X113620476Y-71232857D01*
X113620476Y-71328095D01*
X113668095Y-71470952D01*
X114239523Y-72042380D01*
X113620476Y-72042380D01*
X112668095Y-72042380D02*
X113239523Y-72042380D01*
X112953809Y-72042380D02*
X112953809Y-71042380D01*
X113049047Y-71185238D01*
X113144285Y-71280476D01*
X113239523Y-71328095D01*
X157002857Y-114082380D02*
X157336190Y-113606190D01*
X157574285Y-114082380D02*
X157574285Y-113082380D01*
X157193333Y-113082380D01*
X157098095Y-113130000D01*
X157050476Y-113177619D01*
X157002857Y-113272857D01*
X157002857Y-113415714D01*
X157050476Y-113510952D01*
X157098095Y-113558571D01*
X157193333Y-113606190D01*
X157574285Y-113606190D01*
X156621904Y-113177619D02*
X156574285Y-113130000D01*
X156479047Y-113082380D01*
X156240952Y-113082380D01*
X156145714Y-113130000D01*
X156098095Y-113177619D01*
X156050476Y-113272857D01*
X156050476Y-113368095D01*
X156098095Y-113510952D01*
X156669523Y-114082380D01*
X156050476Y-114082380D01*
X155431428Y-113082380D02*
X155336190Y-113082380D01*
X155240952Y-113130000D01*
X155193333Y-113177619D01*
X155145714Y-113272857D01*
X155098095Y-113463333D01*
X155098095Y-113701428D01*
X155145714Y-113891904D01*
X155193333Y-113987142D01*
X155240952Y-114034761D01*
X155336190Y-114082380D01*
X155431428Y-114082380D01*
X155526666Y-114034761D01*
X155574285Y-113987142D01*
X155621904Y-113891904D01*
X155669523Y-113701428D01*
X155669523Y-113463333D01*
X155621904Y-113272857D01*
X155574285Y-113177619D01*
X155526666Y-113130000D01*
X155431428Y-113082380D01*
X171942857Y-114182380D02*
X172276190Y-113706190D01*
X172514285Y-114182380D02*
X172514285Y-113182380D01*
X172133333Y-113182380D01*
X172038095Y-113230000D01*
X171990476Y-113277619D01*
X171942857Y-113372857D01*
X171942857Y-113515714D01*
X171990476Y-113610952D01*
X172038095Y-113658571D01*
X172133333Y-113706190D01*
X172514285Y-113706190D01*
X170990476Y-114182380D02*
X171561904Y-114182380D01*
X171276190Y-114182380D02*
X171276190Y-113182380D01*
X171371428Y-113325238D01*
X171466666Y-113420476D01*
X171561904Y-113468095D01*
X170514285Y-114182380D02*
X170323809Y-114182380D01*
X170228571Y-114134761D01*
X170180952Y-114087142D01*
X170085714Y-113944285D01*
X170038095Y-113753809D01*
X170038095Y-113372857D01*
X170085714Y-113277619D01*
X170133333Y-113230000D01*
X170228571Y-113182380D01*
X170419047Y-113182380D01*
X170514285Y-113230000D01*
X170561904Y-113277619D01*
X170609523Y-113372857D01*
X170609523Y-113610952D01*
X170561904Y-113706190D01*
X170514285Y-113753809D01*
X170419047Y-113801428D01*
X170228571Y-113801428D01*
X170133333Y-113753809D01*
X170085714Y-113706190D01*
X170038095Y-113610952D01*
X161980357Y-114192380D02*
X162313690Y-113716190D01*
X162551785Y-114192380D02*
X162551785Y-113192380D01*
X162170833Y-113192380D01*
X162075595Y-113240000D01*
X162027976Y-113287619D01*
X161980357Y-113382857D01*
X161980357Y-113525714D01*
X162027976Y-113620952D01*
X162075595Y-113668571D01*
X162170833Y-113716190D01*
X162551785Y-113716190D01*
X161027976Y-114192380D02*
X161599404Y-114192380D01*
X161313690Y-114192380D02*
X161313690Y-113192380D01*
X161408928Y-113335238D01*
X161504166Y-113430476D01*
X161599404Y-113478095D01*
X160456547Y-113620952D02*
X160551785Y-113573333D01*
X160599404Y-113525714D01*
X160647023Y-113430476D01*
X160647023Y-113382857D01*
X160599404Y-113287619D01*
X160551785Y-113240000D01*
X160456547Y-113192380D01*
X160266071Y-113192380D01*
X160170833Y-113240000D01*
X160123214Y-113287619D01*
X160075595Y-113382857D01*
X160075595Y-113430476D01*
X160123214Y-113525714D01*
X160170833Y-113573333D01*
X160266071Y-113620952D01*
X160456547Y-113620952D01*
X160551785Y-113668571D01*
X160599404Y-113716190D01*
X160647023Y-113811428D01*
X160647023Y-114001904D01*
X160599404Y-114097142D01*
X160551785Y-114144761D01*
X160456547Y-114192380D01*
X160266071Y-114192380D01*
X160170833Y-114144761D01*
X160123214Y-114097142D01*
X160075595Y-114001904D01*
X160075595Y-113811428D01*
X160123214Y-113716190D01*
X160170833Y-113668571D01*
X160266071Y-113620952D01*
X157076190Y-86126190D02*
X157076190Y-86602380D01*
X157409523Y-85602380D02*
X157076190Y-86126190D01*
X156742857Y-85602380D01*
X155885714Y-86602380D02*
X156457142Y-86602380D01*
X156171428Y-86602380D02*
X156171428Y-85602380D01*
X156266666Y-85745238D01*
X156361904Y-85840476D01*
X156457142Y-85888095D01*
X176461904Y-87952380D02*
X176461904Y-88761904D01*
X176414285Y-88857142D01*
X176366666Y-88904761D01*
X176271428Y-88952380D01*
X176080952Y-88952380D01*
X175985714Y-88904761D01*
X175938095Y-88857142D01*
X175890476Y-88761904D01*
X175890476Y-87952380D01*
X175509523Y-87952380D02*
X174890476Y-87952380D01*
X175223809Y-88333333D01*
X175080952Y-88333333D01*
X174985714Y-88380952D01*
X174938095Y-88428571D01*
X174890476Y-88523809D01*
X174890476Y-88761904D01*
X174938095Y-88857142D01*
X174985714Y-88904761D01*
X175080952Y-88952380D01*
X175366666Y-88952380D01*
X175461904Y-88904761D01*
X175509523Y-88857142D01*
X182642857Y-93452380D02*
X182976190Y-92976190D01*
X183214285Y-93452380D02*
X183214285Y-92452380D01*
X182833333Y-92452380D01*
X182738095Y-92500000D01*
X182690476Y-92547619D01*
X182642857Y-92642857D01*
X182642857Y-92785714D01*
X182690476Y-92880952D01*
X182738095Y-92928571D01*
X182833333Y-92976190D01*
X183214285Y-92976190D01*
X181785714Y-92785714D02*
X181785714Y-93452380D01*
X182023809Y-92404761D02*
X182261904Y-93119047D01*
X181642857Y-93119047D01*
X180785714Y-92452380D02*
X181261904Y-92452380D01*
X181309523Y-92928571D01*
X181261904Y-92880952D01*
X181166666Y-92833333D01*
X180928571Y-92833333D01*
X180833333Y-92880952D01*
X180785714Y-92928571D01*
X180738095Y-93023809D01*
X180738095Y-93261904D01*
X180785714Y-93357142D01*
X180833333Y-93404761D01*
X180928571Y-93452380D01*
X181166666Y-93452380D01*
X181261904Y-93404761D01*
X181309523Y-93357142D01*
X183330357Y-87522380D02*
X183663690Y-87046190D01*
X183901785Y-87522380D02*
X183901785Y-86522380D01*
X183520833Y-86522380D01*
X183425595Y-86570000D01*
X183377976Y-86617619D01*
X183330357Y-86712857D01*
X183330357Y-86855714D01*
X183377976Y-86950952D01*
X183425595Y-86998571D01*
X183520833Y-87046190D01*
X183901785Y-87046190D01*
X182997023Y-86522380D02*
X182377976Y-86522380D01*
X182711309Y-86903333D01*
X182568452Y-86903333D01*
X182473214Y-86950952D01*
X182425595Y-86998571D01*
X182377976Y-87093809D01*
X182377976Y-87331904D01*
X182425595Y-87427142D01*
X182473214Y-87474761D01*
X182568452Y-87522380D01*
X182854166Y-87522380D01*
X182949404Y-87474761D01*
X182997023Y-87427142D01*
X181520833Y-86522380D02*
X181711309Y-86522380D01*
X181806547Y-86570000D01*
X181854166Y-86617619D01*
X181949404Y-86760476D01*
X181997023Y-86950952D01*
X181997023Y-87331904D01*
X181949404Y-87427142D01*
X181901785Y-87474761D01*
X181806547Y-87522380D01*
X181616071Y-87522380D01*
X181520833Y-87474761D01*
X181473214Y-87427142D01*
X181425595Y-87331904D01*
X181425595Y-87093809D01*
X181473214Y-86998571D01*
X181520833Y-86950952D01*
X181616071Y-86903333D01*
X181806547Y-86903333D01*
X181901785Y-86950952D01*
X181949404Y-86998571D01*
X181997023Y-87093809D01*
X105942857Y-98452380D02*
X106276190Y-97976190D01*
X106514285Y-98452380D02*
X106514285Y-97452380D01*
X106133333Y-97452380D01*
X106038095Y-97500000D01*
X105990476Y-97547619D01*
X105942857Y-97642857D01*
X105942857Y-97785714D01*
X105990476Y-97880952D01*
X106038095Y-97928571D01*
X106133333Y-97976190D01*
X106514285Y-97976190D01*
X105609523Y-97452380D02*
X104990476Y-97452380D01*
X105323809Y-97833333D01*
X105180952Y-97833333D01*
X105085714Y-97880952D01*
X105038095Y-97928571D01*
X104990476Y-98023809D01*
X104990476Y-98261904D01*
X105038095Y-98357142D01*
X105085714Y-98404761D01*
X105180952Y-98452380D01*
X105466666Y-98452380D01*
X105561904Y-98404761D01*
X105609523Y-98357142D01*
X104133333Y-97785714D02*
X104133333Y-98452380D01*
X104371428Y-97404761D02*
X104609523Y-98119047D01*
X103990476Y-98119047D01*
X182242857Y-90322380D02*
X182576190Y-89846190D01*
X182814285Y-90322380D02*
X182814285Y-89322380D01*
X182433333Y-89322380D01*
X182338095Y-89370000D01*
X182290476Y-89417619D01*
X182242857Y-89512857D01*
X182242857Y-89655714D01*
X182290476Y-89750952D01*
X182338095Y-89798571D01*
X182433333Y-89846190D01*
X182814285Y-89846190D01*
X181385714Y-89655714D02*
X181385714Y-90322380D01*
X181623809Y-89274761D02*
X181861904Y-89989047D01*
X181242857Y-89989047D01*
X180433333Y-89655714D02*
X180433333Y-90322380D01*
X180671428Y-89274761D02*
X180909523Y-89989047D01*
X180290476Y-89989047D01*
X165992857Y-93052380D02*
X166326190Y-92576190D01*
X166564285Y-93052380D02*
X166564285Y-92052380D01*
X166183333Y-92052380D01*
X166088095Y-92100000D01*
X166040476Y-92147619D01*
X165992857Y-92242857D01*
X165992857Y-92385714D01*
X166040476Y-92480952D01*
X166088095Y-92528571D01*
X166183333Y-92576190D01*
X166564285Y-92576190D01*
X165135714Y-92385714D02*
X165135714Y-93052380D01*
X165373809Y-92004761D02*
X165611904Y-92719047D01*
X164992857Y-92719047D01*
X164659523Y-92147619D02*
X164611904Y-92100000D01*
X164516666Y-92052380D01*
X164278571Y-92052380D01*
X164183333Y-92100000D01*
X164135714Y-92147619D01*
X164088095Y-92242857D01*
X164088095Y-92338095D01*
X164135714Y-92480952D01*
X164707142Y-93052380D01*
X164088095Y-93052380D01*
X166042857Y-95202380D02*
X166376190Y-94726190D01*
X166614285Y-95202380D02*
X166614285Y-94202380D01*
X166233333Y-94202380D01*
X166138095Y-94250000D01*
X166090476Y-94297619D01*
X166042857Y-94392857D01*
X166042857Y-94535714D01*
X166090476Y-94630952D01*
X166138095Y-94678571D01*
X166233333Y-94726190D01*
X166614285Y-94726190D01*
X165709523Y-94202380D02*
X165090476Y-94202380D01*
X165423809Y-94583333D01*
X165280952Y-94583333D01*
X165185714Y-94630952D01*
X165138095Y-94678571D01*
X165090476Y-94773809D01*
X165090476Y-95011904D01*
X165138095Y-95107142D01*
X165185714Y-95154761D01*
X165280952Y-95202380D01*
X165566666Y-95202380D01*
X165661904Y-95154761D01*
X165709523Y-95107142D01*
X164519047Y-94630952D02*
X164614285Y-94583333D01*
X164661904Y-94535714D01*
X164709523Y-94440476D01*
X164709523Y-94392857D01*
X164661904Y-94297619D01*
X164614285Y-94250000D01*
X164519047Y-94202380D01*
X164328571Y-94202380D01*
X164233333Y-94250000D01*
X164185714Y-94297619D01*
X164138095Y-94392857D01*
X164138095Y-94440476D01*
X164185714Y-94535714D01*
X164233333Y-94583333D01*
X164328571Y-94630952D01*
X164519047Y-94630952D01*
X164614285Y-94678571D01*
X164661904Y-94726190D01*
X164709523Y-94821428D01*
X164709523Y-95011904D01*
X164661904Y-95107142D01*
X164614285Y-95154761D01*
X164519047Y-95202380D01*
X164328571Y-95202380D01*
X164233333Y-95154761D01*
X164185714Y-95107142D01*
X164138095Y-95011904D01*
X164138095Y-94821428D01*
X164185714Y-94726190D01*
X164233333Y-94678571D01*
X164328571Y-94630952D01*
X165992857Y-90752380D02*
X166326190Y-90276190D01*
X166564285Y-90752380D02*
X166564285Y-89752380D01*
X166183333Y-89752380D01*
X166088095Y-89800000D01*
X166040476Y-89847619D01*
X165992857Y-89942857D01*
X165992857Y-90085714D01*
X166040476Y-90180952D01*
X166088095Y-90228571D01*
X166183333Y-90276190D01*
X166564285Y-90276190D01*
X165659523Y-89752380D02*
X165040476Y-89752380D01*
X165373809Y-90133333D01*
X165230952Y-90133333D01*
X165135714Y-90180952D01*
X165088095Y-90228571D01*
X165040476Y-90323809D01*
X165040476Y-90561904D01*
X165088095Y-90657142D01*
X165135714Y-90704761D01*
X165230952Y-90752380D01*
X165516666Y-90752380D01*
X165611904Y-90704761D01*
X165659523Y-90657142D01*
X164707142Y-89752380D02*
X164040476Y-89752380D01*
X164469047Y-90752380D01*
X181912857Y-114162380D02*
X182246190Y-113686190D01*
X182484285Y-114162380D02*
X182484285Y-113162380D01*
X182103333Y-113162380D01*
X182008095Y-113210000D01*
X181960476Y-113257619D01*
X181912857Y-113352857D01*
X181912857Y-113495714D01*
X181960476Y-113590952D01*
X182008095Y-113638571D01*
X182103333Y-113686190D01*
X182484285Y-113686190D01*
X180960476Y-114162380D02*
X181531904Y-114162380D01*
X181246190Y-114162380D02*
X181246190Y-113162380D01*
X181341428Y-113305238D01*
X181436666Y-113400476D01*
X181531904Y-113448095D01*
X180627142Y-113162380D02*
X179960476Y-113162380D01*
X180389047Y-114162380D01*
X184432857Y-72042380D02*
X184766190Y-71566190D01*
X185004285Y-72042380D02*
X185004285Y-71042380D01*
X184623333Y-71042380D01*
X184528095Y-71090000D01*
X184480476Y-71137619D01*
X184432857Y-71232857D01*
X184432857Y-71375714D01*
X184480476Y-71470952D01*
X184528095Y-71518571D01*
X184623333Y-71566190D01*
X185004285Y-71566190D01*
X183480476Y-72042380D02*
X184051904Y-72042380D01*
X183766190Y-72042380D02*
X183766190Y-71042380D01*
X183861428Y-71185238D01*
X183956666Y-71280476D01*
X184051904Y-71328095D01*
X182623333Y-71042380D02*
X182813809Y-71042380D01*
X182909047Y-71090000D01*
X182956666Y-71137619D01*
X183051904Y-71280476D01*
X183099523Y-71470952D01*
X183099523Y-71851904D01*
X183051904Y-71947142D01*
X183004285Y-71994761D01*
X182909047Y-72042380D01*
X182718571Y-72042380D01*
X182623333Y-71994761D01*
X182575714Y-71947142D01*
X182528095Y-71851904D01*
X182528095Y-71613809D01*
X182575714Y-71518571D01*
X182623333Y-71470952D01*
X182718571Y-71423333D01*
X182909047Y-71423333D01*
X183004285Y-71470952D01*
X183051904Y-71518571D01*
X183099523Y-71613809D01*
X189442857Y-72042380D02*
X189776190Y-71566190D01*
X190014285Y-72042380D02*
X190014285Y-71042380D01*
X189633333Y-71042380D01*
X189538095Y-71090000D01*
X189490476Y-71137619D01*
X189442857Y-71232857D01*
X189442857Y-71375714D01*
X189490476Y-71470952D01*
X189538095Y-71518571D01*
X189633333Y-71566190D01*
X190014285Y-71566190D01*
X188490476Y-72042380D02*
X189061904Y-72042380D01*
X188776190Y-72042380D02*
X188776190Y-71042380D01*
X188871428Y-71185238D01*
X188966666Y-71280476D01*
X189061904Y-71328095D01*
X187585714Y-71042380D02*
X188061904Y-71042380D01*
X188109523Y-71518571D01*
X188061904Y-71470952D01*
X187966666Y-71423333D01*
X187728571Y-71423333D01*
X187633333Y-71470952D01*
X187585714Y-71518571D01*
X187538095Y-71613809D01*
X187538095Y-71851904D01*
X187585714Y-71947142D01*
X187633333Y-71994761D01*
X187728571Y-72042380D01*
X187966666Y-72042380D01*
X188061904Y-71994761D01*
X188109523Y-71947142D01*
X164552857Y-72042380D02*
X164886190Y-71566190D01*
X165124285Y-72042380D02*
X165124285Y-71042380D01*
X164743333Y-71042380D01*
X164648095Y-71090000D01*
X164600476Y-71137619D01*
X164552857Y-71232857D01*
X164552857Y-71375714D01*
X164600476Y-71470952D01*
X164648095Y-71518571D01*
X164743333Y-71566190D01*
X165124285Y-71566190D01*
X163600476Y-72042380D02*
X164171904Y-72042380D01*
X163886190Y-72042380D02*
X163886190Y-71042380D01*
X163981428Y-71185238D01*
X164076666Y-71280476D01*
X164171904Y-71328095D01*
X162648095Y-72042380D02*
X163219523Y-72042380D01*
X162933809Y-72042380D02*
X162933809Y-71042380D01*
X163029047Y-71185238D01*
X163124285Y-71280476D01*
X163219523Y-71328095D01*
X169442857Y-72042380D02*
X169776190Y-71566190D01*
X170014285Y-72042380D02*
X170014285Y-71042380D01*
X169633333Y-71042380D01*
X169538095Y-71090000D01*
X169490476Y-71137619D01*
X169442857Y-71232857D01*
X169442857Y-71375714D01*
X169490476Y-71470952D01*
X169538095Y-71518571D01*
X169633333Y-71566190D01*
X170014285Y-71566190D01*
X168490476Y-72042380D02*
X169061904Y-72042380D01*
X168776190Y-72042380D02*
X168776190Y-71042380D01*
X168871428Y-71185238D01*
X168966666Y-71280476D01*
X169061904Y-71328095D01*
X167871428Y-71042380D02*
X167776190Y-71042380D01*
X167680952Y-71090000D01*
X167633333Y-71137619D01*
X167585714Y-71232857D01*
X167538095Y-71423333D01*
X167538095Y-71661428D01*
X167585714Y-71851904D01*
X167633333Y-71947142D01*
X167680952Y-71994761D01*
X167776190Y-72042380D01*
X167871428Y-72042380D01*
X167966666Y-71994761D01*
X168014285Y-71947142D01*
X168061904Y-71851904D01*
X168109523Y-71661428D01*
X168109523Y-71423333D01*
X168061904Y-71232857D01*
X168014285Y-71137619D01*
X167966666Y-71090000D01*
X167871428Y-71042380D01*
X173916666Y-72042380D02*
X174250000Y-71566190D01*
X174488095Y-72042380D02*
X174488095Y-71042380D01*
X174107142Y-71042380D01*
X174011904Y-71090000D01*
X173964285Y-71137619D01*
X173916666Y-71232857D01*
X173916666Y-71375714D01*
X173964285Y-71470952D01*
X174011904Y-71518571D01*
X174107142Y-71566190D01*
X174488095Y-71566190D01*
X173440476Y-72042380D02*
X173250000Y-72042380D01*
X173154761Y-71994761D01*
X173107142Y-71947142D01*
X173011904Y-71804285D01*
X172964285Y-71613809D01*
X172964285Y-71232857D01*
X173011904Y-71137619D01*
X173059523Y-71090000D01*
X173154761Y-71042380D01*
X173345238Y-71042380D01*
X173440476Y-71090000D01*
X173488095Y-71137619D01*
X173535714Y-71232857D01*
X173535714Y-71470952D01*
X173488095Y-71566190D01*
X173440476Y-71613809D01*
X173345238Y-71661428D01*
X173154761Y-71661428D01*
X173059523Y-71613809D01*
X173011904Y-71566190D01*
X172964285Y-71470952D01*
X178976666Y-72042380D02*
X179310000Y-71566190D01*
X179548095Y-72042380D02*
X179548095Y-71042380D01*
X179167142Y-71042380D01*
X179071904Y-71090000D01*
X179024285Y-71137619D01*
X178976666Y-71232857D01*
X178976666Y-71375714D01*
X179024285Y-71470952D01*
X179071904Y-71518571D01*
X179167142Y-71566190D01*
X179548095Y-71566190D01*
X178405238Y-71470952D02*
X178500476Y-71423333D01*
X178548095Y-71375714D01*
X178595714Y-71280476D01*
X178595714Y-71232857D01*
X178548095Y-71137619D01*
X178500476Y-71090000D01*
X178405238Y-71042380D01*
X178214761Y-71042380D01*
X178119523Y-71090000D01*
X178071904Y-71137619D01*
X178024285Y-71232857D01*
X178024285Y-71280476D01*
X178071904Y-71375714D01*
X178119523Y-71423333D01*
X178214761Y-71470952D01*
X178405238Y-71470952D01*
X178500476Y-71518571D01*
X178548095Y-71566190D01*
X178595714Y-71661428D01*
X178595714Y-71851904D01*
X178548095Y-71947142D01*
X178500476Y-71994761D01*
X178405238Y-72042380D01*
X178214761Y-72042380D01*
X178119523Y-71994761D01*
X178071904Y-71947142D01*
X178024285Y-71851904D01*
X178024285Y-71661428D01*
X178071904Y-71566190D01*
X178119523Y-71518571D01*
X178214761Y-71470952D01*
X176566666Y-114152380D02*
X176900000Y-113676190D01*
X177138095Y-114152380D02*
X177138095Y-113152380D01*
X176757142Y-113152380D01*
X176661904Y-113200000D01*
X176614285Y-113247619D01*
X176566666Y-113342857D01*
X176566666Y-113485714D01*
X176614285Y-113580952D01*
X176661904Y-113628571D01*
X176757142Y-113676190D01*
X177138095Y-113676190D01*
X176233333Y-113152380D02*
X175566666Y-113152380D01*
X175995238Y-114152380D01*
X166466666Y-114222380D02*
X166800000Y-113746190D01*
X167038095Y-114222380D02*
X167038095Y-113222380D01*
X166657142Y-113222380D01*
X166561904Y-113270000D01*
X166514285Y-113317619D01*
X166466666Y-113412857D01*
X166466666Y-113555714D01*
X166514285Y-113650952D01*
X166561904Y-113698571D01*
X166657142Y-113746190D01*
X167038095Y-113746190D01*
X165609523Y-113222380D02*
X165800000Y-113222380D01*
X165895238Y-113270000D01*
X165942857Y-113317619D01*
X166038095Y-113460476D01*
X166085714Y-113650952D01*
X166085714Y-114031904D01*
X166038095Y-114127142D01*
X165990476Y-114174761D01*
X165895238Y-114222380D01*
X165704761Y-114222380D01*
X165609523Y-114174761D01*
X165561904Y-114127142D01*
X165514285Y-114031904D01*
X165514285Y-113793809D01*
X165561904Y-113698571D01*
X165609523Y-113650952D01*
X165704761Y-113603333D01*
X165895238Y-113603333D01*
X165990476Y-113650952D01*
X166038095Y-113698571D01*
X166085714Y-113793809D01*
X121466666Y-114252380D02*
X121800000Y-113776190D01*
X122038095Y-114252380D02*
X122038095Y-113252380D01*
X121657142Y-113252380D01*
X121561904Y-113300000D01*
X121514285Y-113347619D01*
X121466666Y-113442857D01*
X121466666Y-113585714D01*
X121514285Y-113680952D01*
X121561904Y-113728571D01*
X121657142Y-113776190D01*
X122038095Y-113776190D01*
X120561904Y-113252380D02*
X121038095Y-113252380D01*
X121085714Y-113728571D01*
X121038095Y-113680952D01*
X120942857Y-113633333D01*
X120704761Y-113633333D01*
X120609523Y-113680952D01*
X120561904Y-113728571D01*
X120514285Y-113823809D01*
X120514285Y-114061904D01*
X120561904Y-114157142D01*
X120609523Y-114204761D01*
X120704761Y-114252380D01*
X120942857Y-114252380D01*
X121038095Y-114204761D01*
X121085714Y-114157142D01*
X116366666Y-114152380D02*
X116700000Y-113676190D01*
X116938095Y-114152380D02*
X116938095Y-113152380D01*
X116557142Y-113152380D01*
X116461904Y-113200000D01*
X116414285Y-113247619D01*
X116366666Y-113342857D01*
X116366666Y-113485714D01*
X116414285Y-113580952D01*
X116461904Y-113628571D01*
X116557142Y-113676190D01*
X116938095Y-113676190D01*
X115509523Y-113485714D02*
X115509523Y-114152380D01*
X115747619Y-113104761D02*
X115985714Y-113819047D01*
X115366666Y-113819047D01*
X111349166Y-114252380D02*
X111682500Y-113776190D01*
X111920595Y-114252380D02*
X111920595Y-113252380D01*
X111539642Y-113252380D01*
X111444404Y-113300000D01*
X111396785Y-113347619D01*
X111349166Y-113442857D01*
X111349166Y-113585714D01*
X111396785Y-113680952D01*
X111444404Y-113728571D01*
X111539642Y-113776190D01*
X111920595Y-113776190D01*
X111015833Y-113252380D02*
X110396785Y-113252380D01*
X110730119Y-113633333D01*
X110587261Y-113633333D01*
X110492023Y-113680952D01*
X110444404Y-113728571D01*
X110396785Y-113823809D01*
X110396785Y-114061904D01*
X110444404Y-114157142D01*
X110492023Y-114204761D01*
X110587261Y-114252380D01*
X110872976Y-114252380D01*
X110968214Y-114204761D01*
X111015833Y-114157142D01*
X106316666Y-114252380D02*
X106650000Y-113776190D01*
X106888095Y-114252380D02*
X106888095Y-113252380D01*
X106507142Y-113252380D01*
X106411904Y-113300000D01*
X106364285Y-113347619D01*
X106316666Y-113442857D01*
X106316666Y-113585714D01*
X106364285Y-113680952D01*
X106411904Y-113728571D01*
X106507142Y-113776190D01*
X106888095Y-113776190D01*
X105935714Y-113347619D02*
X105888095Y-113300000D01*
X105792857Y-113252380D01*
X105554761Y-113252380D01*
X105459523Y-113300000D01*
X105411904Y-113347619D01*
X105364285Y-113442857D01*
X105364285Y-113538095D01*
X105411904Y-113680952D01*
X105983333Y-114252380D01*
X105364285Y-114252380D01*
X164816666Y-99352380D02*
X165150000Y-98876190D01*
X165388095Y-99352380D02*
X165388095Y-98352380D01*
X165007142Y-98352380D01*
X164911904Y-98400000D01*
X164864285Y-98447619D01*
X164816666Y-98542857D01*
X164816666Y-98685714D01*
X164864285Y-98780952D01*
X164911904Y-98828571D01*
X165007142Y-98876190D01*
X165388095Y-98876190D01*
X163864285Y-99352380D02*
X164435714Y-99352380D01*
X164150000Y-99352380D02*
X164150000Y-98352380D01*
X164245238Y-98495238D01*
X164340476Y-98590476D01*
X164435714Y-98638095D01*
X197088095Y-83652380D02*
X197088095Y-84366666D01*
X197135714Y-84509523D01*
X197230952Y-84604761D01*
X197373809Y-84652380D01*
X197469047Y-84652380D01*
X196754761Y-83652380D02*
X196421428Y-84652380D01*
X196088095Y-83652380D01*
X195802380Y-84604761D02*
X195659523Y-84652380D01*
X195421428Y-84652380D01*
X195326190Y-84604761D01*
X195278571Y-84557142D01*
X195230952Y-84461904D01*
X195230952Y-84366666D01*
X195278571Y-84271428D01*
X195326190Y-84223809D01*
X195421428Y-84176190D01*
X195611904Y-84128571D01*
X195707142Y-84080952D01*
X195754761Y-84033333D01*
X195802380Y-83938095D01*
X195802380Y-83842857D01*
X195754761Y-83747619D01*
X195707142Y-83700000D01*
X195611904Y-83652380D01*
X195373809Y-83652380D01*
X195230952Y-83700000D01*
X194278571Y-84652380D02*
X194850000Y-84652380D01*
X194564285Y-84652380D02*
X194564285Y-83652380D01*
X194659523Y-83795238D01*
X194754761Y-83890476D01*
X194850000Y-83938095D01*
X114852857Y-85757142D02*
X114900476Y-85804761D01*
X115043333Y-85852380D01*
X115138571Y-85852380D01*
X115281428Y-85804761D01*
X115376666Y-85709523D01*
X115424285Y-85614285D01*
X115471904Y-85423809D01*
X115471904Y-85280952D01*
X115424285Y-85090476D01*
X115376666Y-84995238D01*
X115281428Y-84900000D01*
X115138571Y-84852380D01*
X115043333Y-84852380D01*
X114900476Y-84900000D01*
X114852857Y-84947619D01*
X113900476Y-85852380D02*
X114471904Y-85852380D01*
X114186190Y-85852380D02*
X114186190Y-84852380D01*
X114281428Y-84995238D01*
X114376666Y-85090476D01*
X114471904Y-85138095D01*
X113281428Y-84852380D02*
X113186190Y-84852380D01*
X113090952Y-84900000D01*
X113043333Y-84947619D01*
X112995714Y-85042857D01*
X112948095Y-85233333D01*
X112948095Y-85471428D01*
X112995714Y-85661904D01*
X113043333Y-85757142D01*
X113090952Y-85804761D01*
X113186190Y-85852380D01*
X113281428Y-85852380D01*
X113376666Y-85804761D01*
X113424285Y-85757142D01*
X113471904Y-85661904D01*
X113519523Y-85471428D01*
X113519523Y-85233333D01*
X113471904Y-85042857D01*
X113424285Y-84947619D01*
X113376666Y-84900000D01*
X113281428Y-84852380D01*
X107277142Y-94933333D02*
X107324761Y-94885714D01*
X107372380Y-94742857D01*
X107372380Y-94647619D01*
X107324761Y-94504761D01*
X107229523Y-94409523D01*
X107134285Y-94361904D01*
X106943809Y-94314285D01*
X106800952Y-94314285D01*
X106610476Y-94361904D01*
X106515238Y-94409523D01*
X106420000Y-94504761D01*
X106372380Y-94647619D01*
X106372380Y-94742857D01*
X106420000Y-94885714D01*
X106467619Y-94933333D01*
X107372380Y-95409523D02*
X107372380Y-95600000D01*
X107324761Y-95695238D01*
X107277142Y-95742857D01*
X107134285Y-95838095D01*
X106943809Y-95885714D01*
X106562857Y-95885714D01*
X106467619Y-95838095D01*
X106420000Y-95790476D01*
X106372380Y-95695238D01*
X106372380Y-95504761D01*
X106420000Y-95409523D01*
X106467619Y-95361904D01*
X106562857Y-95314285D01*
X106800952Y-95314285D01*
X106896190Y-95361904D01*
X106943809Y-95409523D01*
X106991428Y-95504761D01*
X106991428Y-95695238D01*
X106943809Y-95790476D01*
X106896190Y-95838095D01*
X106800952Y-95885714D01*
X178442857Y-97757142D02*
X178490476Y-97804761D01*
X178633333Y-97852380D01*
X178728571Y-97852380D01*
X178871428Y-97804761D01*
X178966666Y-97709523D01*
X179014285Y-97614285D01*
X179061904Y-97423809D01*
X179061904Y-97280952D01*
X179014285Y-97090476D01*
X178966666Y-96995238D01*
X178871428Y-96900000D01*
X178728571Y-96852380D01*
X178633333Y-96852380D01*
X178490476Y-96900000D01*
X178442857Y-96947619D01*
X177490476Y-97852380D02*
X178061904Y-97852380D01*
X177776190Y-97852380D02*
X177776190Y-96852380D01*
X177871428Y-96995238D01*
X177966666Y-97090476D01*
X178061904Y-97138095D01*
X176538095Y-97852380D02*
X177109523Y-97852380D01*
X176823809Y-97852380D02*
X176823809Y-96852380D01*
X176919047Y-96995238D01*
X177014285Y-97090476D01*
X177109523Y-97138095D01*
X154866666Y-88648075D02*
X154914285Y-88695694D01*
X155057142Y-88743313D01*
X155152380Y-88743313D01*
X155295238Y-88695694D01*
X155390476Y-88600456D01*
X155438095Y-88505218D01*
X155485714Y-88314742D01*
X155485714Y-88171885D01*
X155438095Y-87981409D01*
X155390476Y-87886171D01*
X155295238Y-87790933D01*
X155152380Y-87743313D01*
X155057142Y-87743313D01*
X154914285Y-87790933D01*
X154866666Y-87838552D01*
X154009523Y-87743313D02*
X154200000Y-87743313D01*
X154295238Y-87790933D01*
X154342857Y-87838552D01*
X154438095Y-87981409D01*
X154485714Y-88171885D01*
X154485714Y-88552837D01*
X154438095Y-88648075D01*
X154390476Y-88695694D01*
X154295238Y-88743313D01*
X154104761Y-88743313D01*
X154009523Y-88695694D01*
X153961904Y-88648075D01*
X153914285Y-88552837D01*
X153914285Y-88314742D01*
X153961904Y-88219504D01*
X154009523Y-88171885D01*
X154104761Y-88124266D01*
X154295238Y-88124266D01*
X154390476Y-88171885D01*
X154438095Y-88219504D01*
X154485714Y-88314742D01*
X166357142Y-83033333D02*
X166404761Y-82985714D01*
X166452380Y-82842857D01*
X166452380Y-82747619D01*
X166404761Y-82604761D01*
X166309523Y-82509523D01*
X166214285Y-82461904D01*
X166023809Y-82414285D01*
X165880952Y-82414285D01*
X165690476Y-82461904D01*
X165595238Y-82509523D01*
X165500000Y-82604761D01*
X165452380Y-82747619D01*
X165452380Y-82842857D01*
X165500000Y-82985714D01*
X165547619Y-83033333D01*
X165452380Y-83366666D02*
X165452380Y-84033333D01*
X166452380Y-83604761D01*
X147757142Y-81533333D02*
X147804761Y-81485714D01*
X147852380Y-81342857D01*
X147852380Y-81247619D01*
X147804761Y-81104761D01*
X147709523Y-81009523D01*
X147614285Y-80961904D01*
X147423809Y-80914285D01*
X147280952Y-80914285D01*
X147090476Y-80961904D01*
X146995238Y-81009523D01*
X146900000Y-81104761D01*
X146852380Y-81247619D01*
X146852380Y-81342857D01*
X146900000Y-81485714D01*
X146947619Y-81533333D01*
X147280952Y-82104761D02*
X147233333Y-82009523D01*
X147185714Y-81961904D01*
X147090476Y-81914285D01*
X147042857Y-81914285D01*
X146947619Y-81961904D01*
X146900000Y-82009523D01*
X146852380Y-82104761D01*
X146852380Y-82295238D01*
X146900000Y-82390476D01*
X146947619Y-82438095D01*
X147042857Y-82485714D01*
X147090476Y-82485714D01*
X147185714Y-82438095D01*
X147233333Y-82390476D01*
X147280952Y-82295238D01*
X147280952Y-82104761D01*
X147328571Y-82009523D01*
X147376190Y-81961904D01*
X147471428Y-81914285D01*
X147661904Y-81914285D01*
X147757142Y-81961904D01*
X147804761Y-82009523D01*
X147852380Y-82104761D01*
X147852380Y-82295238D01*
X147804761Y-82390476D01*
X147757142Y-82438095D01*
X147661904Y-82485714D01*
X147471428Y-82485714D01*
X147376190Y-82438095D01*
X147328571Y-82390476D01*
X147280952Y-82295238D01*
X135376475Y-89759226D02*
X135376475Y-89826569D01*
X135443819Y-89961256D01*
X135511163Y-90028600D01*
X135645850Y-90095943D01*
X135780537Y-90095943D01*
X135881552Y-90062272D01*
X136049911Y-89961256D01*
X136150926Y-89860241D01*
X136251941Y-89691882D01*
X136285613Y-89590867D01*
X136285613Y-89456180D01*
X136218269Y-89321493D01*
X136150926Y-89254149D01*
X136016239Y-89186806D01*
X135948895Y-89186806D01*
X135780537Y-88883760D02*
X135342804Y-88446027D01*
X135309132Y-88951104D01*
X135208117Y-88850088D01*
X135107101Y-88816417D01*
X135039758Y-88816417D01*
X134938743Y-88850088D01*
X134770384Y-89018447D01*
X134736712Y-89119462D01*
X134736712Y-89186806D01*
X134770384Y-89287821D01*
X134972414Y-89489852D01*
X135073430Y-89523524D01*
X135140773Y-89523524D01*
X143454149Y-102381552D02*
X143454149Y-102448895D01*
X143521493Y-102583582D01*
X143588837Y-102650926D01*
X143723524Y-102718269D01*
X143858211Y-102718269D01*
X143959226Y-102684598D01*
X144127585Y-102583582D01*
X144228600Y-102482567D01*
X144329615Y-102314208D01*
X144363287Y-102213193D01*
X144363287Y-102078506D01*
X144295943Y-101943819D01*
X144228600Y-101876475D01*
X144093913Y-101809132D01*
X144026569Y-101809132D01*
X143757195Y-101539758D02*
X143757195Y-101472414D01*
X143723524Y-101371399D01*
X143555165Y-101203040D01*
X143454149Y-101169369D01*
X143386806Y-101169369D01*
X143285791Y-101203040D01*
X143218447Y-101270384D01*
X143151104Y-101405071D01*
X143151104Y-102213193D01*
X142713371Y-101775460D01*
M02*
