M48
; DRILL file {KiCad (5.1.4)-1} date 11/03/2020 19:41:49
; FORMAT={-:-/ absolute / inch / decimal}
; #@! TF.CreationDate,2020-03-11T19:41:49+01:00
; #@! TF.GenerationSoftware,Kicad,Pcbnew,(5.1.4)-1
; #@! TF.FileFunction,Plated,1,2,PTH
FMAT,2
INCH
T1C0.0157
T2C0.0236
T3C0.0315
T4C0.0362
T5C0.0394
T6C0.0591
T7C0.0906
%
G90
G05
T1
X3.624Y-3.2303
X3.7087Y-2.7598
X3.7441Y-3.9783
X3.8878Y-4.3898
X3.9508Y-2.7539
X3.9606Y-3.2165
X4.0492Y-4.0827
X4.0512Y-3.9173
X4.0984Y-4.4035
X4.1634Y-3.3681
X4.189Y-2.7598
X4.2323Y-3.1437
X4.2539Y-4.0886
X4.2638Y-3.6033
X4.2638Y-3.6447
X4.2795Y-3.9134
X4.2874Y-4.4055
X4.311Y-2.7126
X4.3366Y-3.8583
X4.3504Y-3.4213
X4.3819Y-3.1024
X4.4075Y-3.2953
X4.4705Y-4.0689
X4.4921Y-4.4055
X4.5276Y-2.6969
X4.5689Y-3.8268
X4.6063Y-3.2559
X4.6417Y-4.0965
X4.6732Y-3.1102
X4.6772Y-3.8307
X4.6772Y-4.4961
X4.6929Y-4.4055
X4.7165Y-2.6969
X4.7402Y-3.6122
X4.7441Y-3.6988
X4.748Y-3.3937
X4.748Y-3.7933
X4.7776Y-3.2972
X4.8268Y-3.4291
X4.8346Y-3.8327
X4.8484Y-4.1004
X4.8937Y-4.4055
X4.9094Y-2.6969
X4.9173Y-3.2087
X5.0669Y-4.1161
X5.0846Y-4.4055
X5.1063Y-2.6969
X5.1476Y-3.2028
X5.2008Y-3.5551
X5.2264Y-3.8248
X5.2402Y-3.2953
X5.2539Y-4.122
X5.2854Y-4.4055
X5.3071Y-2.6969
X5.3622Y-3.8268
X5.3701Y-3.1299
X5.3844Y-3.4621
X5.398Y-3.8431
X5.4185Y-3.4426
X5.4823Y-4.4075
X5.5Y-2.6969
X5.5039Y-4.0748
X5.5098Y-3.6299
X5.5394Y-3.5512
X5.5551Y-3.128
X5.6024Y-3.5236
X5.6142Y-3.9528
X5.6378Y-3.4803
X5.6772Y-3.7874
X5.6791Y-4.4055
X5.6969Y-2.6969
X5.7165Y-3.1614
X5.7205Y-4.0866
X5.7362Y-3.2559
X5.752Y-3.4606
X5.7677Y-3.5
X5.7854Y-3.7008
X5.7913Y-3.5709
X5.8268Y-3.6102
X5.8622Y-3.6457
X5.8622Y-4.1043
X5.8701Y-4.4055
X5.8937Y-2.6969
X5.9491Y-3.4727
X5.9961Y-4.1161
X6.0079Y-3.5315
X6.0354Y-3.8898
X6.0709Y-4.4055
X6.0906Y-2.6969
X6.1693Y-3.9528
X6.2598Y-3.8583
X6.2638Y-4.4055
X6.2874Y-2.6969
X6.3504Y-3.1004
X6.4016Y-3.8268
X6.4094Y-3.5669
X6.4665Y-4.4055
X6.4843Y-2.6969
X6.6594Y-4.4055
X6.6772Y-2.6969
X6.7206Y-3.5424
X6.7441Y-3.1004
X6.748Y-3.6417
X6.8051Y-3.8169
X6.8189Y-4.122
X6.8642Y-4.4055
X6.8701Y-2.6969
X6.8937Y-3.6929
X6.9193Y-3.2441
X7.0197Y-4.1181
X7.0531Y-4.4075
X7.0709Y-2.6969
X7.1142Y-3.4843
X7.1142Y-3.7618
X7.1791Y-3.1181
X7.2559Y-3.9724
X7.2618Y-4.4902
X7.2677Y-2.6969
X7.2756Y-4.3287
X7.4409Y-4.4862
X7.4449Y-4.0236
X7.4646Y-2.6969
X7.5689Y-2.9606
X7.5906Y-4.3248
X7.6161Y-3.1004
X7.6949Y-4.0039
X7.7165Y-3.6201
X7.7677Y-3.0157
T2
X5.1655Y-3.7327
X5.3465Y-3.6575
X7.0374Y-3.8957
T3
X3.9921Y-3.5039
X7.8091Y-4.2736
T4
X7.3752Y-3.4835
X7.3752Y-3.5819
X7.3752Y-3.6606
X7.3752Y-3.7591
T5
X6.2441Y-3.5512
X6.2441Y-3.6512
X6.2441Y-3.7512
X4.9646Y-3.4205
X4.9646Y-3.5205
X4.9646Y-3.6205
X4.9646Y-3.7205
X4.9646Y-3.8205
T6
X4.0138Y-4.7303
X4.2106Y-4.7303
X4.4075Y-4.7303
X4.6043Y-4.7303
X4.8012Y-4.7303
X4.998Y-4.7303
X5.1949Y-4.7303
X5.3917Y-4.7303
X5.5886Y-4.7303
X5.7854Y-4.7303
X5.9823Y-4.7303
X6.1791Y-4.7303
X6.376Y-4.7303
X6.5728Y-4.7303
X6.7697Y-4.7303
X6.9665Y-4.7303
X7.1634Y-4.7303
X7.3602Y-4.7303
X4.0177Y-2.5098
X4.2146Y-2.5098
X4.4114Y-2.5098
X4.6083Y-2.5098
X4.8051Y-2.5098
X5.002Y-2.5098
X5.1988Y-2.5098
X5.3957Y-2.5098
X5.5925Y-2.5098
X5.7894Y-2.5098
X5.9862Y-2.5098
X6.1831Y-2.5098
X6.3799Y-2.5098
X6.5768Y-2.5098
X6.7736Y-2.5098
X6.9705Y-2.5098
X7.1673Y-2.5098
X7.3642Y-2.5098
T7
X7.4819Y-3.3626
X7.4819Y-3.8799
T0
M30
