G04 #@! TF.GenerationSoftware,KiCad,Pcbnew,(5.1.4)-1*
G04 #@! TF.CreationDate,2020-03-11T19:41:45+01:00*
G04 #@! TF.ProjectId,Jopen,4a6f7065-6e2e-46b6-9963-61645f706362,rev?*
G04 #@! TF.SameCoordinates,Original*
G04 #@! TF.FileFunction,Copper,L1,Top*
G04 #@! TF.FilePolarity,Positive*
%FSLAX46Y46*%
G04 Gerber Fmt 4.6, Leading zero omitted, Abs format (unit mm)*
G04 Created by KiCad (PCBNEW (5.1.4)-1) date 2020-03-11 19:41:45*
%MOMM*%
%LPD*%
G04 APERTURE LIST*
%ADD10O,1.700000X1.700000*%
%ADD11R,1.700000X1.700000*%
%ADD12C,2.250000*%
%ADD13R,2.250000X2.250000*%
%ADD14C,1.600000*%
%ADD15R,1.600000X1.600000*%
%ADD16C,3.000000*%
%ADD17C,0.800000*%
%ADD18C,1.200000*%
%ADD19C,1.000000*%
%ADD20C,0.250000*%
%ADD21C,0.500000*%
%ADD22C,0.300000*%
%ADD23C,0.200000*%
G04 APERTURE END LIST*
D10*
X126100000Y-97040000D03*
X126100000Y-94500000D03*
X126100000Y-91960000D03*
X126100000Y-89420000D03*
D11*
X126100000Y-86880000D03*
D12*
X101950000Y-120150000D03*
X106950000Y-120150000D03*
X111950000Y-120150000D03*
X116950000Y-120150000D03*
X121950000Y-120150000D03*
X126950000Y-120150000D03*
X131950000Y-120150000D03*
X136950000Y-120150000D03*
X141950000Y-120150000D03*
X146950000Y-120150000D03*
X151950000Y-120150000D03*
X156950000Y-120150000D03*
X161950000Y-120150000D03*
X166950000Y-120150000D03*
X171950000Y-120150000D03*
X176950000Y-120150000D03*
X181950000Y-120150000D03*
D13*
X186950000Y-120150000D03*
D12*
X102050000Y-63750000D03*
X107050000Y-63750000D03*
X112050000Y-63750000D03*
X117050000Y-63750000D03*
X122050000Y-63750000D03*
X127050000Y-63750000D03*
X132050000Y-63750000D03*
X137050000Y-63750000D03*
X142050000Y-63750000D03*
X147050000Y-63750000D03*
X152050000Y-63750000D03*
X157050000Y-63750000D03*
X162050000Y-63750000D03*
X167050000Y-63750000D03*
X172050000Y-63750000D03*
X177050000Y-63750000D03*
X182050000Y-63750000D03*
D13*
X187050000Y-63750000D03*
D10*
X158600000Y-95280000D03*
X158600000Y-92740000D03*
D11*
X158600000Y-90200000D03*
D14*
X187330000Y-95480000D03*
X187330000Y-92980000D03*
X187330000Y-90980000D03*
D15*
X187330000Y-88480000D03*
D16*
X190040000Y-85410000D03*
X190040000Y-98550000D03*
D17*
X145200000Y-80300000D03*
X142300000Y-89500000D03*
X145300000Y-103800000D03*
X132100000Y-90300000D03*
X122600000Y-87100000D03*
X120600000Y-86200000D03*
X133100000Y-83700000D03*
X121350000Y-83750000D03*
X124900000Y-81500000D03*
X130750000Y-81350000D03*
X118700000Y-79000000D03*
X107500000Y-79850000D03*
X105750000Y-85550000D03*
X120400000Y-91750000D03*
X120500000Y-93950000D03*
X120600000Y-96350000D03*
X118800000Y-97300000D03*
X116050000Y-97200000D03*
X122800000Y-97350000D03*
X132750000Y-97150000D03*
X102850000Y-103700000D03*
X113550000Y-103350000D03*
X118800000Y-114200000D03*
X128700000Y-104550000D03*
X133450000Y-104700000D03*
X148900000Y-104250000D03*
X173200000Y-104700000D03*
X184300000Y-100900000D03*
X184800000Y-109950000D03*
X95100000Y-101050000D03*
X108050000Y-103850000D03*
X117900000Y-104050000D03*
X123150000Y-104150000D03*
X139800000Y-103500000D03*
X152300000Y-104550000D03*
X178300000Y-104600000D03*
X195450000Y-101700000D03*
X196000000Y-91950000D03*
X197300000Y-76600000D03*
X182350000Y-79200000D03*
X175750000Y-82400000D03*
X171300000Y-78750000D03*
X161300000Y-78750000D03*
X141100000Y-79450000D03*
X136400000Y-79500000D03*
X92050000Y-82050000D03*
X111950000Y-83700000D03*
X110150000Y-98000000D03*
X172850000Y-96950000D03*
X162800000Y-90600000D03*
X144200000Y-96200000D03*
X139950000Y-92200000D03*
X146950000Y-94000000D03*
X100600000Y-81700000D03*
X192250000Y-75200000D03*
X193450000Y-78750000D03*
X189000000Y-113950000D03*
X192800000Y-109850000D03*
X184450000Y-114050000D03*
X189100000Y-102200000D03*
D14*
X101400000Y-89000000D03*
D17*
X189600000Y-68500000D03*
X184600000Y-68500000D03*
X179600000Y-68500000D03*
X174500000Y-68500000D03*
X169600000Y-68500000D03*
X164700000Y-68500000D03*
X159700000Y-68500000D03*
X154700000Y-68500000D03*
X149700000Y-68500000D03*
X144700000Y-68500000D03*
X139700000Y-68500000D03*
X134800000Y-68500000D03*
X129700000Y-68500000D03*
X124700000Y-68500000D03*
X119800000Y-68500000D03*
X115000000Y-68500000D03*
D18*
X135800000Y-92900000D03*
D17*
X110500000Y-86900000D03*
X152600000Y-89700000D03*
X151106891Y-88206891D03*
X145700000Y-82700000D03*
X117000000Y-82700000D03*
X156700000Y-100400000D03*
X142600000Y-100400000D03*
X109500000Y-68900000D03*
X111300000Y-78800000D03*
X104100002Y-111850000D03*
X108900000Y-111899998D03*
X114100000Y-111900000D03*
X119200000Y-111900000D03*
X124300000Y-111900000D03*
X129149998Y-111900000D03*
X134250000Y-111900004D03*
X139250000Y-111950000D03*
X144250000Y-111900000D03*
X149100000Y-111899998D03*
X154200000Y-111900000D03*
X159100000Y-111900000D03*
X164250000Y-111900000D03*
X169150000Y-111899998D03*
X174350000Y-111899996D03*
X179150000Y-111949998D03*
X98750000Y-111500006D03*
D14*
X198350000Y-108550000D03*
D18*
X131202910Y-94811073D03*
D17*
X102900000Y-99500000D03*
X180700000Y-95550002D03*
X180700000Y-88500008D03*
D18*
X178750000Y-98949996D03*
D17*
X146500000Y-88900000D03*
X162600000Y-97200000D03*
X143200000Y-88400000D03*
X140700000Y-90200000D03*
X159000000Y-98000000D03*
X106400000Y-70100000D03*
X146100000Y-87900000D03*
X136762662Y-87937342D03*
X94200000Y-70100000D03*
X137631012Y-87441366D03*
X100350012Y-69949988D03*
X108700000Y-99400000D03*
X153300000Y-98800000D03*
X108300000Y-91525000D03*
X136200000Y-97200000D03*
X108300000Y-92575000D03*
X137109893Y-97614871D03*
X148000000Y-91700000D03*
X170702660Y-89977340D03*
X175100000Y-93800000D03*
X147100000Y-90700000D03*
X171400006Y-92500000D03*
X148900000Y-92600000D03*
D19*
X184600000Y-68500000D02*
X189600000Y-68500000D01*
X179600000Y-68500000D02*
X184600000Y-68500000D01*
X174500000Y-68500000D02*
X179600000Y-68500000D01*
X169600000Y-68500000D02*
X174500000Y-68500000D01*
X164700000Y-68500000D02*
X169600000Y-68500000D01*
X159700000Y-68500000D02*
X164700000Y-68500000D01*
X154700000Y-68500000D02*
X159700000Y-68500000D01*
X149700000Y-68500000D02*
X154700000Y-68500000D01*
X144700000Y-68500000D02*
X149700000Y-68500000D01*
X139700000Y-68500000D02*
X144700000Y-68500000D01*
X134800000Y-68500000D02*
X139700000Y-68500000D01*
X129700000Y-68500000D02*
X134800000Y-68500000D01*
X124700000Y-68500000D02*
X129700000Y-68500000D01*
X119800000Y-68500000D02*
X124700000Y-68500000D01*
X115000000Y-68500000D02*
X119800000Y-68500000D01*
X112100000Y-68500000D02*
X115000000Y-68500000D01*
D20*
X101400000Y-89000000D02*
X101400000Y-89565685D01*
D21*
X152600000Y-89700000D02*
X151106891Y-88206891D01*
X151106891Y-88206891D02*
X145700000Y-82800000D01*
X145700000Y-82800000D02*
X145700000Y-82700000D01*
X145600000Y-82600000D02*
X145700000Y-82700000D01*
X117000000Y-82700000D02*
X117100000Y-82600000D01*
X117100000Y-82600000D02*
X145600000Y-82600000D01*
X110500000Y-86900000D02*
X106349999Y-91050001D01*
X156134315Y-100400000D02*
X156700000Y-100400000D01*
X106349999Y-98308001D02*
X108441998Y-100400000D01*
X106349999Y-91050001D02*
X106349999Y-98308001D01*
X108441998Y-100400000D02*
X142600000Y-100400000D01*
X142600000Y-100400000D02*
X156134315Y-100400000D01*
D19*
X112100000Y-68500000D02*
X109900000Y-68500000D01*
X109900000Y-68500000D02*
X109500000Y-68900000D01*
X104100002Y-111850000D02*
X108850002Y-111850000D01*
D20*
X108850002Y-111850000D02*
X108900000Y-111899998D01*
D19*
X108900000Y-111899998D02*
X114099998Y-111899998D01*
D20*
X114099998Y-111899998D02*
X114100000Y-111900000D01*
D19*
X114100000Y-111900000D02*
X119200000Y-111900000D01*
X119200000Y-111900000D02*
X124300000Y-111900000D01*
X124300000Y-111900000D02*
X129149998Y-111900000D01*
X129149998Y-111900000D02*
X134249996Y-111900000D01*
D20*
X134249996Y-111900000D02*
X134250000Y-111900004D01*
D19*
X134250000Y-111900004D02*
X139200004Y-111900004D01*
D20*
X139200004Y-111900004D02*
X139250000Y-111950000D01*
D19*
X139250000Y-111950000D02*
X144200000Y-111950000D01*
D20*
X144200000Y-111950000D02*
X144250000Y-111900000D01*
D19*
X144250000Y-111900000D02*
X149099998Y-111900000D01*
D20*
X149099998Y-111900000D02*
X149100000Y-111899998D01*
D19*
X149100000Y-111899998D02*
X154199998Y-111899998D01*
D20*
X154199998Y-111899998D02*
X154200000Y-111900000D01*
D19*
X154200000Y-111900000D02*
X159100000Y-111900000D01*
X159100000Y-111900000D02*
X164250000Y-111900000D01*
D20*
X169149998Y-111900000D02*
X169150000Y-111899998D01*
D19*
X164250000Y-111900000D02*
X169149998Y-111900000D01*
X169150000Y-111899998D02*
X174349998Y-111899998D01*
D20*
X174349998Y-111899998D02*
X174350000Y-111899996D01*
D22*
X179715685Y-111949998D02*
X179150000Y-111949998D01*
D19*
X174350000Y-111899996D02*
X179099998Y-111899996D01*
D20*
X179099998Y-111899996D02*
X179150000Y-111949998D01*
D21*
X101400000Y-89000000D02*
X101400000Y-89100000D01*
D19*
X104100002Y-111850000D02*
X99099994Y-111850000D01*
X99099994Y-111850000D02*
X98750000Y-111500006D01*
X197550001Y-109349999D02*
X198350000Y-108550000D01*
X194950002Y-111949998D02*
X197550001Y-109349999D01*
X179715685Y-111949998D02*
X194950002Y-111949998D01*
X111300000Y-78234315D02*
X111300000Y-78800000D01*
X111300000Y-68600000D02*
X111300000Y-78234315D01*
X112100000Y-68500000D02*
X111200000Y-68500000D01*
X111200000Y-68500000D02*
X111300000Y-68600000D01*
X98750000Y-90150000D02*
X98750000Y-111500006D01*
X101400000Y-89100000D02*
X99800000Y-89100000D01*
X99800000Y-89100000D02*
X98750000Y-90150000D01*
X133113983Y-92900000D02*
X131802909Y-94211074D01*
X131802909Y-94211074D02*
X131202910Y-94811073D01*
X135800000Y-92900000D02*
X133113983Y-92900000D01*
D21*
X180700000Y-95550002D02*
X180700000Y-88500008D01*
X178350001Y-99349995D02*
X178750000Y-98949996D01*
X176399997Y-101299999D02*
X178350001Y-99349995D01*
X104699999Y-101299999D02*
X176399997Y-101299999D01*
X102900000Y-99500000D02*
X104699999Y-101299999D01*
D20*
X127200000Y-86880000D02*
X126100000Y-86880000D01*
X143716364Y-86716364D02*
X127363636Y-86716364D01*
X146500000Y-88900000D02*
X145900000Y-88900000D01*
X127363636Y-86716364D02*
X127200000Y-86880000D01*
X145900000Y-88900000D02*
X143716364Y-86716364D01*
X162600000Y-97200000D02*
X152000000Y-97200000D01*
X152000000Y-97200000D02*
X143200000Y-88400000D01*
X140700000Y-90200000D02*
X148500000Y-98000000D01*
X148500000Y-98000000D02*
X159000000Y-98000000D01*
X115800000Y-84700000D02*
X142900000Y-84700000D01*
X142900000Y-84700000D02*
X146100000Y-87900000D01*
X106400000Y-70100000D02*
X106400000Y-75300000D01*
X106400000Y-75300000D02*
X115800000Y-84700000D01*
X127400000Y-90600000D02*
X115715685Y-90600000D01*
X115715685Y-90600000D02*
X95215685Y-70100000D01*
X94765685Y-70100000D02*
X94200000Y-70100000D01*
X129412659Y-88587341D02*
X127400000Y-90600000D01*
X136762662Y-87937342D02*
X136112663Y-88587341D01*
X95215685Y-70100000D02*
X94765685Y-70100000D01*
X136112663Y-88587341D02*
X129412659Y-88587341D01*
X118502523Y-88102499D02*
X100750011Y-70349987D01*
X100750011Y-70349987D02*
X100350012Y-69949988D01*
X135524503Y-88102499D02*
X118502523Y-88102499D01*
X136414661Y-87212341D02*
X135524503Y-88102499D01*
X137401987Y-87212341D02*
X136414661Y-87212341D01*
X137631012Y-87441366D02*
X137401987Y-87212341D01*
X152700000Y-99400000D02*
X153300000Y-98800000D01*
X108700000Y-99400000D02*
X152700000Y-99400000D01*
D23*
X135800001Y-97599999D02*
X136200000Y-97200000D01*
X108300000Y-91525000D02*
X115250000Y-98475000D01*
X115250000Y-98475000D02*
X134925000Y-98475000D01*
X134925000Y-98475000D02*
X135800001Y-97599999D01*
X135799764Y-98925000D02*
X136709894Y-98014870D01*
X114650000Y-98925000D02*
X135799764Y-98925000D01*
X136709894Y-98014870D02*
X137109893Y-97614871D01*
X108300000Y-92575000D02*
X114650000Y-98925000D01*
D20*
X148000000Y-91700000D02*
X148565685Y-91700000D01*
X156650010Y-88349990D02*
X169075310Y-88349990D01*
X170302661Y-89577341D02*
X170702660Y-89977340D01*
X153200000Y-91800000D02*
X156650010Y-88349990D01*
X169075310Y-88349990D02*
X170302661Y-89577341D01*
X148565685Y-91700000D02*
X148665685Y-91800000D01*
X148665685Y-91800000D02*
X153200000Y-91800000D01*
X147100000Y-90700000D02*
X153500000Y-90700000D01*
X156300020Y-87899980D02*
X171299980Y-87899980D01*
X153500000Y-90700000D02*
X156300020Y-87899980D01*
X175100000Y-91700000D02*
X175100000Y-93800000D01*
X171299980Y-87899980D02*
X175100000Y-91700000D01*
X171400006Y-91700006D02*
X171400006Y-92500000D01*
X168500000Y-88800000D02*
X171400006Y-91700006D01*
X153200000Y-92600000D02*
X157000000Y-88800000D01*
X157000000Y-88800000D02*
X168500000Y-88800000D01*
X148900000Y-92600000D02*
X153200000Y-92600000D01*
D23*
G36*
X200149898Y-67649910D02*
G01*
X200100102Y-116599820D01*
X89249898Y-116400180D01*
X89227239Y-94170222D01*
X93650000Y-94170222D01*
X93650000Y-94329778D01*
X93681128Y-94486268D01*
X93742188Y-94633679D01*
X93830832Y-94766345D01*
X93943655Y-94879168D01*
X94076321Y-94967812D01*
X94223732Y-95028872D01*
X94380222Y-95060000D01*
X94539778Y-95060000D01*
X94696268Y-95028872D01*
X94843679Y-94967812D01*
X94976345Y-94879168D01*
X95089168Y-94766345D01*
X95177812Y-94633679D01*
X95238872Y-94486268D01*
X95270000Y-94329778D01*
X95270000Y-94170222D01*
X95238872Y-94013732D01*
X95177812Y-93866321D01*
X95089168Y-93733655D01*
X94976345Y-93620832D01*
X94843679Y-93532188D01*
X94696268Y-93471128D01*
X94539778Y-93440000D01*
X94380222Y-93440000D01*
X94223732Y-93471128D01*
X94076321Y-93532188D01*
X93943655Y-93620832D01*
X93830832Y-93733655D01*
X93742188Y-93866321D01*
X93681128Y-94013732D01*
X93650000Y-94170222D01*
X89227239Y-94170222D01*
X89222754Y-89770222D01*
X93650000Y-89770222D01*
X93650000Y-89929778D01*
X93681128Y-90086268D01*
X93742188Y-90233679D01*
X93830832Y-90366345D01*
X93943655Y-90479168D01*
X94076321Y-90567812D01*
X94223732Y-90628872D01*
X94380222Y-90660000D01*
X94539778Y-90660000D01*
X94696268Y-90628872D01*
X94843679Y-90567812D01*
X94976345Y-90479168D01*
X95089168Y-90366345D01*
X95177812Y-90233679D01*
X95212473Y-90150000D01*
X97936081Y-90150000D01*
X97940000Y-90189788D01*
X97940001Y-111460208D01*
X97936081Y-111500006D01*
X97948211Y-111623156D01*
X97951721Y-111658794D01*
X97986399Y-111773112D01*
X97998038Y-111811479D01*
X98073251Y-111952195D01*
X98119696Y-112008788D01*
X98174473Y-112075534D01*
X98205383Y-112100901D01*
X98499094Y-112394612D01*
X98524466Y-112425528D01*
X98647805Y-112526749D01*
X98788521Y-112601963D01*
X98941206Y-112648280D01*
X99060203Y-112660000D01*
X99060205Y-112660000D01*
X99099993Y-112663919D01*
X99139781Y-112660000D01*
X108615028Y-112660000D01*
X108741212Y-112698278D01*
X108860209Y-112709998D01*
X114060189Y-112709998D01*
X114060209Y-112710000D01*
X134210168Y-112710000D01*
X134210209Y-112710004D01*
X138965034Y-112710004D01*
X139091212Y-112748280D01*
X139210209Y-112760000D01*
X144239791Y-112760000D01*
X144358788Y-112748280D01*
X144484979Y-112710000D01*
X149139789Y-112710000D01*
X149139809Y-112709998D01*
X154160189Y-112709998D01*
X154160209Y-112710000D01*
X169189789Y-112710000D01*
X169189809Y-112709998D01*
X174389789Y-112709998D01*
X174389809Y-112709996D01*
X179139789Y-112709996D01*
X179258786Y-112698276D01*
X179347162Y-112671467D01*
X179404212Y-112701961D01*
X179556897Y-112748278D01*
X179675894Y-112759998D01*
X194910214Y-112759998D01*
X194950002Y-112763917D01*
X194989790Y-112759998D01*
X194989793Y-112759998D01*
X195108790Y-112748278D01*
X195261475Y-112701961D01*
X195402191Y-112626747D01*
X195525530Y-112525526D01*
X195550902Y-112494611D01*
X198150894Y-109894619D01*
X198150898Y-109894614D01*
X198385512Y-109660000D01*
X198459325Y-109660000D01*
X198673775Y-109617343D01*
X198875782Y-109533669D01*
X199057584Y-109412193D01*
X199212193Y-109257584D01*
X199333669Y-109075782D01*
X199417343Y-108873775D01*
X199460000Y-108659325D01*
X199460000Y-108440675D01*
X199417343Y-108226225D01*
X199333669Y-108024218D01*
X199212193Y-107842416D01*
X199057584Y-107687807D01*
X198875782Y-107566331D01*
X198673775Y-107482657D01*
X198459325Y-107440000D01*
X198240675Y-107440000D01*
X198026225Y-107482657D01*
X197824218Y-107566331D01*
X197642416Y-107687807D01*
X197487807Y-107842416D01*
X197366331Y-108024218D01*
X197282657Y-108226225D01*
X197240000Y-108440675D01*
X197240000Y-108514488D01*
X197005386Y-108749102D01*
X197005381Y-108749106D01*
X194614490Y-111139998D01*
X179675894Y-111139998D01*
X179556897Y-111151718D01*
X179468521Y-111178527D01*
X179411471Y-111148033D01*
X179258786Y-111101716D01*
X179139789Y-111089996D01*
X174310209Y-111089996D01*
X174310189Y-111089998D01*
X169110209Y-111089998D01*
X169110189Y-111090000D01*
X154239809Y-111090000D01*
X154239789Y-111089998D01*
X149060209Y-111089998D01*
X149060189Y-111090000D01*
X144210209Y-111090000D01*
X144091212Y-111101720D01*
X143965021Y-111140000D01*
X139484970Y-111140000D01*
X139358792Y-111101724D01*
X139239795Y-111090004D01*
X134289828Y-111090004D01*
X134289787Y-111090000D01*
X114139809Y-111090000D01*
X114139789Y-111089998D01*
X109134974Y-111089998D01*
X109008790Y-111051720D01*
X108889793Y-111040000D01*
X99560000Y-111040000D01*
X99560000Y-90485512D01*
X100135513Y-89910000D01*
X100763964Y-89910000D01*
X100874218Y-89983669D01*
X101076225Y-90067343D01*
X101290675Y-90110000D01*
X101509325Y-90110000D01*
X101723775Y-90067343D01*
X101925782Y-89983669D01*
X102107584Y-89862193D01*
X102262193Y-89707584D01*
X102383669Y-89525782D01*
X102467343Y-89323775D01*
X102510000Y-89109325D01*
X102510000Y-88890675D01*
X102467343Y-88676225D01*
X102383669Y-88474218D01*
X102262193Y-88292416D01*
X102107584Y-88137807D01*
X101925782Y-88016331D01*
X101723775Y-87932657D01*
X101509325Y-87890000D01*
X101290675Y-87890000D01*
X101076225Y-87932657D01*
X100874218Y-88016331D01*
X100692416Y-88137807D01*
X100540223Y-88290000D01*
X99839787Y-88290000D01*
X99799999Y-88286081D01*
X99760211Y-88290000D01*
X99760209Y-88290000D01*
X99641212Y-88301720D01*
X99488527Y-88348037D01*
X99445014Y-88371295D01*
X99347810Y-88423251D01*
X99296939Y-88465000D01*
X99224472Y-88524472D01*
X99199105Y-88555382D01*
X98205387Y-89549101D01*
X98174472Y-89574472D01*
X98113714Y-89648507D01*
X98073251Y-89697811D01*
X98053642Y-89734498D01*
X97998037Y-89838528D01*
X97951720Y-89991213D01*
X97944688Y-90062614D01*
X97936081Y-90150000D01*
X95212473Y-90150000D01*
X95238872Y-90086268D01*
X95270000Y-89929778D01*
X95270000Y-89770222D01*
X95238872Y-89613732D01*
X95177812Y-89466321D01*
X95089168Y-89333655D01*
X94976345Y-89220832D01*
X94843679Y-89132188D01*
X94696268Y-89071128D01*
X94539778Y-89040000D01*
X94380222Y-89040000D01*
X94223732Y-89071128D01*
X94076321Y-89132188D01*
X93943655Y-89220832D01*
X93830832Y-89333655D01*
X93742188Y-89466321D01*
X93681128Y-89613732D01*
X93650000Y-89770222D01*
X89222754Y-89770222D01*
X89202631Y-70030071D01*
X93490000Y-70030071D01*
X93490000Y-70169929D01*
X93517285Y-70307099D01*
X93570807Y-70436311D01*
X93648507Y-70552598D01*
X93747402Y-70651493D01*
X93863689Y-70729193D01*
X93992901Y-70782715D01*
X94130071Y-70810000D01*
X94269929Y-70810000D01*
X94407099Y-70782715D01*
X94536311Y-70729193D01*
X94652598Y-70651493D01*
X94751493Y-70552598D01*
X94763252Y-70535000D01*
X95035503Y-70535000D01*
X110725345Y-86224843D01*
X110707099Y-86217285D01*
X110569929Y-86190000D01*
X110430071Y-86190000D01*
X110292901Y-86217285D01*
X110163689Y-86270807D01*
X110047402Y-86348507D01*
X109948507Y-86447402D01*
X109870807Y-86563689D01*
X109817285Y-86692901D01*
X109792987Y-86815054D01*
X105973468Y-90634573D01*
X105952104Y-90652106D01*
X105882124Y-90737377D01*
X105830124Y-90834663D01*
X105798102Y-90940223D01*
X105789999Y-91022496D01*
X105789999Y-91022505D01*
X105787291Y-91050001D01*
X105789999Y-91077497D01*
X105790000Y-98280495D01*
X105787291Y-98308001D01*
X105798103Y-98417780D01*
X105830125Y-98523340D01*
X105882124Y-98620625D01*
X105934570Y-98684531D01*
X105934577Y-98684538D01*
X105952105Y-98705896D01*
X105973463Y-98723424D01*
X107990037Y-100739999D01*
X104931959Y-100739999D01*
X103607013Y-99415054D01*
X103582715Y-99292901D01*
X103529193Y-99163689D01*
X103451493Y-99047402D01*
X103352598Y-98948507D01*
X103236311Y-98870807D01*
X103107099Y-98817285D01*
X102969929Y-98790000D01*
X102830071Y-98790000D01*
X102692901Y-98817285D01*
X102563689Y-98870807D01*
X102447402Y-98948507D01*
X102348507Y-99047402D01*
X102270807Y-99163689D01*
X102217285Y-99292901D01*
X102190000Y-99430071D01*
X102190000Y-99569929D01*
X102217285Y-99707099D01*
X102270807Y-99836311D01*
X102348507Y-99952598D01*
X102447402Y-100051493D01*
X102563689Y-100129193D01*
X102692901Y-100182715D01*
X102815054Y-100207013D01*
X104284576Y-101676536D01*
X104302104Y-101697894D01*
X104323462Y-101715422D01*
X104323468Y-101715428D01*
X104387374Y-101767874D01*
X104439374Y-101795668D01*
X104484660Y-101819874D01*
X104590220Y-101851896D01*
X104672493Y-101859999D01*
X104672503Y-101859999D01*
X104699999Y-101862707D01*
X104727495Y-101859999D01*
X176372501Y-101859999D01*
X176399997Y-101862707D01*
X176427493Y-101859999D01*
X176427503Y-101859999D01*
X176509776Y-101851896D01*
X176615336Y-101819874D01*
X176712621Y-101767874D01*
X176797892Y-101697894D01*
X176815425Y-101676530D01*
X178636674Y-99855282D01*
X178660373Y-99859996D01*
X178839627Y-99859996D01*
X179015437Y-99825025D01*
X179181047Y-99756427D01*
X179330091Y-99656839D01*
X179456843Y-99530087D01*
X179556431Y-99381043D01*
X179625029Y-99215433D01*
X179660000Y-99039623D01*
X179660000Y-98860369D01*
X179625029Y-98684559D01*
X179556431Y-98518949D01*
X179456843Y-98369905D01*
X179330091Y-98243153D01*
X179181047Y-98143565D01*
X179015437Y-98074967D01*
X178839627Y-98039996D01*
X178660373Y-98039996D01*
X178484563Y-98074967D01*
X178318953Y-98143565D01*
X178169909Y-98243153D01*
X178043157Y-98369905D01*
X177943569Y-98518949D01*
X177874971Y-98684559D01*
X177840000Y-98860369D01*
X177840000Y-99039623D01*
X177844714Y-99063322D01*
X176168038Y-100739999D01*
X157326729Y-100739999D01*
X157329193Y-100736311D01*
X157382715Y-100607099D01*
X157410000Y-100469929D01*
X157410000Y-100330071D01*
X157382715Y-100192901D01*
X157329193Y-100063689D01*
X157251493Y-99947402D01*
X157152598Y-99848507D01*
X157036311Y-99770807D01*
X156907099Y-99717285D01*
X156769929Y-99690000D01*
X156630071Y-99690000D01*
X156492901Y-99717285D01*
X156363689Y-99770807D01*
X156260134Y-99840000D01*
X143039866Y-99840000D01*
X143032383Y-99835000D01*
X152678646Y-99835000D01*
X152700000Y-99837103D01*
X152721354Y-99835000D01*
X152721362Y-99835000D01*
X152785275Y-99828705D01*
X152867272Y-99803831D01*
X152942842Y-99763439D01*
X153009079Y-99709079D01*
X153022700Y-99692482D01*
X153209312Y-99505871D01*
X153230071Y-99510000D01*
X153369929Y-99510000D01*
X153507099Y-99482715D01*
X153636311Y-99429193D01*
X153752598Y-99351493D01*
X153851493Y-99252598D01*
X153929193Y-99136311D01*
X153982715Y-99007099D01*
X154010000Y-98869929D01*
X154010000Y-98730071D01*
X153982715Y-98592901D01*
X153929193Y-98463689D01*
X153910024Y-98435000D01*
X158436748Y-98435000D01*
X158448507Y-98452598D01*
X158547402Y-98551493D01*
X158663689Y-98629193D01*
X158792901Y-98682715D01*
X158930071Y-98710000D01*
X159069929Y-98710000D01*
X159207099Y-98682715D01*
X159336311Y-98629193D01*
X159452598Y-98551493D01*
X159551493Y-98452598D01*
X159629193Y-98336311D01*
X159682715Y-98207099D01*
X159710000Y-98069929D01*
X159710000Y-97930071D01*
X159682715Y-97792901D01*
X159629193Y-97663689D01*
X159610024Y-97635000D01*
X162036748Y-97635000D01*
X162048507Y-97652598D01*
X162147402Y-97751493D01*
X162263689Y-97829193D01*
X162392901Y-97882715D01*
X162530071Y-97910000D01*
X162669929Y-97910000D01*
X162807099Y-97882715D01*
X162936311Y-97829193D01*
X163052598Y-97751493D01*
X163151493Y-97652598D01*
X163229193Y-97536311D01*
X163282715Y-97407099D01*
X163310000Y-97269929D01*
X163310000Y-97130071D01*
X163282715Y-96992901D01*
X163229193Y-96863689D01*
X163151493Y-96747402D01*
X163052598Y-96648507D01*
X162936311Y-96570807D01*
X162807099Y-96517285D01*
X162669929Y-96490000D01*
X162530071Y-96490000D01*
X162392901Y-96517285D01*
X162263689Y-96570807D01*
X162147402Y-96648507D01*
X162048507Y-96747402D01*
X162036748Y-96765000D01*
X152180183Y-96765000D01*
X150695183Y-95280000D01*
X157434388Y-95280000D01*
X157456785Y-95507400D01*
X157523115Y-95726060D01*
X157630829Y-95927579D01*
X157775788Y-96104212D01*
X157952421Y-96249171D01*
X158153940Y-96356885D01*
X158372600Y-96423215D01*
X158543021Y-96440000D01*
X158656979Y-96440000D01*
X158827400Y-96423215D01*
X159046060Y-96356885D01*
X159247579Y-96249171D01*
X159424212Y-96104212D01*
X159569171Y-95927579D01*
X159676885Y-95726060D01*
X159743215Y-95507400D01*
X159765612Y-95280000D01*
X159743215Y-95052600D01*
X159676885Y-94833940D01*
X159569171Y-94632421D01*
X159424212Y-94455788D01*
X159247579Y-94310829D01*
X159046060Y-94203115D01*
X158827400Y-94136785D01*
X158656979Y-94120000D01*
X158543021Y-94120000D01*
X158372600Y-94136785D01*
X158153940Y-94203115D01*
X157952421Y-94310829D01*
X157775788Y-94455788D01*
X157630829Y-94632421D01*
X157523115Y-94833940D01*
X157456785Y-95052600D01*
X157434388Y-95280000D01*
X150695183Y-95280000D01*
X148699138Y-93283956D01*
X148830071Y-93310000D01*
X148969929Y-93310000D01*
X149107099Y-93282715D01*
X149236311Y-93229193D01*
X149352598Y-93151493D01*
X149451493Y-93052598D01*
X149463252Y-93035000D01*
X153178646Y-93035000D01*
X153200000Y-93037103D01*
X153221354Y-93035000D01*
X153221362Y-93035000D01*
X153285275Y-93028705D01*
X153367272Y-93003831D01*
X153442842Y-92963439D01*
X153509079Y-92909079D01*
X153522700Y-92892482D01*
X153675182Y-92740000D01*
X157434388Y-92740000D01*
X157456785Y-92967400D01*
X157523115Y-93186060D01*
X157630829Y-93387579D01*
X157775788Y-93564212D01*
X157952421Y-93709171D01*
X158153940Y-93816885D01*
X158372600Y-93883215D01*
X158543021Y-93900000D01*
X158656979Y-93900000D01*
X158827400Y-93883215D01*
X159046060Y-93816885D01*
X159247579Y-93709171D01*
X159424212Y-93564212D01*
X159569171Y-93387579D01*
X159676885Y-93186060D01*
X159743215Y-92967400D01*
X159765612Y-92740000D01*
X159743215Y-92512600D01*
X159676885Y-92293940D01*
X159569171Y-92092421D01*
X159424212Y-91915788D01*
X159247579Y-91770829D01*
X159046060Y-91663115D01*
X158827400Y-91596785D01*
X158656979Y-91580000D01*
X158543021Y-91580000D01*
X158372600Y-91596785D01*
X158153940Y-91663115D01*
X157952421Y-91770829D01*
X157775788Y-91915788D01*
X157630829Y-92092421D01*
X157523115Y-92293940D01*
X157456785Y-92512600D01*
X157434388Y-92740000D01*
X153675182Y-92740000D01*
X157180182Y-89235000D01*
X168319818Y-89235000D01*
X170965006Y-91880189D01*
X170965006Y-91936748D01*
X170947408Y-91948507D01*
X170848513Y-92047402D01*
X170770813Y-92163689D01*
X170717291Y-92292901D01*
X170690006Y-92430071D01*
X170690006Y-92569929D01*
X170717291Y-92707099D01*
X170770813Y-92836311D01*
X170848513Y-92952598D01*
X170947408Y-93051493D01*
X171063695Y-93129193D01*
X171192907Y-93182715D01*
X171330077Y-93210000D01*
X171469935Y-93210000D01*
X171607105Y-93182715D01*
X171736317Y-93129193D01*
X171852604Y-93051493D01*
X171951499Y-92952598D01*
X172029199Y-92836311D01*
X172082721Y-92707099D01*
X172110006Y-92569929D01*
X172110006Y-92430071D01*
X172082721Y-92292901D01*
X172029199Y-92163689D01*
X171951499Y-92047402D01*
X171852604Y-91948507D01*
X171835006Y-91936748D01*
X171835006Y-91721360D01*
X171837109Y-91700006D01*
X171835006Y-91678652D01*
X171835006Y-91678644D01*
X171828711Y-91614731D01*
X171803837Y-91532734D01*
X171763445Y-91457164D01*
X171709085Y-91390927D01*
X171692495Y-91377312D01*
X170956059Y-90640877D01*
X171038971Y-90606533D01*
X171155258Y-90528833D01*
X171254153Y-90429938D01*
X171331853Y-90313651D01*
X171385375Y-90184439D01*
X171412660Y-90047269D01*
X171412660Y-89907411D01*
X171385375Y-89770241D01*
X171331853Y-89641029D01*
X171254153Y-89524742D01*
X171155258Y-89425847D01*
X171038971Y-89348147D01*
X170909759Y-89294625D01*
X170772589Y-89267340D01*
X170632731Y-89267340D01*
X170611972Y-89271469D01*
X169675482Y-88334980D01*
X171119798Y-88334980D01*
X174665000Y-91880183D01*
X174665001Y-93236748D01*
X174647402Y-93248507D01*
X174548507Y-93347402D01*
X174470807Y-93463689D01*
X174417285Y-93592901D01*
X174390000Y-93730071D01*
X174390000Y-93869929D01*
X174417285Y-94007099D01*
X174470807Y-94136311D01*
X174548507Y-94252598D01*
X174647402Y-94351493D01*
X174763689Y-94429193D01*
X174892901Y-94482715D01*
X175030071Y-94510000D01*
X175169929Y-94510000D01*
X175307099Y-94482715D01*
X175436311Y-94429193D01*
X175552598Y-94351493D01*
X175651493Y-94252598D01*
X175729193Y-94136311D01*
X175782715Y-94007099D01*
X175810000Y-93869929D01*
X175810000Y-93730071D01*
X175782715Y-93592901D01*
X175729193Y-93463689D01*
X175651493Y-93347402D01*
X175552598Y-93248507D01*
X175535000Y-93236748D01*
X175535000Y-91721354D01*
X175537103Y-91700000D01*
X175535000Y-91678644D01*
X175535000Y-91678638D01*
X175528705Y-91614725D01*
X175503831Y-91532728D01*
X175463439Y-91457158D01*
X175409079Y-91390921D01*
X175392487Y-91377304D01*
X172445262Y-88430079D01*
X179990000Y-88430079D01*
X179990000Y-88569937D01*
X180017285Y-88707107D01*
X180070807Y-88836319D01*
X180140001Y-88939876D01*
X180140000Y-95110136D01*
X180070807Y-95213691D01*
X180017285Y-95342903D01*
X179990000Y-95480073D01*
X179990000Y-95619931D01*
X180017285Y-95757101D01*
X180070807Y-95886313D01*
X180148507Y-96002600D01*
X180247402Y-96101495D01*
X180363689Y-96179195D01*
X180492901Y-96232717D01*
X180630071Y-96260002D01*
X180769929Y-96260002D01*
X180907099Y-96232717D01*
X181036311Y-96179195D01*
X181152598Y-96101495D01*
X181251493Y-96002600D01*
X181329193Y-95886313D01*
X181382715Y-95757101D01*
X181410000Y-95619931D01*
X181410000Y-95480073D01*
X181382715Y-95342903D01*
X181329193Y-95213691D01*
X181260000Y-95110136D01*
X181260000Y-90870675D01*
X186220000Y-90870675D01*
X186220000Y-91089325D01*
X186262657Y-91303775D01*
X186346331Y-91505782D01*
X186467807Y-91687584D01*
X186622416Y-91842193D01*
X186804218Y-91963669D01*
X186843645Y-91980000D01*
X186804218Y-91996331D01*
X186622416Y-92117807D01*
X186467807Y-92272416D01*
X186346331Y-92454218D01*
X186262657Y-92656225D01*
X186220000Y-92870675D01*
X186220000Y-93089325D01*
X186262657Y-93303775D01*
X186346331Y-93505782D01*
X186467807Y-93687584D01*
X186622416Y-93842193D01*
X186804218Y-93963669D01*
X187006225Y-94047343D01*
X187220675Y-94090000D01*
X187439325Y-94090000D01*
X187653775Y-94047343D01*
X187855782Y-93963669D01*
X188037584Y-93842193D01*
X188192193Y-93687584D01*
X188313669Y-93505782D01*
X188397343Y-93303775D01*
X188440000Y-93089325D01*
X188440000Y-92870675D01*
X188397343Y-92656225D01*
X188313669Y-92454218D01*
X188192193Y-92272416D01*
X188037584Y-92117807D01*
X187855782Y-91996331D01*
X187816355Y-91980000D01*
X187855782Y-91963669D01*
X188037584Y-91842193D01*
X188192193Y-91687584D01*
X188313669Y-91505782D01*
X188397343Y-91303775D01*
X188440000Y-91089325D01*
X188440000Y-90870675D01*
X188397343Y-90656225D01*
X188313669Y-90454218D01*
X188192193Y-90272416D01*
X188037584Y-90117807D01*
X187855782Y-89996331D01*
X187653775Y-89912657D01*
X187439325Y-89870000D01*
X187220675Y-89870000D01*
X187006225Y-89912657D01*
X186804218Y-89996331D01*
X186622416Y-90117807D01*
X186467807Y-90272416D01*
X186346331Y-90454218D01*
X186262657Y-90656225D01*
X186220000Y-90870675D01*
X181260000Y-90870675D01*
X181260000Y-88939874D01*
X181329193Y-88836319D01*
X181382715Y-88707107D01*
X181410000Y-88569937D01*
X181410000Y-88430079D01*
X181382715Y-88292909D01*
X181329193Y-88163697D01*
X181251493Y-88047410D01*
X181152598Y-87948515D01*
X181036311Y-87870815D01*
X180907099Y-87817293D01*
X180769929Y-87790008D01*
X180630071Y-87790008D01*
X180492901Y-87817293D01*
X180363689Y-87870815D01*
X180247402Y-87948515D01*
X180148507Y-88047410D01*
X180070807Y-88163697D01*
X180017285Y-88292909D01*
X179990000Y-88430079D01*
X172445262Y-88430079D01*
X171695183Y-87680000D01*
X186218501Y-87680000D01*
X186218501Y-89280000D01*
X186224486Y-89340770D01*
X186242212Y-89399206D01*
X186270998Y-89453060D01*
X186309737Y-89500263D01*
X186356940Y-89539002D01*
X186410794Y-89567788D01*
X186469230Y-89585514D01*
X186530000Y-89591499D01*
X188130000Y-89591499D01*
X188190770Y-89585514D01*
X188249206Y-89567788D01*
X188303060Y-89539002D01*
X188350263Y-89500263D01*
X188389002Y-89453060D01*
X188417788Y-89399206D01*
X188435514Y-89340770D01*
X188441499Y-89280000D01*
X188441499Y-87680000D01*
X188435514Y-87619230D01*
X188417788Y-87560794D01*
X188389002Y-87506940D01*
X188350263Y-87459737D01*
X188303060Y-87420998D01*
X188249206Y-87392212D01*
X188190770Y-87374486D01*
X188130000Y-87368501D01*
X186530000Y-87368501D01*
X186469230Y-87374486D01*
X186410794Y-87392212D01*
X186356940Y-87420998D01*
X186309737Y-87459737D01*
X186270998Y-87506940D01*
X186242212Y-87560794D01*
X186224486Y-87619230D01*
X186218501Y-87680000D01*
X171695183Y-87680000D01*
X171622680Y-87607498D01*
X171609059Y-87590901D01*
X171542822Y-87536541D01*
X171467252Y-87496149D01*
X171385255Y-87471275D01*
X171321342Y-87464980D01*
X171321334Y-87464980D01*
X171299980Y-87462877D01*
X171278626Y-87464980D01*
X156321373Y-87464980D01*
X156300019Y-87462877D01*
X156278665Y-87464980D01*
X156278658Y-87464980D01*
X156223034Y-87470459D01*
X156214744Y-87471275D01*
X156189870Y-87478821D01*
X156132748Y-87496149D01*
X156057178Y-87536541D01*
X155990941Y-87590901D01*
X155977325Y-87607492D01*
X153319818Y-90265000D01*
X153032383Y-90265000D01*
X153052598Y-90251493D01*
X153151493Y-90152598D01*
X153229193Y-90036311D01*
X153282715Y-89907099D01*
X153310000Y-89769929D01*
X153310000Y-89630071D01*
X153282715Y-89492901D01*
X153229193Y-89363689D01*
X153151493Y-89247402D01*
X153052598Y-89148507D01*
X152936311Y-89070807D01*
X152807099Y-89017285D01*
X152684947Y-88992987D01*
X151813904Y-88121945D01*
X151789606Y-87999792D01*
X151736084Y-87870580D01*
X151658384Y-87754293D01*
X151559489Y-87655398D01*
X151443202Y-87577698D01*
X151313990Y-87524176D01*
X151191837Y-87499878D01*
X146410000Y-82718041D01*
X146410000Y-82630071D01*
X146382715Y-82492901D01*
X146329193Y-82363689D01*
X146251493Y-82247402D01*
X146152598Y-82148507D01*
X146036311Y-82070807D01*
X145907099Y-82017285D01*
X145769929Y-81990000D01*
X145630071Y-81990000D01*
X145492901Y-82017285D01*
X145438063Y-82040000D01*
X117261937Y-82040000D01*
X117207099Y-82017285D01*
X117069929Y-81990000D01*
X116930071Y-81990000D01*
X116792901Y-82017285D01*
X116663689Y-82070807D01*
X116547402Y-82148507D01*
X116448507Y-82247402D01*
X116370807Y-82363689D01*
X116317285Y-82492901D01*
X116290000Y-82630071D01*
X116290000Y-82769929D01*
X116317285Y-82907099D01*
X116370807Y-83036311D01*
X116448507Y-83152598D01*
X116547402Y-83251493D01*
X116663689Y-83329193D01*
X116792901Y-83382715D01*
X116930071Y-83410000D01*
X117069929Y-83410000D01*
X117207099Y-83382715D01*
X117336311Y-83329193D01*
X117452598Y-83251493D01*
X117544091Y-83160000D01*
X145155909Y-83160000D01*
X145247402Y-83251493D01*
X145363689Y-83329193D01*
X145489239Y-83381198D01*
X150399878Y-88291837D01*
X150424176Y-88413990D01*
X150477698Y-88543202D01*
X150555398Y-88659489D01*
X150654293Y-88758384D01*
X150770580Y-88836084D01*
X150899792Y-88889606D01*
X151021945Y-88913904D01*
X151892987Y-89784947D01*
X151917285Y-89907099D01*
X151970807Y-90036311D01*
X152048507Y-90152598D01*
X152147402Y-90251493D01*
X152167617Y-90265000D01*
X147663252Y-90265000D01*
X147651493Y-90247402D01*
X147552598Y-90148507D01*
X147436311Y-90070807D01*
X147307099Y-90017285D01*
X147169929Y-89990000D01*
X147030071Y-89990000D01*
X146892901Y-90017285D01*
X146763689Y-90070807D01*
X146647402Y-90148507D01*
X146548507Y-90247402D01*
X146470807Y-90363689D01*
X146417285Y-90492901D01*
X146390000Y-90630071D01*
X146390000Y-90769929D01*
X146417285Y-90907099D01*
X146470807Y-91036311D01*
X146509698Y-91094515D01*
X143905871Y-88490689D01*
X143910000Y-88469929D01*
X143910000Y-88330071D01*
X143882715Y-88192901D01*
X143829193Y-88063689D01*
X143751493Y-87947402D01*
X143652598Y-87848507D01*
X143536311Y-87770807D01*
X143407099Y-87717285D01*
X143269929Y-87690000D01*
X143130071Y-87690000D01*
X142992901Y-87717285D01*
X142863689Y-87770807D01*
X142747402Y-87848507D01*
X142648507Y-87947402D01*
X142570807Y-88063689D01*
X142517285Y-88192901D01*
X142490000Y-88330071D01*
X142490000Y-88469929D01*
X142517285Y-88607099D01*
X142570807Y-88736311D01*
X142648507Y-88852598D01*
X142747402Y-88951493D01*
X142863689Y-89029193D01*
X142992901Y-89082715D01*
X143130071Y-89110000D01*
X143269929Y-89110000D01*
X143290689Y-89105871D01*
X151677305Y-97492488D01*
X151690921Y-97509079D01*
X151757158Y-97563439D01*
X151760078Y-97565000D01*
X148680183Y-97565000D01*
X141405871Y-90290689D01*
X141410000Y-90269929D01*
X141410000Y-90130071D01*
X141382715Y-89992901D01*
X141329193Y-89863689D01*
X141251493Y-89747402D01*
X141152598Y-89648507D01*
X141036311Y-89570807D01*
X140907099Y-89517285D01*
X140769929Y-89490000D01*
X140630071Y-89490000D01*
X140492901Y-89517285D01*
X140363689Y-89570807D01*
X140247402Y-89648507D01*
X140148507Y-89747402D01*
X140070807Y-89863689D01*
X140017285Y-89992901D01*
X139990000Y-90130071D01*
X139990000Y-90269929D01*
X140017285Y-90407099D01*
X140070807Y-90536311D01*
X140148507Y-90652598D01*
X140247402Y-90751493D01*
X140363689Y-90829193D01*
X140492901Y-90882715D01*
X140630071Y-90910000D01*
X140769929Y-90910000D01*
X140790689Y-90905871D01*
X148177305Y-98292488D01*
X148190921Y-98309079D01*
X148257158Y-98363439D01*
X148332728Y-98403831D01*
X148414725Y-98428705D01*
X148478638Y-98435000D01*
X148478646Y-98435000D01*
X148500000Y-98437103D01*
X148521354Y-98435000D01*
X152689976Y-98435000D01*
X152670807Y-98463689D01*
X152617285Y-98592901D01*
X152590000Y-98730071D01*
X152590000Y-98869929D01*
X152594129Y-98890688D01*
X152519818Y-98965000D01*
X136339591Y-98965000D01*
X136989716Y-98314876D01*
X137039964Y-98324871D01*
X137179822Y-98324871D01*
X137316992Y-98297586D01*
X137446204Y-98244064D01*
X137562491Y-98166364D01*
X137661386Y-98067469D01*
X137739086Y-97951182D01*
X137792608Y-97821970D01*
X137819893Y-97684800D01*
X137819893Y-97544942D01*
X137792608Y-97407772D01*
X137739086Y-97278560D01*
X137661386Y-97162273D01*
X137562491Y-97063378D01*
X137446204Y-96985678D01*
X137316992Y-96932156D01*
X137179822Y-96904871D01*
X137039964Y-96904871D01*
X136902794Y-96932156D01*
X136864179Y-96948151D01*
X136829193Y-96863689D01*
X136751493Y-96747402D01*
X136652598Y-96648507D01*
X136536311Y-96570807D01*
X136407099Y-96517285D01*
X136269929Y-96490000D01*
X136130071Y-96490000D01*
X135992901Y-96517285D01*
X135863689Y-96570807D01*
X135747402Y-96648507D01*
X135648507Y-96747402D01*
X135570807Y-96863689D01*
X135517285Y-96992901D01*
X135490000Y-97130071D01*
X135490000Y-97269929D01*
X135499995Y-97320177D01*
X134755174Y-98065000D01*
X126643130Y-98065000D01*
X126747579Y-98009171D01*
X126924212Y-97864212D01*
X127069171Y-97687579D01*
X127176885Y-97486060D01*
X127243215Y-97267400D01*
X127265612Y-97040000D01*
X127243215Y-96812600D01*
X127176885Y-96593940D01*
X127069171Y-96392421D01*
X126924212Y-96215788D01*
X126747579Y-96070829D01*
X126546060Y-95963115D01*
X126327400Y-95896785D01*
X126156979Y-95880000D01*
X126043021Y-95880000D01*
X125872600Y-95896785D01*
X125653940Y-95963115D01*
X125452421Y-96070829D01*
X125275788Y-96215788D01*
X125130829Y-96392421D01*
X125023115Y-96593940D01*
X124956785Y-96812600D01*
X124934388Y-97040000D01*
X124956785Y-97267400D01*
X125023115Y-97486060D01*
X125130829Y-97687579D01*
X125275788Y-97864212D01*
X125452421Y-98009171D01*
X125556870Y-98065000D01*
X115419828Y-98065000D01*
X111854827Y-94500000D01*
X124934388Y-94500000D01*
X124956785Y-94727400D01*
X125023115Y-94946060D01*
X125130829Y-95147579D01*
X125275788Y-95324212D01*
X125452421Y-95469171D01*
X125653940Y-95576885D01*
X125872600Y-95643215D01*
X126043021Y-95660000D01*
X126156979Y-95660000D01*
X126327400Y-95643215D01*
X126546060Y-95576885D01*
X126747579Y-95469171D01*
X126924212Y-95324212D01*
X127069171Y-95147579D01*
X127176885Y-94946060D01*
X127243215Y-94727400D01*
X127243801Y-94721446D01*
X130292910Y-94721446D01*
X130292910Y-94900700D01*
X130327881Y-95076510D01*
X130396479Y-95242120D01*
X130496067Y-95391164D01*
X130622819Y-95517916D01*
X130771863Y-95617504D01*
X130937473Y-95686102D01*
X131113283Y-95721073D01*
X131292537Y-95721073D01*
X131468347Y-95686102D01*
X131633957Y-95617504D01*
X131783001Y-95517916D01*
X131909753Y-95391164D01*
X132009341Y-95242120D01*
X132074371Y-95085125D01*
X132403802Y-94755694D01*
X132403806Y-94755689D01*
X133449496Y-93710000D01*
X135377569Y-93710000D01*
X135534563Y-93775029D01*
X135710373Y-93810000D01*
X135889627Y-93810000D01*
X136065437Y-93775029D01*
X136231047Y-93706431D01*
X136380091Y-93606843D01*
X136506843Y-93480091D01*
X136606431Y-93331047D01*
X136675029Y-93165437D01*
X136710000Y-92989627D01*
X136710000Y-92810373D01*
X136675029Y-92634563D01*
X136606431Y-92468953D01*
X136506843Y-92319909D01*
X136380091Y-92193157D01*
X136231047Y-92093569D01*
X136065437Y-92024971D01*
X135889627Y-91990000D01*
X135710373Y-91990000D01*
X135534563Y-92024971D01*
X135377569Y-92090000D01*
X133153771Y-92090000D01*
X133113983Y-92086081D01*
X133074195Y-92090000D01*
X133074192Y-92090000D01*
X132955195Y-92101720D01*
X132866219Y-92128711D01*
X132802509Y-92148037D01*
X132712461Y-92196169D01*
X132661794Y-92223251D01*
X132538455Y-92324472D01*
X132513088Y-92355382D01*
X131258294Y-93610177D01*
X131258289Y-93610181D01*
X130928858Y-93939612D01*
X130771863Y-94004642D01*
X130622819Y-94104230D01*
X130496067Y-94230982D01*
X130396479Y-94380026D01*
X130327881Y-94545636D01*
X130292910Y-94721446D01*
X127243801Y-94721446D01*
X127265612Y-94500000D01*
X127243215Y-94272600D01*
X127176885Y-94053940D01*
X127069171Y-93852421D01*
X126924212Y-93675788D01*
X126747579Y-93530829D01*
X126546060Y-93423115D01*
X126327400Y-93356785D01*
X126156979Y-93340000D01*
X126043021Y-93340000D01*
X125872600Y-93356785D01*
X125653940Y-93423115D01*
X125452421Y-93530829D01*
X125275788Y-93675788D01*
X125130829Y-93852421D01*
X125023115Y-94053940D01*
X124956785Y-94272600D01*
X124934388Y-94500000D01*
X111854827Y-94500000D01*
X109000005Y-91645179D01*
X109010000Y-91594929D01*
X109010000Y-91455071D01*
X108982715Y-91317901D01*
X108929193Y-91188689D01*
X108851493Y-91072402D01*
X108752598Y-90973507D01*
X108636311Y-90895807D01*
X108507099Y-90842285D01*
X108369929Y-90815000D01*
X108230071Y-90815000D01*
X108092901Y-90842285D01*
X107963689Y-90895807D01*
X107847402Y-90973507D01*
X107748507Y-91072402D01*
X107670807Y-91188689D01*
X107617285Y-91317901D01*
X107590000Y-91455071D01*
X107590000Y-91594929D01*
X107617285Y-91732099D01*
X107670807Y-91861311D01*
X107748507Y-91977598D01*
X107820909Y-92050000D01*
X107748507Y-92122402D01*
X107670807Y-92238689D01*
X107617285Y-92367901D01*
X107590000Y-92505071D01*
X107590000Y-92644929D01*
X107617285Y-92782099D01*
X107670807Y-92911311D01*
X107748507Y-93027598D01*
X107847402Y-93126493D01*
X107963689Y-93204193D01*
X108092901Y-93257715D01*
X108230071Y-93285000D01*
X108369929Y-93285000D01*
X108420179Y-93275005D01*
X114110173Y-98965000D01*
X109263252Y-98965000D01*
X109251493Y-98947402D01*
X109152598Y-98848507D01*
X109036311Y-98770807D01*
X108907099Y-98717285D01*
X108769929Y-98690000D01*
X108630071Y-98690000D01*
X108492901Y-98717285D01*
X108363689Y-98770807D01*
X108247402Y-98848507D01*
X108148507Y-98947402D01*
X108070807Y-99063689D01*
X108020089Y-99186131D01*
X106909999Y-98076042D01*
X106909999Y-91281960D01*
X110584946Y-87607013D01*
X110707099Y-87582715D01*
X110836311Y-87529193D01*
X110952598Y-87451493D01*
X111051493Y-87352598D01*
X111129193Y-87236311D01*
X111182715Y-87107099D01*
X111210000Y-86969929D01*
X111210000Y-86830071D01*
X111182715Y-86692901D01*
X111175157Y-86674655D01*
X115392990Y-90892488D01*
X115406606Y-90909079D01*
X115472843Y-90963439D01*
X115548413Y-91003831D01*
X115630410Y-91028705D01*
X115694323Y-91035000D01*
X115694330Y-91035000D01*
X115715684Y-91037103D01*
X115737038Y-91035000D01*
X127378646Y-91035000D01*
X127400000Y-91037103D01*
X127421354Y-91035000D01*
X127421362Y-91035000D01*
X127485275Y-91028705D01*
X127567272Y-91003831D01*
X127642842Y-90963439D01*
X127709079Y-90909079D01*
X127722700Y-90892482D01*
X129592841Y-89022341D01*
X136091309Y-89022341D01*
X136112663Y-89024444D01*
X136134017Y-89022341D01*
X136134025Y-89022341D01*
X136197938Y-89016046D01*
X136279935Y-88991172D01*
X136355505Y-88950780D01*
X136421742Y-88896420D01*
X136435363Y-88879823D01*
X136671974Y-88643213D01*
X136692733Y-88647342D01*
X136832591Y-88647342D01*
X136969761Y-88620057D01*
X137098973Y-88566535D01*
X137215260Y-88488835D01*
X137314155Y-88389940D01*
X137391855Y-88273653D01*
X137445377Y-88144441D01*
X137448456Y-88128963D01*
X137561083Y-88151366D01*
X137700941Y-88151366D01*
X137838111Y-88124081D01*
X137967323Y-88070559D01*
X138083610Y-87992859D01*
X138182505Y-87893964D01*
X138260205Y-87777677D01*
X138313727Y-87648465D01*
X138341012Y-87511295D01*
X138341012Y-87371437D01*
X138313727Y-87234267D01*
X138279387Y-87151364D01*
X143536182Y-87151364D01*
X145577300Y-89192482D01*
X145590921Y-89209079D01*
X145657158Y-89263439D01*
X145697224Y-89284854D01*
X145732727Y-89303831D01*
X145798473Y-89323775D01*
X145814725Y-89328705D01*
X145878638Y-89335000D01*
X145878646Y-89335000D01*
X145900000Y-89337103D01*
X145921354Y-89335000D01*
X145936748Y-89335000D01*
X145948507Y-89352598D01*
X146047402Y-89451493D01*
X146163689Y-89529193D01*
X146292901Y-89582715D01*
X146430071Y-89610000D01*
X146569929Y-89610000D01*
X146707099Y-89582715D01*
X146836311Y-89529193D01*
X146952598Y-89451493D01*
X147051493Y-89352598D01*
X147129193Y-89236311D01*
X147182715Y-89107099D01*
X147210000Y-88969929D01*
X147210000Y-88830071D01*
X147182715Y-88692901D01*
X147129193Y-88563689D01*
X147051493Y-88447402D01*
X146952598Y-88348507D01*
X146836311Y-88270807D01*
X146732684Y-88227883D01*
X146782715Y-88107099D01*
X146810000Y-87969929D01*
X146810000Y-87830071D01*
X146782715Y-87692901D01*
X146729193Y-87563689D01*
X146651493Y-87447402D01*
X146552598Y-87348507D01*
X146436311Y-87270807D01*
X146307099Y-87217285D01*
X146169929Y-87190000D01*
X146030071Y-87190000D01*
X146009312Y-87194129D01*
X143222700Y-84407518D01*
X143209079Y-84390921D01*
X143142842Y-84336561D01*
X143067272Y-84296169D01*
X142985275Y-84271295D01*
X142921362Y-84265000D01*
X142921354Y-84265000D01*
X142900000Y-84262897D01*
X142878646Y-84265000D01*
X115980183Y-84265000D01*
X111765183Y-80050000D01*
X149800000Y-80050000D01*
X149800000Y-85150000D01*
X149801921Y-85169509D01*
X149807612Y-85188268D01*
X149816853Y-85205557D01*
X149829289Y-85220711D01*
X149844443Y-85233147D01*
X149861732Y-85242388D01*
X149880491Y-85248079D01*
X149900000Y-85250000D01*
X163400000Y-85250000D01*
X163419509Y-85248079D01*
X163438268Y-85242388D01*
X163455557Y-85233147D01*
X163470711Y-85220711D01*
X163483147Y-85205557D01*
X163492388Y-85188268D01*
X163498079Y-85169509D01*
X163500000Y-85150000D01*
X163500000Y-80050000D01*
X163498079Y-80030491D01*
X163492388Y-80011732D01*
X163483147Y-79994443D01*
X163470711Y-79979289D01*
X163455557Y-79966853D01*
X163438268Y-79957612D01*
X163419509Y-79951921D01*
X163400000Y-79950000D01*
X149900000Y-79950000D01*
X149880491Y-79951921D01*
X149861732Y-79957612D01*
X149844443Y-79966853D01*
X149829289Y-79979289D01*
X149816853Y-79994443D01*
X149807612Y-80011732D01*
X149801921Y-80030491D01*
X149800000Y-80050000D01*
X111765183Y-80050000D01*
X111326492Y-79611310D01*
X111458788Y-79598280D01*
X111611473Y-79551963D01*
X111752189Y-79476749D01*
X111875528Y-79375528D01*
X111976749Y-79252189D01*
X112051963Y-79111473D01*
X112098280Y-78958788D01*
X112110000Y-78839791D01*
X112110000Y-69310000D01*
X189639791Y-69310000D01*
X189758788Y-69298280D01*
X189911473Y-69251963D01*
X190052189Y-69176749D01*
X190175528Y-69075528D01*
X190276749Y-68952189D01*
X190351963Y-68811473D01*
X190398280Y-68658788D01*
X190413919Y-68500000D01*
X190398280Y-68341212D01*
X190351963Y-68188527D01*
X190276749Y-68047811D01*
X190175528Y-67924472D01*
X190052189Y-67823251D01*
X189911473Y-67748037D01*
X189758788Y-67701720D01*
X189639791Y-67690000D01*
X111239788Y-67690000D01*
X111200000Y-67686081D01*
X111160212Y-67690000D01*
X109939787Y-67690000D01*
X109899999Y-67686081D01*
X109860211Y-67690000D01*
X109860209Y-67690000D01*
X109741212Y-67701720D01*
X109588527Y-67748037D01*
X109447811Y-67823251D01*
X109324472Y-67924472D01*
X109299100Y-67955388D01*
X108899108Y-68355380D01*
X108823251Y-68447811D01*
X108748038Y-68588527D01*
X108701721Y-68741213D01*
X108686081Y-68900000D01*
X108701721Y-69058787D01*
X108748038Y-69211473D01*
X108823251Y-69352189D01*
X108924473Y-69475527D01*
X109047811Y-69576749D01*
X109188527Y-69651962D01*
X109341213Y-69698279D01*
X109500000Y-69713919D01*
X109658787Y-69698279D01*
X109811473Y-69651962D01*
X109952189Y-69576749D01*
X110044620Y-69500892D01*
X110235512Y-69310000D01*
X110490000Y-69310000D01*
X110490001Y-78194515D01*
X110490000Y-78194525D01*
X110490000Y-78774818D01*
X106835000Y-75119818D01*
X106835000Y-70663252D01*
X106852598Y-70651493D01*
X106951493Y-70552598D01*
X107029193Y-70436311D01*
X107082715Y-70307099D01*
X107110000Y-70169929D01*
X107110000Y-70030071D01*
X107082715Y-69892901D01*
X107029193Y-69763689D01*
X106951493Y-69647402D01*
X106852598Y-69548507D01*
X106736311Y-69470807D01*
X106607099Y-69417285D01*
X106469929Y-69390000D01*
X106330071Y-69390000D01*
X106192901Y-69417285D01*
X106063689Y-69470807D01*
X105947402Y-69548507D01*
X105848507Y-69647402D01*
X105770807Y-69763689D01*
X105717285Y-69892901D01*
X105690000Y-70030071D01*
X105690000Y-70169929D01*
X105717285Y-70307099D01*
X105770807Y-70436311D01*
X105848507Y-70552598D01*
X105947402Y-70651493D01*
X105965000Y-70663252D01*
X105965001Y-74949795D01*
X101072712Y-70057506D01*
X101072707Y-70057500D01*
X101055883Y-70040676D01*
X101060012Y-70019917D01*
X101060012Y-69880059D01*
X101032727Y-69742889D01*
X100979205Y-69613677D01*
X100901505Y-69497390D01*
X100802610Y-69398495D01*
X100686323Y-69320795D01*
X100557111Y-69267273D01*
X100419941Y-69239988D01*
X100280083Y-69239988D01*
X100142913Y-69267273D01*
X100013701Y-69320795D01*
X99897414Y-69398495D01*
X99798519Y-69497390D01*
X99720819Y-69613677D01*
X99667297Y-69742889D01*
X99640012Y-69880059D01*
X99640012Y-70019917D01*
X99667297Y-70157087D01*
X99720819Y-70286299D01*
X99798519Y-70402586D01*
X99897414Y-70501481D01*
X100013701Y-70579181D01*
X100142913Y-70632703D01*
X100280083Y-70659988D01*
X100419941Y-70659988D01*
X100440700Y-70655859D01*
X100457524Y-70672683D01*
X100457530Y-70672688D01*
X118179828Y-88394987D01*
X118193444Y-88411578D01*
X118259681Y-88465938D01*
X118335251Y-88506330D01*
X118392373Y-88523658D01*
X118417247Y-88531204D01*
X118425537Y-88532020D01*
X118481161Y-88537499D01*
X118481168Y-88537499D01*
X118502522Y-88539602D01*
X118523876Y-88537499D01*
X125346813Y-88537499D01*
X125275788Y-88595788D01*
X125130829Y-88772421D01*
X125023115Y-88973940D01*
X124956785Y-89192600D01*
X124934388Y-89420000D01*
X124956785Y-89647400D01*
X125023115Y-89866060D01*
X125130829Y-90067579D01*
X125210780Y-90165000D01*
X115895868Y-90165000D01*
X95538385Y-69807518D01*
X95524764Y-69790921D01*
X95458527Y-69736561D01*
X95382957Y-69696169D01*
X95300960Y-69671295D01*
X95237047Y-69665000D01*
X95237039Y-69665000D01*
X95215685Y-69662897D01*
X95194331Y-69665000D01*
X94763252Y-69665000D01*
X94751493Y-69647402D01*
X94652598Y-69548507D01*
X94536311Y-69470807D01*
X94407099Y-69417285D01*
X94269929Y-69390000D01*
X94130071Y-69390000D01*
X93992901Y-69417285D01*
X93863689Y-69470807D01*
X93747402Y-69548507D01*
X93648507Y-69647402D01*
X93570807Y-69763689D01*
X93517285Y-69892901D01*
X93490000Y-70030071D01*
X89202631Y-70030071D01*
X89200102Y-67550090D01*
X200149898Y-67649910D01*
X200149898Y-67649910D01*
G37*
X200149898Y-67649910D02*
X200100102Y-116599820D01*
X89249898Y-116400180D01*
X89227239Y-94170222D01*
X93650000Y-94170222D01*
X93650000Y-94329778D01*
X93681128Y-94486268D01*
X93742188Y-94633679D01*
X93830832Y-94766345D01*
X93943655Y-94879168D01*
X94076321Y-94967812D01*
X94223732Y-95028872D01*
X94380222Y-95060000D01*
X94539778Y-95060000D01*
X94696268Y-95028872D01*
X94843679Y-94967812D01*
X94976345Y-94879168D01*
X95089168Y-94766345D01*
X95177812Y-94633679D01*
X95238872Y-94486268D01*
X95270000Y-94329778D01*
X95270000Y-94170222D01*
X95238872Y-94013732D01*
X95177812Y-93866321D01*
X95089168Y-93733655D01*
X94976345Y-93620832D01*
X94843679Y-93532188D01*
X94696268Y-93471128D01*
X94539778Y-93440000D01*
X94380222Y-93440000D01*
X94223732Y-93471128D01*
X94076321Y-93532188D01*
X93943655Y-93620832D01*
X93830832Y-93733655D01*
X93742188Y-93866321D01*
X93681128Y-94013732D01*
X93650000Y-94170222D01*
X89227239Y-94170222D01*
X89222754Y-89770222D01*
X93650000Y-89770222D01*
X93650000Y-89929778D01*
X93681128Y-90086268D01*
X93742188Y-90233679D01*
X93830832Y-90366345D01*
X93943655Y-90479168D01*
X94076321Y-90567812D01*
X94223732Y-90628872D01*
X94380222Y-90660000D01*
X94539778Y-90660000D01*
X94696268Y-90628872D01*
X94843679Y-90567812D01*
X94976345Y-90479168D01*
X95089168Y-90366345D01*
X95177812Y-90233679D01*
X95212473Y-90150000D01*
X97936081Y-90150000D01*
X97940000Y-90189788D01*
X97940001Y-111460208D01*
X97936081Y-111500006D01*
X97948211Y-111623156D01*
X97951721Y-111658794D01*
X97986399Y-111773112D01*
X97998038Y-111811479D01*
X98073251Y-111952195D01*
X98119696Y-112008788D01*
X98174473Y-112075534D01*
X98205383Y-112100901D01*
X98499094Y-112394612D01*
X98524466Y-112425528D01*
X98647805Y-112526749D01*
X98788521Y-112601963D01*
X98941206Y-112648280D01*
X99060203Y-112660000D01*
X99060205Y-112660000D01*
X99099993Y-112663919D01*
X99139781Y-112660000D01*
X108615028Y-112660000D01*
X108741212Y-112698278D01*
X108860209Y-112709998D01*
X114060189Y-112709998D01*
X114060209Y-112710000D01*
X134210168Y-112710000D01*
X134210209Y-112710004D01*
X138965034Y-112710004D01*
X139091212Y-112748280D01*
X139210209Y-112760000D01*
X144239791Y-112760000D01*
X144358788Y-112748280D01*
X144484979Y-112710000D01*
X149139789Y-112710000D01*
X149139809Y-112709998D01*
X154160189Y-112709998D01*
X154160209Y-112710000D01*
X169189789Y-112710000D01*
X169189809Y-112709998D01*
X174389789Y-112709998D01*
X174389809Y-112709996D01*
X179139789Y-112709996D01*
X179258786Y-112698276D01*
X179347162Y-112671467D01*
X179404212Y-112701961D01*
X179556897Y-112748278D01*
X179675894Y-112759998D01*
X194910214Y-112759998D01*
X194950002Y-112763917D01*
X194989790Y-112759998D01*
X194989793Y-112759998D01*
X195108790Y-112748278D01*
X195261475Y-112701961D01*
X195402191Y-112626747D01*
X195525530Y-112525526D01*
X195550902Y-112494611D01*
X198150894Y-109894619D01*
X198150898Y-109894614D01*
X198385512Y-109660000D01*
X198459325Y-109660000D01*
X198673775Y-109617343D01*
X198875782Y-109533669D01*
X199057584Y-109412193D01*
X199212193Y-109257584D01*
X199333669Y-109075782D01*
X199417343Y-108873775D01*
X199460000Y-108659325D01*
X199460000Y-108440675D01*
X199417343Y-108226225D01*
X199333669Y-108024218D01*
X199212193Y-107842416D01*
X199057584Y-107687807D01*
X198875782Y-107566331D01*
X198673775Y-107482657D01*
X198459325Y-107440000D01*
X198240675Y-107440000D01*
X198026225Y-107482657D01*
X197824218Y-107566331D01*
X197642416Y-107687807D01*
X197487807Y-107842416D01*
X197366331Y-108024218D01*
X197282657Y-108226225D01*
X197240000Y-108440675D01*
X197240000Y-108514488D01*
X197005386Y-108749102D01*
X197005381Y-108749106D01*
X194614490Y-111139998D01*
X179675894Y-111139998D01*
X179556897Y-111151718D01*
X179468521Y-111178527D01*
X179411471Y-111148033D01*
X179258786Y-111101716D01*
X179139789Y-111089996D01*
X174310209Y-111089996D01*
X174310189Y-111089998D01*
X169110209Y-111089998D01*
X169110189Y-111090000D01*
X154239809Y-111090000D01*
X154239789Y-111089998D01*
X149060209Y-111089998D01*
X149060189Y-111090000D01*
X144210209Y-111090000D01*
X144091212Y-111101720D01*
X143965021Y-111140000D01*
X139484970Y-111140000D01*
X139358792Y-111101724D01*
X139239795Y-111090004D01*
X134289828Y-111090004D01*
X134289787Y-111090000D01*
X114139809Y-111090000D01*
X114139789Y-111089998D01*
X109134974Y-111089998D01*
X109008790Y-111051720D01*
X108889793Y-111040000D01*
X99560000Y-111040000D01*
X99560000Y-90485512D01*
X100135513Y-89910000D01*
X100763964Y-89910000D01*
X100874218Y-89983669D01*
X101076225Y-90067343D01*
X101290675Y-90110000D01*
X101509325Y-90110000D01*
X101723775Y-90067343D01*
X101925782Y-89983669D01*
X102107584Y-89862193D01*
X102262193Y-89707584D01*
X102383669Y-89525782D01*
X102467343Y-89323775D01*
X102510000Y-89109325D01*
X102510000Y-88890675D01*
X102467343Y-88676225D01*
X102383669Y-88474218D01*
X102262193Y-88292416D01*
X102107584Y-88137807D01*
X101925782Y-88016331D01*
X101723775Y-87932657D01*
X101509325Y-87890000D01*
X101290675Y-87890000D01*
X101076225Y-87932657D01*
X100874218Y-88016331D01*
X100692416Y-88137807D01*
X100540223Y-88290000D01*
X99839787Y-88290000D01*
X99799999Y-88286081D01*
X99760211Y-88290000D01*
X99760209Y-88290000D01*
X99641212Y-88301720D01*
X99488527Y-88348037D01*
X99445014Y-88371295D01*
X99347810Y-88423251D01*
X99296939Y-88465000D01*
X99224472Y-88524472D01*
X99199105Y-88555382D01*
X98205387Y-89549101D01*
X98174472Y-89574472D01*
X98113714Y-89648507D01*
X98073251Y-89697811D01*
X98053642Y-89734498D01*
X97998037Y-89838528D01*
X97951720Y-89991213D01*
X97944688Y-90062614D01*
X97936081Y-90150000D01*
X95212473Y-90150000D01*
X95238872Y-90086268D01*
X95270000Y-89929778D01*
X95270000Y-89770222D01*
X95238872Y-89613732D01*
X95177812Y-89466321D01*
X95089168Y-89333655D01*
X94976345Y-89220832D01*
X94843679Y-89132188D01*
X94696268Y-89071128D01*
X94539778Y-89040000D01*
X94380222Y-89040000D01*
X94223732Y-89071128D01*
X94076321Y-89132188D01*
X93943655Y-89220832D01*
X93830832Y-89333655D01*
X93742188Y-89466321D01*
X93681128Y-89613732D01*
X93650000Y-89770222D01*
X89222754Y-89770222D01*
X89202631Y-70030071D01*
X93490000Y-70030071D01*
X93490000Y-70169929D01*
X93517285Y-70307099D01*
X93570807Y-70436311D01*
X93648507Y-70552598D01*
X93747402Y-70651493D01*
X93863689Y-70729193D01*
X93992901Y-70782715D01*
X94130071Y-70810000D01*
X94269929Y-70810000D01*
X94407099Y-70782715D01*
X94536311Y-70729193D01*
X94652598Y-70651493D01*
X94751493Y-70552598D01*
X94763252Y-70535000D01*
X95035503Y-70535000D01*
X110725345Y-86224843D01*
X110707099Y-86217285D01*
X110569929Y-86190000D01*
X110430071Y-86190000D01*
X110292901Y-86217285D01*
X110163689Y-86270807D01*
X110047402Y-86348507D01*
X109948507Y-86447402D01*
X109870807Y-86563689D01*
X109817285Y-86692901D01*
X109792987Y-86815054D01*
X105973468Y-90634573D01*
X105952104Y-90652106D01*
X105882124Y-90737377D01*
X105830124Y-90834663D01*
X105798102Y-90940223D01*
X105789999Y-91022496D01*
X105789999Y-91022505D01*
X105787291Y-91050001D01*
X105789999Y-91077497D01*
X105790000Y-98280495D01*
X105787291Y-98308001D01*
X105798103Y-98417780D01*
X105830125Y-98523340D01*
X105882124Y-98620625D01*
X105934570Y-98684531D01*
X105934577Y-98684538D01*
X105952105Y-98705896D01*
X105973463Y-98723424D01*
X107990037Y-100739999D01*
X104931959Y-100739999D01*
X103607013Y-99415054D01*
X103582715Y-99292901D01*
X103529193Y-99163689D01*
X103451493Y-99047402D01*
X103352598Y-98948507D01*
X103236311Y-98870807D01*
X103107099Y-98817285D01*
X102969929Y-98790000D01*
X102830071Y-98790000D01*
X102692901Y-98817285D01*
X102563689Y-98870807D01*
X102447402Y-98948507D01*
X102348507Y-99047402D01*
X102270807Y-99163689D01*
X102217285Y-99292901D01*
X102190000Y-99430071D01*
X102190000Y-99569929D01*
X102217285Y-99707099D01*
X102270807Y-99836311D01*
X102348507Y-99952598D01*
X102447402Y-100051493D01*
X102563689Y-100129193D01*
X102692901Y-100182715D01*
X102815054Y-100207013D01*
X104284576Y-101676536D01*
X104302104Y-101697894D01*
X104323462Y-101715422D01*
X104323468Y-101715428D01*
X104387374Y-101767874D01*
X104439374Y-101795668D01*
X104484660Y-101819874D01*
X104590220Y-101851896D01*
X104672493Y-101859999D01*
X104672503Y-101859999D01*
X104699999Y-101862707D01*
X104727495Y-101859999D01*
X176372501Y-101859999D01*
X176399997Y-101862707D01*
X176427493Y-101859999D01*
X176427503Y-101859999D01*
X176509776Y-101851896D01*
X176615336Y-101819874D01*
X176712621Y-101767874D01*
X176797892Y-101697894D01*
X176815425Y-101676530D01*
X178636674Y-99855282D01*
X178660373Y-99859996D01*
X178839627Y-99859996D01*
X179015437Y-99825025D01*
X179181047Y-99756427D01*
X179330091Y-99656839D01*
X179456843Y-99530087D01*
X179556431Y-99381043D01*
X179625029Y-99215433D01*
X179660000Y-99039623D01*
X179660000Y-98860369D01*
X179625029Y-98684559D01*
X179556431Y-98518949D01*
X179456843Y-98369905D01*
X179330091Y-98243153D01*
X179181047Y-98143565D01*
X179015437Y-98074967D01*
X178839627Y-98039996D01*
X178660373Y-98039996D01*
X178484563Y-98074967D01*
X178318953Y-98143565D01*
X178169909Y-98243153D01*
X178043157Y-98369905D01*
X177943569Y-98518949D01*
X177874971Y-98684559D01*
X177840000Y-98860369D01*
X177840000Y-99039623D01*
X177844714Y-99063322D01*
X176168038Y-100739999D01*
X157326729Y-100739999D01*
X157329193Y-100736311D01*
X157382715Y-100607099D01*
X157410000Y-100469929D01*
X157410000Y-100330071D01*
X157382715Y-100192901D01*
X157329193Y-100063689D01*
X157251493Y-99947402D01*
X157152598Y-99848507D01*
X157036311Y-99770807D01*
X156907099Y-99717285D01*
X156769929Y-99690000D01*
X156630071Y-99690000D01*
X156492901Y-99717285D01*
X156363689Y-99770807D01*
X156260134Y-99840000D01*
X143039866Y-99840000D01*
X143032383Y-99835000D01*
X152678646Y-99835000D01*
X152700000Y-99837103D01*
X152721354Y-99835000D01*
X152721362Y-99835000D01*
X152785275Y-99828705D01*
X152867272Y-99803831D01*
X152942842Y-99763439D01*
X153009079Y-99709079D01*
X153022700Y-99692482D01*
X153209312Y-99505871D01*
X153230071Y-99510000D01*
X153369929Y-99510000D01*
X153507099Y-99482715D01*
X153636311Y-99429193D01*
X153752598Y-99351493D01*
X153851493Y-99252598D01*
X153929193Y-99136311D01*
X153982715Y-99007099D01*
X154010000Y-98869929D01*
X154010000Y-98730071D01*
X153982715Y-98592901D01*
X153929193Y-98463689D01*
X153910024Y-98435000D01*
X158436748Y-98435000D01*
X158448507Y-98452598D01*
X158547402Y-98551493D01*
X158663689Y-98629193D01*
X158792901Y-98682715D01*
X158930071Y-98710000D01*
X159069929Y-98710000D01*
X159207099Y-98682715D01*
X159336311Y-98629193D01*
X159452598Y-98551493D01*
X159551493Y-98452598D01*
X159629193Y-98336311D01*
X159682715Y-98207099D01*
X159710000Y-98069929D01*
X159710000Y-97930071D01*
X159682715Y-97792901D01*
X159629193Y-97663689D01*
X159610024Y-97635000D01*
X162036748Y-97635000D01*
X162048507Y-97652598D01*
X162147402Y-97751493D01*
X162263689Y-97829193D01*
X162392901Y-97882715D01*
X162530071Y-97910000D01*
X162669929Y-97910000D01*
X162807099Y-97882715D01*
X162936311Y-97829193D01*
X163052598Y-97751493D01*
X163151493Y-97652598D01*
X163229193Y-97536311D01*
X163282715Y-97407099D01*
X163310000Y-97269929D01*
X163310000Y-97130071D01*
X163282715Y-96992901D01*
X163229193Y-96863689D01*
X163151493Y-96747402D01*
X163052598Y-96648507D01*
X162936311Y-96570807D01*
X162807099Y-96517285D01*
X162669929Y-96490000D01*
X162530071Y-96490000D01*
X162392901Y-96517285D01*
X162263689Y-96570807D01*
X162147402Y-96648507D01*
X162048507Y-96747402D01*
X162036748Y-96765000D01*
X152180183Y-96765000D01*
X150695183Y-95280000D01*
X157434388Y-95280000D01*
X157456785Y-95507400D01*
X157523115Y-95726060D01*
X157630829Y-95927579D01*
X157775788Y-96104212D01*
X157952421Y-96249171D01*
X158153940Y-96356885D01*
X158372600Y-96423215D01*
X158543021Y-96440000D01*
X158656979Y-96440000D01*
X158827400Y-96423215D01*
X159046060Y-96356885D01*
X159247579Y-96249171D01*
X159424212Y-96104212D01*
X159569171Y-95927579D01*
X159676885Y-95726060D01*
X159743215Y-95507400D01*
X159765612Y-95280000D01*
X159743215Y-95052600D01*
X159676885Y-94833940D01*
X159569171Y-94632421D01*
X159424212Y-94455788D01*
X159247579Y-94310829D01*
X159046060Y-94203115D01*
X158827400Y-94136785D01*
X158656979Y-94120000D01*
X158543021Y-94120000D01*
X158372600Y-94136785D01*
X158153940Y-94203115D01*
X157952421Y-94310829D01*
X157775788Y-94455788D01*
X157630829Y-94632421D01*
X157523115Y-94833940D01*
X157456785Y-95052600D01*
X157434388Y-95280000D01*
X150695183Y-95280000D01*
X148699138Y-93283956D01*
X148830071Y-93310000D01*
X148969929Y-93310000D01*
X149107099Y-93282715D01*
X149236311Y-93229193D01*
X149352598Y-93151493D01*
X149451493Y-93052598D01*
X149463252Y-93035000D01*
X153178646Y-93035000D01*
X153200000Y-93037103D01*
X153221354Y-93035000D01*
X153221362Y-93035000D01*
X153285275Y-93028705D01*
X153367272Y-93003831D01*
X153442842Y-92963439D01*
X153509079Y-92909079D01*
X153522700Y-92892482D01*
X153675182Y-92740000D01*
X157434388Y-92740000D01*
X157456785Y-92967400D01*
X157523115Y-93186060D01*
X157630829Y-93387579D01*
X157775788Y-93564212D01*
X157952421Y-93709171D01*
X158153940Y-93816885D01*
X158372600Y-93883215D01*
X158543021Y-93900000D01*
X158656979Y-93900000D01*
X158827400Y-93883215D01*
X159046060Y-93816885D01*
X159247579Y-93709171D01*
X159424212Y-93564212D01*
X159569171Y-93387579D01*
X159676885Y-93186060D01*
X159743215Y-92967400D01*
X159765612Y-92740000D01*
X159743215Y-92512600D01*
X159676885Y-92293940D01*
X159569171Y-92092421D01*
X159424212Y-91915788D01*
X159247579Y-91770829D01*
X159046060Y-91663115D01*
X158827400Y-91596785D01*
X158656979Y-91580000D01*
X158543021Y-91580000D01*
X158372600Y-91596785D01*
X158153940Y-91663115D01*
X157952421Y-91770829D01*
X157775788Y-91915788D01*
X157630829Y-92092421D01*
X157523115Y-92293940D01*
X157456785Y-92512600D01*
X157434388Y-92740000D01*
X153675182Y-92740000D01*
X157180182Y-89235000D01*
X168319818Y-89235000D01*
X170965006Y-91880189D01*
X170965006Y-91936748D01*
X170947408Y-91948507D01*
X170848513Y-92047402D01*
X170770813Y-92163689D01*
X170717291Y-92292901D01*
X170690006Y-92430071D01*
X170690006Y-92569929D01*
X170717291Y-92707099D01*
X170770813Y-92836311D01*
X170848513Y-92952598D01*
X170947408Y-93051493D01*
X171063695Y-93129193D01*
X171192907Y-93182715D01*
X171330077Y-93210000D01*
X171469935Y-93210000D01*
X171607105Y-93182715D01*
X171736317Y-93129193D01*
X171852604Y-93051493D01*
X171951499Y-92952598D01*
X172029199Y-92836311D01*
X172082721Y-92707099D01*
X172110006Y-92569929D01*
X172110006Y-92430071D01*
X172082721Y-92292901D01*
X172029199Y-92163689D01*
X171951499Y-92047402D01*
X171852604Y-91948507D01*
X171835006Y-91936748D01*
X171835006Y-91721360D01*
X171837109Y-91700006D01*
X171835006Y-91678652D01*
X171835006Y-91678644D01*
X171828711Y-91614731D01*
X171803837Y-91532734D01*
X171763445Y-91457164D01*
X171709085Y-91390927D01*
X171692495Y-91377312D01*
X170956059Y-90640877D01*
X171038971Y-90606533D01*
X171155258Y-90528833D01*
X171254153Y-90429938D01*
X171331853Y-90313651D01*
X171385375Y-90184439D01*
X171412660Y-90047269D01*
X171412660Y-89907411D01*
X171385375Y-89770241D01*
X171331853Y-89641029D01*
X171254153Y-89524742D01*
X171155258Y-89425847D01*
X171038971Y-89348147D01*
X170909759Y-89294625D01*
X170772589Y-89267340D01*
X170632731Y-89267340D01*
X170611972Y-89271469D01*
X169675482Y-88334980D01*
X171119798Y-88334980D01*
X174665000Y-91880183D01*
X174665001Y-93236748D01*
X174647402Y-93248507D01*
X174548507Y-93347402D01*
X174470807Y-93463689D01*
X174417285Y-93592901D01*
X174390000Y-93730071D01*
X174390000Y-93869929D01*
X174417285Y-94007099D01*
X174470807Y-94136311D01*
X174548507Y-94252598D01*
X174647402Y-94351493D01*
X174763689Y-94429193D01*
X174892901Y-94482715D01*
X175030071Y-94510000D01*
X175169929Y-94510000D01*
X175307099Y-94482715D01*
X175436311Y-94429193D01*
X175552598Y-94351493D01*
X175651493Y-94252598D01*
X175729193Y-94136311D01*
X175782715Y-94007099D01*
X175810000Y-93869929D01*
X175810000Y-93730071D01*
X175782715Y-93592901D01*
X175729193Y-93463689D01*
X175651493Y-93347402D01*
X175552598Y-93248507D01*
X175535000Y-93236748D01*
X175535000Y-91721354D01*
X175537103Y-91700000D01*
X175535000Y-91678644D01*
X175535000Y-91678638D01*
X175528705Y-91614725D01*
X175503831Y-91532728D01*
X175463439Y-91457158D01*
X175409079Y-91390921D01*
X175392487Y-91377304D01*
X172445262Y-88430079D01*
X179990000Y-88430079D01*
X179990000Y-88569937D01*
X180017285Y-88707107D01*
X180070807Y-88836319D01*
X180140001Y-88939876D01*
X180140000Y-95110136D01*
X180070807Y-95213691D01*
X180017285Y-95342903D01*
X179990000Y-95480073D01*
X179990000Y-95619931D01*
X180017285Y-95757101D01*
X180070807Y-95886313D01*
X180148507Y-96002600D01*
X180247402Y-96101495D01*
X180363689Y-96179195D01*
X180492901Y-96232717D01*
X180630071Y-96260002D01*
X180769929Y-96260002D01*
X180907099Y-96232717D01*
X181036311Y-96179195D01*
X181152598Y-96101495D01*
X181251493Y-96002600D01*
X181329193Y-95886313D01*
X181382715Y-95757101D01*
X181410000Y-95619931D01*
X181410000Y-95480073D01*
X181382715Y-95342903D01*
X181329193Y-95213691D01*
X181260000Y-95110136D01*
X181260000Y-90870675D01*
X186220000Y-90870675D01*
X186220000Y-91089325D01*
X186262657Y-91303775D01*
X186346331Y-91505782D01*
X186467807Y-91687584D01*
X186622416Y-91842193D01*
X186804218Y-91963669D01*
X186843645Y-91980000D01*
X186804218Y-91996331D01*
X186622416Y-92117807D01*
X186467807Y-92272416D01*
X186346331Y-92454218D01*
X186262657Y-92656225D01*
X186220000Y-92870675D01*
X186220000Y-93089325D01*
X186262657Y-93303775D01*
X186346331Y-93505782D01*
X186467807Y-93687584D01*
X186622416Y-93842193D01*
X186804218Y-93963669D01*
X187006225Y-94047343D01*
X187220675Y-94090000D01*
X187439325Y-94090000D01*
X187653775Y-94047343D01*
X187855782Y-93963669D01*
X188037584Y-93842193D01*
X188192193Y-93687584D01*
X188313669Y-93505782D01*
X188397343Y-93303775D01*
X188440000Y-93089325D01*
X188440000Y-92870675D01*
X188397343Y-92656225D01*
X188313669Y-92454218D01*
X188192193Y-92272416D01*
X188037584Y-92117807D01*
X187855782Y-91996331D01*
X187816355Y-91980000D01*
X187855782Y-91963669D01*
X188037584Y-91842193D01*
X188192193Y-91687584D01*
X188313669Y-91505782D01*
X188397343Y-91303775D01*
X188440000Y-91089325D01*
X188440000Y-90870675D01*
X188397343Y-90656225D01*
X188313669Y-90454218D01*
X188192193Y-90272416D01*
X188037584Y-90117807D01*
X187855782Y-89996331D01*
X187653775Y-89912657D01*
X187439325Y-89870000D01*
X187220675Y-89870000D01*
X187006225Y-89912657D01*
X186804218Y-89996331D01*
X186622416Y-90117807D01*
X186467807Y-90272416D01*
X186346331Y-90454218D01*
X186262657Y-90656225D01*
X186220000Y-90870675D01*
X181260000Y-90870675D01*
X181260000Y-88939874D01*
X181329193Y-88836319D01*
X181382715Y-88707107D01*
X181410000Y-88569937D01*
X181410000Y-88430079D01*
X181382715Y-88292909D01*
X181329193Y-88163697D01*
X181251493Y-88047410D01*
X181152598Y-87948515D01*
X181036311Y-87870815D01*
X180907099Y-87817293D01*
X180769929Y-87790008D01*
X180630071Y-87790008D01*
X180492901Y-87817293D01*
X180363689Y-87870815D01*
X180247402Y-87948515D01*
X180148507Y-88047410D01*
X180070807Y-88163697D01*
X180017285Y-88292909D01*
X179990000Y-88430079D01*
X172445262Y-88430079D01*
X171695183Y-87680000D01*
X186218501Y-87680000D01*
X186218501Y-89280000D01*
X186224486Y-89340770D01*
X186242212Y-89399206D01*
X186270998Y-89453060D01*
X186309737Y-89500263D01*
X186356940Y-89539002D01*
X186410794Y-89567788D01*
X186469230Y-89585514D01*
X186530000Y-89591499D01*
X188130000Y-89591499D01*
X188190770Y-89585514D01*
X188249206Y-89567788D01*
X188303060Y-89539002D01*
X188350263Y-89500263D01*
X188389002Y-89453060D01*
X188417788Y-89399206D01*
X188435514Y-89340770D01*
X188441499Y-89280000D01*
X188441499Y-87680000D01*
X188435514Y-87619230D01*
X188417788Y-87560794D01*
X188389002Y-87506940D01*
X188350263Y-87459737D01*
X188303060Y-87420998D01*
X188249206Y-87392212D01*
X188190770Y-87374486D01*
X188130000Y-87368501D01*
X186530000Y-87368501D01*
X186469230Y-87374486D01*
X186410794Y-87392212D01*
X186356940Y-87420998D01*
X186309737Y-87459737D01*
X186270998Y-87506940D01*
X186242212Y-87560794D01*
X186224486Y-87619230D01*
X186218501Y-87680000D01*
X171695183Y-87680000D01*
X171622680Y-87607498D01*
X171609059Y-87590901D01*
X171542822Y-87536541D01*
X171467252Y-87496149D01*
X171385255Y-87471275D01*
X171321342Y-87464980D01*
X171321334Y-87464980D01*
X171299980Y-87462877D01*
X171278626Y-87464980D01*
X156321373Y-87464980D01*
X156300019Y-87462877D01*
X156278665Y-87464980D01*
X156278658Y-87464980D01*
X156223034Y-87470459D01*
X156214744Y-87471275D01*
X156189870Y-87478821D01*
X156132748Y-87496149D01*
X156057178Y-87536541D01*
X155990941Y-87590901D01*
X155977325Y-87607492D01*
X153319818Y-90265000D01*
X153032383Y-90265000D01*
X153052598Y-90251493D01*
X153151493Y-90152598D01*
X153229193Y-90036311D01*
X153282715Y-89907099D01*
X153310000Y-89769929D01*
X153310000Y-89630071D01*
X153282715Y-89492901D01*
X153229193Y-89363689D01*
X153151493Y-89247402D01*
X153052598Y-89148507D01*
X152936311Y-89070807D01*
X152807099Y-89017285D01*
X152684947Y-88992987D01*
X151813904Y-88121945D01*
X151789606Y-87999792D01*
X151736084Y-87870580D01*
X151658384Y-87754293D01*
X151559489Y-87655398D01*
X151443202Y-87577698D01*
X151313990Y-87524176D01*
X151191837Y-87499878D01*
X146410000Y-82718041D01*
X146410000Y-82630071D01*
X146382715Y-82492901D01*
X146329193Y-82363689D01*
X146251493Y-82247402D01*
X146152598Y-82148507D01*
X146036311Y-82070807D01*
X145907099Y-82017285D01*
X145769929Y-81990000D01*
X145630071Y-81990000D01*
X145492901Y-82017285D01*
X145438063Y-82040000D01*
X117261937Y-82040000D01*
X117207099Y-82017285D01*
X117069929Y-81990000D01*
X116930071Y-81990000D01*
X116792901Y-82017285D01*
X116663689Y-82070807D01*
X116547402Y-82148507D01*
X116448507Y-82247402D01*
X116370807Y-82363689D01*
X116317285Y-82492901D01*
X116290000Y-82630071D01*
X116290000Y-82769929D01*
X116317285Y-82907099D01*
X116370807Y-83036311D01*
X116448507Y-83152598D01*
X116547402Y-83251493D01*
X116663689Y-83329193D01*
X116792901Y-83382715D01*
X116930071Y-83410000D01*
X117069929Y-83410000D01*
X117207099Y-83382715D01*
X117336311Y-83329193D01*
X117452598Y-83251493D01*
X117544091Y-83160000D01*
X145155909Y-83160000D01*
X145247402Y-83251493D01*
X145363689Y-83329193D01*
X145489239Y-83381198D01*
X150399878Y-88291837D01*
X150424176Y-88413990D01*
X150477698Y-88543202D01*
X150555398Y-88659489D01*
X150654293Y-88758384D01*
X150770580Y-88836084D01*
X150899792Y-88889606D01*
X151021945Y-88913904D01*
X151892987Y-89784947D01*
X151917285Y-89907099D01*
X151970807Y-90036311D01*
X152048507Y-90152598D01*
X152147402Y-90251493D01*
X152167617Y-90265000D01*
X147663252Y-90265000D01*
X147651493Y-90247402D01*
X147552598Y-90148507D01*
X147436311Y-90070807D01*
X147307099Y-90017285D01*
X147169929Y-89990000D01*
X147030071Y-89990000D01*
X146892901Y-90017285D01*
X146763689Y-90070807D01*
X146647402Y-90148507D01*
X146548507Y-90247402D01*
X146470807Y-90363689D01*
X146417285Y-90492901D01*
X146390000Y-90630071D01*
X146390000Y-90769929D01*
X146417285Y-90907099D01*
X146470807Y-91036311D01*
X146509698Y-91094515D01*
X143905871Y-88490689D01*
X143910000Y-88469929D01*
X143910000Y-88330071D01*
X143882715Y-88192901D01*
X143829193Y-88063689D01*
X143751493Y-87947402D01*
X143652598Y-87848507D01*
X143536311Y-87770807D01*
X143407099Y-87717285D01*
X143269929Y-87690000D01*
X143130071Y-87690000D01*
X142992901Y-87717285D01*
X142863689Y-87770807D01*
X142747402Y-87848507D01*
X142648507Y-87947402D01*
X142570807Y-88063689D01*
X142517285Y-88192901D01*
X142490000Y-88330071D01*
X142490000Y-88469929D01*
X142517285Y-88607099D01*
X142570807Y-88736311D01*
X142648507Y-88852598D01*
X142747402Y-88951493D01*
X142863689Y-89029193D01*
X142992901Y-89082715D01*
X143130071Y-89110000D01*
X143269929Y-89110000D01*
X143290689Y-89105871D01*
X151677305Y-97492488D01*
X151690921Y-97509079D01*
X151757158Y-97563439D01*
X151760078Y-97565000D01*
X148680183Y-97565000D01*
X141405871Y-90290689D01*
X141410000Y-90269929D01*
X141410000Y-90130071D01*
X141382715Y-89992901D01*
X141329193Y-89863689D01*
X141251493Y-89747402D01*
X141152598Y-89648507D01*
X141036311Y-89570807D01*
X140907099Y-89517285D01*
X140769929Y-89490000D01*
X140630071Y-89490000D01*
X140492901Y-89517285D01*
X140363689Y-89570807D01*
X140247402Y-89648507D01*
X140148507Y-89747402D01*
X140070807Y-89863689D01*
X140017285Y-89992901D01*
X139990000Y-90130071D01*
X139990000Y-90269929D01*
X140017285Y-90407099D01*
X140070807Y-90536311D01*
X140148507Y-90652598D01*
X140247402Y-90751493D01*
X140363689Y-90829193D01*
X140492901Y-90882715D01*
X140630071Y-90910000D01*
X140769929Y-90910000D01*
X140790689Y-90905871D01*
X148177305Y-98292488D01*
X148190921Y-98309079D01*
X148257158Y-98363439D01*
X148332728Y-98403831D01*
X148414725Y-98428705D01*
X148478638Y-98435000D01*
X148478646Y-98435000D01*
X148500000Y-98437103D01*
X148521354Y-98435000D01*
X152689976Y-98435000D01*
X152670807Y-98463689D01*
X152617285Y-98592901D01*
X152590000Y-98730071D01*
X152590000Y-98869929D01*
X152594129Y-98890688D01*
X152519818Y-98965000D01*
X136339591Y-98965000D01*
X136989716Y-98314876D01*
X137039964Y-98324871D01*
X137179822Y-98324871D01*
X137316992Y-98297586D01*
X137446204Y-98244064D01*
X137562491Y-98166364D01*
X137661386Y-98067469D01*
X137739086Y-97951182D01*
X137792608Y-97821970D01*
X137819893Y-97684800D01*
X137819893Y-97544942D01*
X137792608Y-97407772D01*
X137739086Y-97278560D01*
X137661386Y-97162273D01*
X137562491Y-97063378D01*
X137446204Y-96985678D01*
X137316992Y-96932156D01*
X137179822Y-96904871D01*
X137039964Y-96904871D01*
X136902794Y-96932156D01*
X136864179Y-96948151D01*
X136829193Y-96863689D01*
X136751493Y-96747402D01*
X136652598Y-96648507D01*
X136536311Y-96570807D01*
X136407099Y-96517285D01*
X136269929Y-96490000D01*
X136130071Y-96490000D01*
X135992901Y-96517285D01*
X135863689Y-96570807D01*
X135747402Y-96648507D01*
X135648507Y-96747402D01*
X135570807Y-96863689D01*
X135517285Y-96992901D01*
X135490000Y-97130071D01*
X135490000Y-97269929D01*
X135499995Y-97320177D01*
X134755174Y-98065000D01*
X126643130Y-98065000D01*
X126747579Y-98009171D01*
X126924212Y-97864212D01*
X127069171Y-97687579D01*
X127176885Y-97486060D01*
X127243215Y-97267400D01*
X127265612Y-97040000D01*
X127243215Y-96812600D01*
X127176885Y-96593940D01*
X127069171Y-96392421D01*
X126924212Y-96215788D01*
X126747579Y-96070829D01*
X126546060Y-95963115D01*
X126327400Y-95896785D01*
X126156979Y-95880000D01*
X126043021Y-95880000D01*
X125872600Y-95896785D01*
X125653940Y-95963115D01*
X125452421Y-96070829D01*
X125275788Y-96215788D01*
X125130829Y-96392421D01*
X125023115Y-96593940D01*
X124956785Y-96812600D01*
X124934388Y-97040000D01*
X124956785Y-97267400D01*
X125023115Y-97486060D01*
X125130829Y-97687579D01*
X125275788Y-97864212D01*
X125452421Y-98009171D01*
X125556870Y-98065000D01*
X115419828Y-98065000D01*
X111854827Y-94500000D01*
X124934388Y-94500000D01*
X124956785Y-94727400D01*
X125023115Y-94946060D01*
X125130829Y-95147579D01*
X125275788Y-95324212D01*
X125452421Y-95469171D01*
X125653940Y-95576885D01*
X125872600Y-95643215D01*
X126043021Y-95660000D01*
X126156979Y-95660000D01*
X126327400Y-95643215D01*
X126546060Y-95576885D01*
X126747579Y-95469171D01*
X126924212Y-95324212D01*
X127069171Y-95147579D01*
X127176885Y-94946060D01*
X127243215Y-94727400D01*
X127243801Y-94721446D01*
X130292910Y-94721446D01*
X130292910Y-94900700D01*
X130327881Y-95076510D01*
X130396479Y-95242120D01*
X130496067Y-95391164D01*
X130622819Y-95517916D01*
X130771863Y-95617504D01*
X130937473Y-95686102D01*
X131113283Y-95721073D01*
X131292537Y-95721073D01*
X131468347Y-95686102D01*
X131633957Y-95617504D01*
X131783001Y-95517916D01*
X131909753Y-95391164D01*
X132009341Y-95242120D01*
X132074371Y-95085125D01*
X132403802Y-94755694D01*
X132403806Y-94755689D01*
X133449496Y-93710000D01*
X135377569Y-93710000D01*
X135534563Y-93775029D01*
X135710373Y-93810000D01*
X135889627Y-93810000D01*
X136065437Y-93775029D01*
X136231047Y-93706431D01*
X136380091Y-93606843D01*
X136506843Y-93480091D01*
X136606431Y-93331047D01*
X136675029Y-93165437D01*
X136710000Y-92989627D01*
X136710000Y-92810373D01*
X136675029Y-92634563D01*
X136606431Y-92468953D01*
X136506843Y-92319909D01*
X136380091Y-92193157D01*
X136231047Y-92093569D01*
X136065437Y-92024971D01*
X135889627Y-91990000D01*
X135710373Y-91990000D01*
X135534563Y-92024971D01*
X135377569Y-92090000D01*
X133153771Y-92090000D01*
X133113983Y-92086081D01*
X133074195Y-92090000D01*
X133074192Y-92090000D01*
X132955195Y-92101720D01*
X132866219Y-92128711D01*
X132802509Y-92148037D01*
X132712461Y-92196169D01*
X132661794Y-92223251D01*
X132538455Y-92324472D01*
X132513088Y-92355382D01*
X131258294Y-93610177D01*
X131258289Y-93610181D01*
X130928858Y-93939612D01*
X130771863Y-94004642D01*
X130622819Y-94104230D01*
X130496067Y-94230982D01*
X130396479Y-94380026D01*
X130327881Y-94545636D01*
X130292910Y-94721446D01*
X127243801Y-94721446D01*
X127265612Y-94500000D01*
X127243215Y-94272600D01*
X127176885Y-94053940D01*
X127069171Y-93852421D01*
X126924212Y-93675788D01*
X126747579Y-93530829D01*
X126546060Y-93423115D01*
X126327400Y-93356785D01*
X126156979Y-93340000D01*
X126043021Y-93340000D01*
X125872600Y-93356785D01*
X125653940Y-93423115D01*
X125452421Y-93530829D01*
X125275788Y-93675788D01*
X125130829Y-93852421D01*
X125023115Y-94053940D01*
X124956785Y-94272600D01*
X124934388Y-94500000D01*
X111854827Y-94500000D01*
X109000005Y-91645179D01*
X109010000Y-91594929D01*
X109010000Y-91455071D01*
X108982715Y-91317901D01*
X108929193Y-91188689D01*
X108851493Y-91072402D01*
X108752598Y-90973507D01*
X108636311Y-90895807D01*
X108507099Y-90842285D01*
X108369929Y-90815000D01*
X108230071Y-90815000D01*
X108092901Y-90842285D01*
X107963689Y-90895807D01*
X107847402Y-90973507D01*
X107748507Y-91072402D01*
X107670807Y-91188689D01*
X107617285Y-91317901D01*
X107590000Y-91455071D01*
X107590000Y-91594929D01*
X107617285Y-91732099D01*
X107670807Y-91861311D01*
X107748507Y-91977598D01*
X107820909Y-92050000D01*
X107748507Y-92122402D01*
X107670807Y-92238689D01*
X107617285Y-92367901D01*
X107590000Y-92505071D01*
X107590000Y-92644929D01*
X107617285Y-92782099D01*
X107670807Y-92911311D01*
X107748507Y-93027598D01*
X107847402Y-93126493D01*
X107963689Y-93204193D01*
X108092901Y-93257715D01*
X108230071Y-93285000D01*
X108369929Y-93285000D01*
X108420179Y-93275005D01*
X114110173Y-98965000D01*
X109263252Y-98965000D01*
X109251493Y-98947402D01*
X109152598Y-98848507D01*
X109036311Y-98770807D01*
X108907099Y-98717285D01*
X108769929Y-98690000D01*
X108630071Y-98690000D01*
X108492901Y-98717285D01*
X108363689Y-98770807D01*
X108247402Y-98848507D01*
X108148507Y-98947402D01*
X108070807Y-99063689D01*
X108020089Y-99186131D01*
X106909999Y-98076042D01*
X106909999Y-91281960D01*
X110584946Y-87607013D01*
X110707099Y-87582715D01*
X110836311Y-87529193D01*
X110952598Y-87451493D01*
X111051493Y-87352598D01*
X111129193Y-87236311D01*
X111182715Y-87107099D01*
X111210000Y-86969929D01*
X111210000Y-86830071D01*
X111182715Y-86692901D01*
X111175157Y-86674655D01*
X115392990Y-90892488D01*
X115406606Y-90909079D01*
X115472843Y-90963439D01*
X115548413Y-91003831D01*
X115630410Y-91028705D01*
X115694323Y-91035000D01*
X115694330Y-91035000D01*
X115715684Y-91037103D01*
X115737038Y-91035000D01*
X127378646Y-91035000D01*
X127400000Y-91037103D01*
X127421354Y-91035000D01*
X127421362Y-91035000D01*
X127485275Y-91028705D01*
X127567272Y-91003831D01*
X127642842Y-90963439D01*
X127709079Y-90909079D01*
X127722700Y-90892482D01*
X129592841Y-89022341D01*
X136091309Y-89022341D01*
X136112663Y-89024444D01*
X136134017Y-89022341D01*
X136134025Y-89022341D01*
X136197938Y-89016046D01*
X136279935Y-88991172D01*
X136355505Y-88950780D01*
X136421742Y-88896420D01*
X136435363Y-88879823D01*
X136671974Y-88643213D01*
X136692733Y-88647342D01*
X136832591Y-88647342D01*
X136969761Y-88620057D01*
X137098973Y-88566535D01*
X137215260Y-88488835D01*
X137314155Y-88389940D01*
X137391855Y-88273653D01*
X137445377Y-88144441D01*
X137448456Y-88128963D01*
X137561083Y-88151366D01*
X137700941Y-88151366D01*
X137838111Y-88124081D01*
X137967323Y-88070559D01*
X138083610Y-87992859D01*
X138182505Y-87893964D01*
X138260205Y-87777677D01*
X138313727Y-87648465D01*
X138341012Y-87511295D01*
X138341012Y-87371437D01*
X138313727Y-87234267D01*
X138279387Y-87151364D01*
X143536182Y-87151364D01*
X145577300Y-89192482D01*
X145590921Y-89209079D01*
X145657158Y-89263439D01*
X145697224Y-89284854D01*
X145732727Y-89303831D01*
X145798473Y-89323775D01*
X145814725Y-89328705D01*
X145878638Y-89335000D01*
X145878646Y-89335000D01*
X145900000Y-89337103D01*
X145921354Y-89335000D01*
X145936748Y-89335000D01*
X145948507Y-89352598D01*
X146047402Y-89451493D01*
X146163689Y-89529193D01*
X146292901Y-89582715D01*
X146430071Y-89610000D01*
X146569929Y-89610000D01*
X146707099Y-89582715D01*
X146836311Y-89529193D01*
X146952598Y-89451493D01*
X147051493Y-89352598D01*
X147129193Y-89236311D01*
X147182715Y-89107099D01*
X147210000Y-88969929D01*
X147210000Y-88830071D01*
X147182715Y-88692901D01*
X147129193Y-88563689D01*
X147051493Y-88447402D01*
X146952598Y-88348507D01*
X146836311Y-88270807D01*
X146732684Y-88227883D01*
X146782715Y-88107099D01*
X146810000Y-87969929D01*
X146810000Y-87830071D01*
X146782715Y-87692901D01*
X146729193Y-87563689D01*
X146651493Y-87447402D01*
X146552598Y-87348507D01*
X146436311Y-87270807D01*
X146307099Y-87217285D01*
X146169929Y-87190000D01*
X146030071Y-87190000D01*
X146009312Y-87194129D01*
X143222700Y-84407518D01*
X143209079Y-84390921D01*
X143142842Y-84336561D01*
X143067272Y-84296169D01*
X142985275Y-84271295D01*
X142921362Y-84265000D01*
X142921354Y-84265000D01*
X142900000Y-84262897D01*
X142878646Y-84265000D01*
X115980183Y-84265000D01*
X111765183Y-80050000D01*
X149800000Y-80050000D01*
X149800000Y-85150000D01*
X149801921Y-85169509D01*
X149807612Y-85188268D01*
X149816853Y-85205557D01*
X149829289Y-85220711D01*
X149844443Y-85233147D01*
X149861732Y-85242388D01*
X149880491Y-85248079D01*
X149900000Y-85250000D01*
X163400000Y-85250000D01*
X163419509Y-85248079D01*
X163438268Y-85242388D01*
X163455557Y-85233147D01*
X163470711Y-85220711D01*
X163483147Y-85205557D01*
X163492388Y-85188268D01*
X163498079Y-85169509D01*
X163500000Y-85150000D01*
X163500000Y-80050000D01*
X163498079Y-80030491D01*
X163492388Y-80011732D01*
X163483147Y-79994443D01*
X163470711Y-79979289D01*
X163455557Y-79966853D01*
X163438268Y-79957612D01*
X163419509Y-79951921D01*
X163400000Y-79950000D01*
X149900000Y-79950000D01*
X149880491Y-79951921D01*
X149861732Y-79957612D01*
X149844443Y-79966853D01*
X149829289Y-79979289D01*
X149816853Y-79994443D01*
X149807612Y-80011732D01*
X149801921Y-80030491D01*
X149800000Y-80050000D01*
X111765183Y-80050000D01*
X111326492Y-79611310D01*
X111458788Y-79598280D01*
X111611473Y-79551963D01*
X111752189Y-79476749D01*
X111875528Y-79375528D01*
X111976749Y-79252189D01*
X112051963Y-79111473D01*
X112098280Y-78958788D01*
X112110000Y-78839791D01*
X112110000Y-69310000D01*
X189639791Y-69310000D01*
X189758788Y-69298280D01*
X189911473Y-69251963D01*
X190052189Y-69176749D01*
X190175528Y-69075528D01*
X190276749Y-68952189D01*
X190351963Y-68811473D01*
X190398280Y-68658788D01*
X190413919Y-68500000D01*
X190398280Y-68341212D01*
X190351963Y-68188527D01*
X190276749Y-68047811D01*
X190175528Y-67924472D01*
X190052189Y-67823251D01*
X189911473Y-67748037D01*
X189758788Y-67701720D01*
X189639791Y-67690000D01*
X111239788Y-67690000D01*
X111200000Y-67686081D01*
X111160212Y-67690000D01*
X109939787Y-67690000D01*
X109899999Y-67686081D01*
X109860211Y-67690000D01*
X109860209Y-67690000D01*
X109741212Y-67701720D01*
X109588527Y-67748037D01*
X109447811Y-67823251D01*
X109324472Y-67924472D01*
X109299100Y-67955388D01*
X108899108Y-68355380D01*
X108823251Y-68447811D01*
X108748038Y-68588527D01*
X108701721Y-68741213D01*
X108686081Y-68900000D01*
X108701721Y-69058787D01*
X108748038Y-69211473D01*
X108823251Y-69352189D01*
X108924473Y-69475527D01*
X109047811Y-69576749D01*
X109188527Y-69651962D01*
X109341213Y-69698279D01*
X109500000Y-69713919D01*
X109658787Y-69698279D01*
X109811473Y-69651962D01*
X109952189Y-69576749D01*
X110044620Y-69500892D01*
X110235512Y-69310000D01*
X110490000Y-69310000D01*
X110490001Y-78194515D01*
X110490000Y-78194525D01*
X110490000Y-78774818D01*
X106835000Y-75119818D01*
X106835000Y-70663252D01*
X106852598Y-70651493D01*
X106951493Y-70552598D01*
X107029193Y-70436311D01*
X107082715Y-70307099D01*
X107110000Y-70169929D01*
X107110000Y-70030071D01*
X107082715Y-69892901D01*
X107029193Y-69763689D01*
X106951493Y-69647402D01*
X106852598Y-69548507D01*
X106736311Y-69470807D01*
X106607099Y-69417285D01*
X106469929Y-69390000D01*
X106330071Y-69390000D01*
X106192901Y-69417285D01*
X106063689Y-69470807D01*
X105947402Y-69548507D01*
X105848507Y-69647402D01*
X105770807Y-69763689D01*
X105717285Y-69892901D01*
X105690000Y-70030071D01*
X105690000Y-70169929D01*
X105717285Y-70307099D01*
X105770807Y-70436311D01*
X105848507Y-70552598D01*
X105947402Y-70651493D01*
X105965000Y-70663252D01*
X105965001Y-74949795D01*
X101072712Y-70057506D01*
X101072707Y-70057500D01*
X101055883Y-70040676D01*
X101060012Y-70019917D01*
X101060012Y-69880059D01*
X101032727Y-69742889D01*
X100979205Y-69613677D01*
X100901505Y-69497390D01*
X100802610Y-69398495D01*
X100686323Y-69320795D01*
X100557111Y-69267273D01*
X100419941Y-69239988D01*
X100280083Y-69239988D01*
X100142913Y-69267273D01*
X100013701Y-69320795D01*
X99897414Y-69398495D01*
X99798519Y-69497390D01*
X99720819Y-69613677D01*
X99667297Y-69742889D01*
X99640012Y-69880059D01*
X99640012Y-70019917D01*
X99667297Y-70157087D01*
X99720819Y-70286299D01*
X99798519Y-70402586D01*
X99897414Y-70501481D01*
X100013701Y-70579181D01*
X100142913Y-70632703D01*
X100280083Y-70659988D01*
X100419941Y-70659988D01*
X100440700Y-70655859D01*
X100457524Y-70672683D01*
X100457530Y-70672688D01*
X118179828Y-88394987D01*
X118193444Y-88411578D01*
X118259681Y-88465938D01*
X118335251Y-88506330D01*
X118392373Y-88523658D01*
X118417247Y-88531204D01*
X118425537Y-88532020D01*
X118481161Y-88537499D01*
X118481168Y-88537499D01*
X118502522Y-88539602D01*
X118523876Y-88537499D01*
X125346813Y-88537499D01*
X125275788Y-88595788D01*
X125130829Y-88772421D01*
X125023115Y-88973940D01*
X124956785Y-89192600D01*
X124934388Y-89420000D01*
X124956785Y-89647400D01*
X125023115Y-89866060D01*
X125130829Y-90067579D01*
X125210780Y-90165000D01*
X115895868Y-90165000D01*
X95538385Y-69807518D01*
X95524764Y-69790921D01*
X95458527Y-69736561D01*
X95382957Y-69696169D01*
X95300960Y-69671295D01*
X95237047Y-69665000D01*
X95237039Y-69665000D01*
X95215685Y-69662897D01*
X95194331Y-69665000D01*
X94763252Y-69665000D01*
X94751493Y-69647402D01*
X94652598Y-69548507D01*
X94536311Y-69470807D01*
X94407099Y-69417285D01*
X94269929Y-69390000D01*
X94130071Y-69390000D01*
X93992901Y-69417285D01*
X93863689Y-69470807D01*
X93747402Y-69548507D01*
X93648507Y-69647402D01*
X93570807Y-69763689D01*
X93517285Y-69892901D01*
X93490000Y-70030071D01*
X89202631Y-70030071D01*
X89200102Y-67550090D01*
X200149898Y-67649910D01*
G36*
X143913098Y-86328280D02*
G01*
X143883636Y-86312533D01*
X143801639Y-86287659D01*
X143737726Y-86281364D01*
X143737718Y-86281364D01*
X143716364Y-86279261D01*
X143695010Y-86281364D01*
X127384989Y-86281364D01*
X127363635Y-86279261D01*
X127342281Y-86281364D01*
X127342274Y-86281364D01*
X127286650Y-86286843D01*
X127278360Y-86287659D01*
X127261499Y-86292774D01*
X127261499Y-86030000D01*
X127255514Y-85969230D01*
X127237788Y-85910794D01*
X127209002Y-85856940D01*
X127170263Y-85809737D01*
X127123060Y-85770998D01*
X127069206Y-85742212D01*
X127010770Y-85724486D01*
X126950000Y-85718501D01*
X125250000Y-85718501D01*
X125189230Y-85724486D01*
X125130794Y-85742212D01*
X125076940Y-85770998D01*
X125029737Y-85809737D01*
X124990998Y-85856940D01*
X124962212Y-85910794D01*
X124944486Y-85969230D01*
X124938501Y-86030000D01*
X124938501Y-87667499D01*
X118682706Y-87667499D01*
X116150207Y-85135000D01*
X142719818Y-85135000D01*
X143913098Y-86328280D01*
X143913098Y-86328280D01*
G37*
X143913098Y-86328280D02*
X143883636Y-86312533D01*
X143801639Y-86287659D01*
X143737726Y-86281364D01*
X143737718Y-86281364D01*
X143716364Y-86279261D01*
X143695010Y-86281364D01*
X127384989Y-86281364D01*
X127363635Y-86279261D01*
X127342281Y-86281364D01*
X127342274Y-86281364D01*
X127286650Y-86286843D01*
X127278360Y-86287659D01*
X127261499Y-86292774D01*
X127261499Y-86030000D01*
X127255514Y-85969230D01*
X127237788Y-85910794D01*
X127209002Y-85856940D01*
X127170263Y-85809737D01*
X127123060Y-85770998D01*
X127069206Y-85742212D01*
X127010770Y-85724486D01*
X126950000Y-85718501D01*
X125250000Y-85718501D01*
X125189230Y-85724486D01*
X125130794Y-85742212D01*
X125076940Y-85770998D01*
X125029737Y-85809737D01*
X124990998Y-85856940D01*
X124962212Y-85910794D01*
X124944486Y-85969230D01*
X124938501Y-86030000D01*
X124938501Y-87667499D01*
X118682706Y-87667499D01*
X116150207Y-85135000D01*
X142719818Y-85135000D01*
X143913098Y-86328280D01*
M02*
